<svg width="1400" height="905" viewBox="0 0 1400 905" fill="none" xmlns="http://www.w3.org/2000/svg">
<rect width="1400" height="905" fill="white"/>
<path d="M585.379 790.818H589.164L598.061 812.551H598.368L607.266 790.818H611.05V817H608.084V797.108H607.828L599.646 817H596.783L588.601 797.108H588.345V817H585.379V790.818ZM639.498 803.909C639.498 806.67 638.999 809.057 638.002 811.068C637.005 813.08 635.637 814.631 633.898 815.722C632.16 816.812 630.174 817.358 627.941 817.358C625.708 817.358 623.722 816.812 621.983 815.722C620.245 814.631 618.877 813.08 617.88 811.068C616.883 809.057 616.384 806.67 616.384 803.909C616.384 801.148 616.883 798.761 617.88 796.75C618.877 794.739 620.245 793.188 621.983 792.097C623.722 791.006 625.708 790.46 627.941 790.46C630.174 790.46 632.16 791.006 633.898 792.097C635.637 793.188 637.005 794.739 638.002 796.75C638.999 798.761 639.498 801.148 639.498 803.909ZM636.43 803.909C636.43 801.642 636.05 799.729 635.292 798.169C634.542 796.609 633.523 795.429 632.236 794.628C630.958 793.827 629.526 793.426 627.941 793.426C626.356 793.426 624.92 793.827 623.633 794.628C622.354 795.429 621.336 796.609 620.577 798.169C619.827 799.729 619.452 801.642 619.452 803.909C619.452 806.176 619.827 808.089 620.577 809.649C621.336 811.209 622.354 812.389 623.633 813.19C624.92 813.991 626.356 814.392 627.941 814.392C629.526 814.392 630.958 813.991 632.236 813.19C633.523 812.389 634.542 811.209 635.292 809.649C636.05 808.089 636.43 806.176 636.43 803.909ZM666.92 803.909C666.92 806.67 666.421 809.057 665.424 811.068C664.427 813.08 663.059 814.631 661.32 815.722C659.581 816.812 657.596 817.358 655.363 817.358C653.13 817.358 651.144 816.812 649.405 815.722C647.667 814.631 646.299 813.08 645.302 811.068C644.305 809.057 643.806 806.67 643.806 803.909C643.806 801.148 644.305 798.761 645.302 796.75C646.299 794.739 647.667 793.188 649.405 792.097C651.144 791.006 653.13 790.46 655.363 790.46C657.596 790.46 659.581 791.006 661.32 792.097C663.059 793.188 664.427 794.739 665.424 796.75C666.421 798.761 666.92 801.148 666.92 803.909ZM663.851 803.909C663.851 801.642 663.472 799.729 662.714 798.169C661.964 796.609 660.945 795.429 659.658 794.628C658.38 793.827 656.948 793.426 655.363 793.426C653.778 793.426 652.341 793.827 651.055 794.628C649.776 795.429 648.758 796.609 647.999 798.169C647.249 799.729 646.874 801.642 646.874 803.909C646.874 806.176 647.249 808.089 647.999 809.649C648.758 811.209 649.776 812.389 651.055 813.19C652.341 813.991 653.778 814.392 655.363 814.392C656.948 814.392 658.38 813.991 659.658 813.19C660.945 812.389 661.964 811.209 662.714 809.649C663.472 808.089 663.851 806.176 663.851 803.909ZM680.33 817H672.251V790.818H680.688C683.228 790.818 685.401 791.342 687.208 792.391C689.015 793.43 690.4 794.926 691.363 796.878C692.326 798.821 692.807 801.148 692.807 803.858C692.807 806.585 692.322 808.933 691.35 810.902C690.378 812.862 688.964 814.371 687.106 815.428C685.248 816.476 682.989 817 680.33 817ZM675.421 814.188H680.126C682.29 814.188 684.084 813.77 685.508 812.935C686.931 812.099 687.992 810.911 688.691 809.368C689.39 807.825 689.739 805.989 689.739 803.858C689.739 801.744 689.394 799.925 688.704 798.399C688.013 796.865 686.982 795.689 685.61 794.871C684.238 794.044 682.529 793.631 680.483 793.631H675.421V814.188ZM698.126 817V790.818H707.279C709.103 790.818 710.607 791.134 711.792 791.764C712.976 792.386 713.858 793.226 714.438 794.283C715.018 795.331 715.307 796.494 715.307 797.773C715.307 798.898 715.107 799.827 714.706 800.56C714.314 801.293 713.795 801.872 713.147 802.298C712.508 802.724 711.813 803.04 711.063 803.244V803.5C711.864 803.551 712.67 803.832 713.479 804.344C714.289 804.855 714.966 805.588 715.512 806.543C716.057 807.497 716.33 808.665 716.33 810.045C716.33 811.358 716.032 812.538 715.435 813.587C714.839 814.635 713.897 815.466 712.61 816.08C711.323 816.693 709.648 817 707.586 817H698.126ZM701.296 814.188H707.586C709.657 814.188 711.127 813.787 711.996 812.986C712.874 812.176 713.313 811.196 713.313 810.045C713.313 809.159 713.087 808.341 712.635 807.591C712.184 806.832 711.54 806.227 710.705 805.776C709.87 805.315 708.881 805.085 707.739 805.085H701.296V814.188ZM701.296 802.324H707.177C708.131 802.324 708.992 802.136 709.759 801.761C710.535 801.386 711.148 800.858 711.6 800.176C712.06 799.494 712.29 798.693 712.29 797.773C712.29 796.622 711.89 795.646 711.089 794.845C710.287 794.036 709.018 793.631 707.279 793.631H701.296V802.324ZM743.631 803.909C743.631 806.67 743.132 809.057 742.135 811.068C741.138 813.08 739.77 814.631 738.031 815.722C736.292 816.812 734.307 817.358 732.074 817.358C729.841 817.358 727.855 816.812 726.116 815.722C724.378 814.631 723.01 813.08 722.013 811.068C721.015 809.057 720.517 806.67 720.517 803.909C720.517 801.148 721.015 798.761 722.013 796.75C723.01 794.739 724.378 793.188 726.116 792.097C727.855 791.006 729.841 790.46 732.074 790.46C734.307 790.46 736.292 791.006 738.031 792.097C739.77 793.188 741.138 794.739 742.135 796.75C743.132 798.761 743.631 801.148 743.631 803.909ZM740.562 803.909C740.562 801.642 740.183 799.729 739.425 798.169C738.675 796.609 737.656 795.429 736.369 794.628C735.091 793.827 733.659 793.426 732.074 793.426C730.488 793.426 729.052 793.827 727.765 794.628C726.487 795.429 725.469 796.609 724.71 798.169C723.96 799.729 723.585 801.642 723.585 803.909C723.585 806.176 723.96 808.089 724.71 809.649C725.469 811.209 726.487 812.389 727.765 813.19C729.052 813.991 730.488 814.392 732.074 814.392C733.659 814.392 735.091 813.991 736.369 813.19C737.656 812.389 738.675 811.209 739.425 809.649C740.183 808.089 740.562 806.176 740.562 803.909ZM748.805 817H745.481L755.095 790.818H758.367L767.981 817H764.657L756.833 794.96H756.629L748.805 817ZM750.032 806.773H763.43V809.585H750.032V806.773ZM772.059 817V790.818H780.906C782.951 790.818 784.63 791.168 785.943 791.866C787.255 792.557 788.227 793.507 788.857 794.717C789.488 795.928 789.803 797.304 789.803 798.847C789.803 800.389 789.488 801.757 788.857 802.95C788.227 804.143 787.259 805.081 785.955 805.763C784.651 806.436 782.985 806.773 780.957 806.773H773.798V803.909H780.855C782.252 803.909 783.377 803.705 784.23 803.295C785.09 802.886 785.713 802.307 786.096 801.557C786.488 800.798 786.684 799.895 786.684 798.847C786.684 797.798 786.488 796.882 786.096 796.098C785.704 795.314 785.078 794.709 784.217 794.283C783.356 793.848 782.218 793.631 780.803 793.631H775.23V817H772.059ZM784.383 805.239L790.826 817H787.144L780.803 805.239H784.383ZM803.166 817H795.086V790.818H803.524C806.064 790.818 808.237 791.342 810.044 792.391C811.851 793.43 813.236 794.926 814.199 796.878C815.162 798.821 815.643 801.148 815.643 803.858C815.643 806.585 815.157 808.933 814.186 810.902C813.214 812.862 811.8 814.371 809.942 815.428C808.084 816.476 805.825 817 803.166 817ZM798.257 814.188H802.961C805.126 814.188 806.92 813.77 808.344 812.935C809.767 812.099 810.828 810.911 811.527 809.368C812.226 807.825 812.575 805.989 812.575 803.858C812.575 801.744 812.23 799.925 811.54 798.399C810.849 796.865 809.818 795.689 808.446 794.871C807.074 794.044 805.365 793.631 803.319 793.631H798.257V814.188Z" fill="#7596C7"/>
<rect x="85.5" y="78.5" width="453" height="559.768" fill="#E0EAF9" stroke="#7596C7"/>
<rect x="559.5" y="78.5" width="399" height="327.013" fill="#E0EAF9" stroke="#7596C7"/>
<rect x="559.5" y="424.486" width="399" height="327.013" fill="#E0EAF9" stroke="#7596C7"/>
<rect x="979.5" y="513.455" width="335" height="238.045" fill="#E0EAF9" stroke="#7596C7"/>
<rect x="979.5" y="78.5" width="335" height="415.981" fill="#E0EAF9" stroke="#7596C7"/>
<rect x="433.5" y="657.242" width="105" height="94.2587" fill="#E0EAF9" stroke="#7596C7"/>
<rect x="317.5" y="657.242" width="105" height="94.2587" fill="#E0EAF9" stroke="#7596C7"/>
<rect x="201.5" y="657.242" width="105" height="94.2587" fill="#E0EAF9" stroke="#7596C7"/>
<rect x="85.5" y="657.242" width="105" height="94.2587" fill="#E0EAF9" stroke="#7596C7"/>
<line y1="-0.5" x2="721.51" y2="-0.5" transform="matrix(-0.629236 0.777214 -0.836973 -0.547244 539 78)" stroke="#7596C7"/>
<line y1="-0.5" x2="517.294" y2="-0.5" transform="matrix(-0.773255 0.634095 -0.917304 -0.398187 959 78)" stroke="#7596C7"/>
<line y1="-0.5" x2="517.294" y2="-0.5" transform="matrix(-0.773255 0.634095 -0.917304 -0.398187 959 423.986)" stroke="#7596C7"/>
<line y1="-0.5" x2="412.357" y2="-0.5" transform="matrix(-0.814827 0.579704 -0.935835 -0.352438 1315 512.955)" stroke="#7596C7"/>
<line y1="-0.5" x2="535.509" y2="-0.5" transform="matrix(-0.627441 0.778664 -0.835787 -0.549054 1315 78)" stroke="#7596C7"/>
<line y1="-0.5" x2="721.51" y2="-0.5" transform="matrix(0.629236 0.777214 -0.836973 0.547244 85 78)" stroke="#7596C7"/>
<line y1="-0.5" x2="517.294" y2="-0.5" transform="matrix(0.773255 0.634095 -0.917304 0.398187 559 78)" stroke="#7596C7"/>
<line y1="-0.5" x2="517.294" y2="-0.5" transform="matrix(0.773255 0.634095 -0.917304 0.398187 559 423.986)" stroke="#7596C7"/>
<line y1="-0.5" x2="412.357" y2="-0.5" transform="matrix(0.814827 0.579704 -0.935835 0.352438 979 512.955)" stroke="#7596C7"/>
<line y1="-0.5" x2="535.509" y2="-0.5" transform="matrix(0.627441 0.778664 -0.835787 0.549054 979 78)" stroke="#7596C7"/>
</svg>
