<svg width="1400" height="905" viewBox="0 0 1400 905" fill="none" xmlns="http://www.w3.org/2000/svg">
<rect width="1400" height="905" fill="white"/>
<rect x="85.5" y="78.5" width="453" height="671" fill="#E0EAF9" stroke="#7596C7"/>
<rect x="559.5" y="78.5" width="755" height="671" fill="#E0EAF9" stroke="#7596C7"/>
<path d="M565.415 817.358C563.915 817.358 562.565 817.06 561.363 816.463C560.161 815.866 559.198 815.048 558.474 814.009C557.749 812.969 557.353 811.784 557.285 810.455H560.353C560.472 811.639 561.009 812.619 561.964 813.395C562.927 814.162 564.077 814.545 565.415 814.545C566.489 814.545 567.444 814.294 568.279 813.791C569.123 813.288 569.783 812.598 570.261 811.72C570.746 810.834 570.989 809.832 570.989 808.716C570.989 807.574 570.738 806.555 570.235 805.661C569.741 804.757 569.059 804.045 568.19 803.526C567.32 803.006 566.327 802.741 565.211 802.733C564.41 802.724 563.587 802.848 562.744 803.104C561.9 803.351 561.205 803.67 560.66 804.062L557.694 803.705L559.279 790.818H572.881V793.631H561.938L561.018 801.352H561.171C561.708 800.926 562.381 800.572 563.191 800.291C564.001 800.01 564.844 799.869 565.722 799.869C567.325 799.869 568.752 800.253 570.005 801.02C571.266 801.778 572.255 802.818 572.971 804.139C573.695 805.46 574.058 806.969 574.058 808.665C574.058 810.335 573.683 811.827 572.933 813.139C572.191 814.443 571.168 815.474 569.864 816.233C568.56 816.983 567.077 817.358 565.415 817.358ZM580.402 817.205C579.771 817.205 579.23 816.979 578.778 816.527C578.326 816.075 578.1 815.534 578.1 814.903C578.1 814.273 578.326 813.732 578.778 813.28C579.23 812.828 579.771 812.602 580.402 812.602C581.032 812.602 581.574 812.828 582.025 813.28C582.477 813.732 582.703 814.273 582.703 814.903C582.703 815.321 582.596 815.705 582.383 816.054C582.179 816.403 581.902 816.685 581.552 816.898C581.211 817.102 580.828 817.205 580.402 817.205ZM595.691 817.358C593.765 817.358 592.125 816.834 590.77 815.786C589.414 814.729 588.379 813.199 587.663 811.196C586.947 809.185 586.589 806.756 586.589 803.909C586.589 801.08 586.947 798.663 587.663 796.661C588.387 794.649 589.427 793.115 590.782 792.058C592.146 790.993 593.782 790.46 595.691 790.46C597.6 790.46 599.233 790.993 600.588 792.058C601.951 793.115 602.991 794.649 603.707 796.661C604.431 798.663 604.794 801.08 604.794 803.909C604.794 806.756 604.436 809.185 603.72 811.196C603.004 813.199 601.968 814.729 600.613 815.786C599.258 816.834 597.618 817.358 595.691 817.358ZM595.691 814.545C597.6 814.545 599.083 813.625 600.14 811.784C601.197 809.943 601.725 807.318 601.725 803.909C601.725 801.642 601.483 799.712 600.997 798.118C600.52 796.524 599.829 795.31 598.926 794.474C598.031 793.639 596.953 793.222 595.691 793.222C593.799 793.222 592.321 794.155 591.255 796.021C590.19 797.879 589.657 800.509 589.657 803.909C589.657 806.176 589.896 808.102 590.373 809.688C590.85 811.273 591.537 812.479 592.431 813.305C593.335 814.132 594.422 814.545 595.691 814.545ZM620.237 817V790.818H629.083C631.129 790.818 632.808 791.168 634.12 791.866C635.433 792.557 636.404 793.507 637.035 794.717C637.666 795.928 637.981 797.304 637.981 798.847C637.981 800.389 637.666 801.757 637.035 802.95C636.404 804.143 635.437 805.081 634.133 805.763C632.829 806.436 631.163 806.773 629.135 806.773H621.975V803.909H629.032C630.43 803.909 631.555 803.705 632.407 803.295C633.268 802.886 633.89 802.307 634.274 801.557C634.666 800.798 634.862 799.895 634.862 798.847C634.862 797.798 634.666 796.882 634.274 796.098C633.882 795.314 633.255 794.709 632.395 794.283C631.534 793.848 630.396 793.631 628.981 793.631H623.407V817H620.237ZM632.561 805.239L639.004 817H635.322L628.981 805.239H632.561ZM643.264 817V790.818H659.065V793.631H646.435V802.477H658.247V805.29H646.435V814.188H659.27V817H643.264ZM685.541 790.818V817H682.473L668.206 796.443H667.95V817H664.78V790.818H667.848L682.166 811.426H682.422V790.818H685.541ZM699.965 817H691.885V790.818H700.323C702.863 790.818 705.036 791.342 706.843 792.391C708.65 793.43 710.034 794.926 710.998 796.878C711.961 798.821 712.442 801.148 712.442 803.858C712.442 806.585 711.956 808.933 710.985 810.902C710.013 812.862 708.598 814.371 706.74 815.428C704.882 816.476 702.624 817 699.965 817ZM695.056 814.188H699.76C701.925 814.188 703.719 813.77 705.142 812.935C706.566 812.099 707.627 810.911 708.326 809.368C709.025 807.825 709.374 805.989 709.374 803.858C709.374 801.744 709.029 799.925 708.338 798.399C707.648 796.865 706.617 795.689 705.245 794.871C703.873 794.044 702.164 793.631 700.118 793.631H695.056V814.188ZM717.76 817V790.818H733.561V793.631H720.931V802.477H732.743V805.29H720.931V814.188H733.766V817H717.76ZM739.276 817V790.818H748.123C750.168 790.818 751.847 791.168 753.159 791.866C754.472 792.557 755.444 793.507 756.074 794.717C756.705 795.928 757.02 797.304 757.02 798.847C757.02 800.389 756.705 801.757 756.074 802.95C755.444 804.143 754.476 805.081 753.172 805.763C751.868 806.436 750.202 806.773 748.174 806.773H741.015V803.909H748.071C749.469 803.909 750.594 803.705 751.446 803.295C752.307 802.886 752.929 802.307 753.313 801.557C753.705 800.798 753.901 799.895 753.901 798.847C753.901 797.798 753.705 796.882 753.313 796.098C752.921 795.314 752.294 794.709 751.434 794.283C750.573 793.848 749.435 793.631 748.02 793.631H742.446V817H739.276ZM751.6 805.239L758.043 817H754.361L748.02 805.239H751.6ZM765.474 790.818V817H762.303V790.818H765.474ZM792.592 790.818V817H789.524L775.257 796.443H775.001V817H771.831V790.818H774.899L789.217 811.426H789.473V790.818H792.592ZM816.834 799C816.553 798.139 816.182 797.368 815.722 796.686C815.27 795.996 814.729 795.408 814.098 794.922C813.476 794.436 812.768 794.065 811.976 793.81C811.183 793.554 810.314 793.426 809.368 793.426C807.817 793.426 806.406 793.827 805.136 794.628C803.866 795.429 802.857 796.609 802.107 798.169C801.357 799.729 800.982 801.642 800.982 803.909C800.982 806.176 801.361 808.089 802.119 809.649C802.878 811.209 803.905 812.389 805.2 813.19C806.496 813.991 807.953 814.392 809.572 814.392C811.072 814.392 812.393 814.072 813.536 813.433C814.686 812.786 815.581 811.874 816.22 810.697C816.868 809.513 817.192 808.119 817.192 806.517L818.163 806.722H810.288V803.909H820.26V806.722C820.26 808.878 819.8 810.753 818.879 812.347C817.967 813.94 816.706 815.176 815.095 816.054C813.493 816.923 811.652 817.358 809.572 817.358C807.254 817.358 805.217 816.812 803.462 815.722C801.714 814.631 800.351 813.08 799.371 811.068C798.399 809.057 797.913 806.67 797.913 803.909C797.913 801.838 798.19 799.976 798.744 798.322C799.307 796.661 800.099 795.246 801.122 794.078C802.145 792.911 803.355 792.016 804.753 791.393C806.151 790.771 807.689 790.46 809.368 790.46C810.749 790.46 812.036 790.669 813.229 791.087C814.43 791.496 815.5 792.08 816.438 792.838C817.384 793.588 818.172 794.487 818.803 795.536C819.433 796.575 819.868 797.73 820.107 799H816.834ZM840.008 797.364C839.855 796.068 839.233 795.062 838.142 794.347C837.051 793.631 835.713 793.273 834.127 793.273C832.968 793.273 831.954 793.46 831.085 793.835C830.224 794.21 829.551 794.726 829.065 795.382C828.588 796.038 828.349 796.784 828.349 797.619C828.349 798.318 828.515 798.919 828.848 799.422C829.189 799.916 829.623 800.33 830.152 800.662C830.68 800.986 831.234 801.254 831.814 801.467C832.393 801.672 832.926 801.838 833.412 801.966L836.071 802.682C836.752 802.861 837.511 803.108 838.346 803.423C839.19 803.739 839.995 804.169 840.762 804.714C841.538 805.251 842.177 805.942 842.68 806.786C843.183 807.629 843.434 808.665 843.434 809.892C843.434 811.307 843.064 812.585 842.322 813.727C841.589 814.869 840.515 815.777 839.1 816.45C837.694 817.124 835.985 817.46 833.974 817.46C832.099 817.46 830.475 817.158 829.103 816.553C827.74 815.947 826.666 815.104 825.882 814.021C825.106 812.939 824.667 811.682 824.565 810.25H827.838C827.923 811.239 828.255 812.057 828.835 812.705C829.423 813.344 830.164 813.821 831.059 814.136C831.963 814.443 832.934 814.597 833.974 814.597C835.184 814.597 836.271 814.401 837.234 814.009C838.197 813.608 838.96 813.054 839.522 812.347C840.085 811.631 840.366 810.795 840.366 809.841C840.366 808.972 840.123 808.264 839.637 807.719C839.152 807.173 838.512 806.73 837.72 806.389C836.927 806.048 836.071 805.75 835.15 805.494L831.929 804.574C829.883 803.986 828.264 803.146 827.071 802.055C825.877 800.964 825.281 799.537 825.281 797.773C825.281 796.307 825.677 795.028 826.47 793.938C827.271 792.838 828.345 791.986 829.691 791.381C831.047 790.767 832.559 790.46 834.23 790.46C835.917 790.46 837.417 790.763 838.73 791.368C840.042 791.964 841.082 792.783 841.849 793.822C842.625 794.862 843.034 796.043 843.076 797.364H840.008Z" fill="#7596C7"/>
<line y1="-0.5" x2="1011.49" y2="-0.5" transform="matrix(-0.747409 0.664364 -0.904838 -0.425756 1315 78)" stroke="#7596C7"/>
<line y1="-0.5" x2="1011.49" y2="-0.5" transform="matrix(0.747409 0.664364 -0.904838 0.425756 559 78)" stroke="#7596C7"/>
<line y1="-0.5" x2="810.987" y2="-0.5" transform="matrix(-0.559812 0.82862 -0.787153 -0.616758 539 78)" stroke="#7596C7"/>
<line y1="-0.5" x2="810.987" y2="-0.5" transform="matrix(0.559812 0.82862 -0.787153 0.616758 85 78)" stroke="#7596C7"/>
</svg>
