<svg width="1400" height="905" viewBox="0 0 1400 905" fill="none" xmlns="http://www.w3.org/2000/svg">
<rect width="1400" height="905" fill="white"/>
<path d="M562.63 817V814.699L571.272 805.239C572.286 804.131 573.122 803.168 573.778 802.349C574.434 801.523 574.92 800.747 575.235 800.023C575.559 799.29 575.721 798.523 575.721 797.722C575.721 796.801 575.499 796.004 575.056 795.331C574.622 794.658 574.025 794.138 573.267 793.771C572.508 793.405 571.656 793.222 570.71 793.222C569.704 793.222 568.826 793.43 568.076 793.848C567.335 794.257 566.759 794.832 566.35 795.574C565.95 796.315 565.749 797.185 565.749 798.182H562.732C562.732 796.648 563.086 795.301 563.794 794.142C564.501 792.983 565.464 792.08 566.683 791.432C567.91 790.784 569.286 790.46 570.812 790.46C572.346 790.46 573.705 790.784 574.89 791.432C576.075 792.08 577.004 792.953 577.677 794.053C578.35 795.152 578.687 796.375 578.687 797.722C578.687 798.685 578.512 799.626 578.163 800.547C577.822 801.459 577.225 802.477 576.373 803.602C575.529 804.719 574.357 806.082 572.857 807.693L566.977 813.983V814.188H579.147V817H562.63ZM586.677 817.205C586.046 817.205 585.505 816.979 585.053 816.527C584.602 816.075 584.376 815.534 584.376 814.903C584.376 814.273 584.602 813.732 585.053 813.28C585.505 812.828 586.046 812.602 586.677 812.602C587.308 812.602 587.849 812.828 588.301 813.28C588.752 813.732 588.978 814.273 588.978 814.903C588.978 815.321 588.872 815.705 588.659 816.054C588.454 816.403 588.177 816.685 587.828 816.898C587.487 817.102 587.103 817.205 586.677 817.205ZM601.967 817.358C600.041 817.358 598.4 816.834 597.045 815.786C595.69 814.729 594.654 813.199 593.938 811.196C593.222 809.185 592.865 806.756 592.865 803.909C592.865 801.08 593.222 798.663 593.938 796.661C594.663 794.649 595.703 793.115 597.058 792.058C598.421 790.993 600.058 790.46 601.967 790.46C603.876 790.46 605.508 790.993 606.863 792.058C608.227 793.115 609.267 794.649 609.982 796.661C610.707 798.663 611.069 801.08 611.069 803.909C611.069 806.756 610.711 809.185 609.995 811.196C609.279 813.199 608.244 814.729 606.889 815.786C605.534 816.834 603.893 817.358 601.967 817.358ZM601.967 814.545C603.876 814.545 605.359 813.625 606.416 811.784C607.472 809.943 608.001 807.318 608.001 803.909C608.001 801.642 607.758 799.712 607.272 798.118C606.795 796.524 606.105 795.31 605.201 794.474C604.306 793.639 603.228 793.222 601.967 793.222C600.075 793.222 598.596 794.155 597.531 796.021C596.465 797.879 595.933 800.509 595.933 803.909C595.933 806.176 596.171 808.102 596.649 809.688C597.126 811.273 597.812 812.479 598.707 813.305C599.61 814.132 600.697 814.545 601.967 814.545ZM626.512 817V790.818H642.313V793.631H629.683V802.477H641.495V805.29H629.683V814.188H642.518V817H626.512ZM648.028 817V790.818H651.198V814.188H663.369V817H648.028ZM668.278 817V790.818H684.079V793.631H671.448V802.477H683.261V805.29H671.448V814.188H684.284V817H668.278ZM690.867 790.818L698.64 812.858H698.947L706.72 790.818H710.044L700.43 817H697.157L687.544 790.818H690.867ZM712.945 817H709.622L719.235 790.818H722.508L732.122 817H728.798L720.974 794.96H720.769L712.945 817ZM714.173 806.773H727.57V809.585H714.173V806.773ZM731.709 793.631V790.818H751.346V793.631H743.113V817H739.942V793.631H731.709ZM759.409 790.818V817H756.239V790.818H759.409ZM787.857 803.909C787.857 806.67 787.358 809.057 786.361 811.068C785.364 813.08 783.996 814.631 782.258 815.722C780.519 816.812 778.533 817.358 776.3 817.358C774.067 817.358 772.081 816.812 770.343 815.722C768.604 814.631 767.236 813.08 766.239 811.068C765.242 809.057 764.743 806.67 764.743 803.909C764.743 801.148 765.242 798.761 766.239 796.75C767.236 794.739 768.604 793.188 770.343 792.097C772.081 791.006 774.067 790.46 776.3 790.46C778.533 790.46 780.519 791.006 782.258 792.097C783.996 793.188 785.364 794.739 786.361 796.75C787.358 798.761 787.857 801.148 787.857 803.909ZM784.789 803.909C784.789 801.642 784.41 799.729 783.651 798.169C782.901 796.609 781.883 795.429 780.596 794.628C779.317 793.827 777.885 793.426 776.3 793.426C774.715 793.426 773.279 793.827 771.992 794.628C770.714 795.429 769.695 796.609 768.937 798.169C768.187 799.729 767.812 801.642 767.812 803.909C767.812 806.176 768.187 808.089 768.937 809.649C769.695 811.209 770.714 812.389 771.992 813.19C773.279 813.991 774.715 814.392 776.3 814.392C777.885 814.392 779.317 813.991 780.596 813.19C781.883 812.389 782.901 811.209 783.651 809.649C784.41 808.089 784.789 806.176 784.789 803.909ZM813.949 790.818V817H810.881L796.614 796.443H796.358V817H793.188V790.818H796.256L810.574 811.426H810.83V790.818H813.949ZM834.612 797.364C834.458 796.068 833.836 795.062 832.745 794.347C831.654 793.631 830.316 793.273 828.731 793.273C827.572 793.273 826.558 793.46 825.688 793.835C824.828 794.21 824.154 794.726 823.669 795.382C823.191 796.038 822.953 796.784 822.953 797.619C822.953 798.318 823.119 798.919 823.451 799.422C823.792 799.916 824.227 800.33 824.755 800.662C825.284 800.986 825.838 801.254 826.417 801.467C826.997 801.672 827.529 801.838 828.015 801.966L830.674 802.682C831.356 802.861 832.115 803.108 832.95 803.423C833.794 803.739 834.599 804.169 835.366 804.714C836.142 805.251 836.781 805.942 837.284 806.786C837.786 807.629 838.038 808.665 838.038 809.892C838.038 811.307 837.667 812.585 836.926 813.727C836.193 814.869 835.119 815.777 833.704 816.45C832.298 817.124 830.589 817.46 828.578 817.46C826.703 817.46 825.079 817.158 823.707 816.553C822.343 815.947 821.269 815.104 820.485 814.021C819.71 812.939 819.271 811.682 819.169 810.25H822.441C822.526 811.239 822.859 812.057 823.438 812.705C824.026 813.344 824.768 813.821 825.663 814.136C826.566 814.443 827.538 814.597 828.578 814.597C829.788 814.597 830.874 814.401 831.838 814.009C832.801 813.608 833.563 813.054 834.126 812.347C834.688 811.631 834.97 810.795 834.97 809.841C834.97 808.972 834.727 808.264 834.241 807.719C833.755 807.173 833.116 806.73 832.323 806.389C831.531 806.048 830.674 805.75 829.754 805.494L826.532 804.574C824.487 803.986 822.867 803.146 821.674 802.055C820.481 800.964 819.884 799.537 819.884 797.773C819.884 796.307 820.281 795.028 821.073 793.938C821.874 792.838 822.948 791.986 824.295 791.381C825.65 790.767 827.163 790.46 828.833 790.46C830.521 790.46 832.021 790.763 833.333 791.368C834.646 791.964 835.686 792.783 836.453 793.822C837.228 794.862 837.637 796.043 837.68 797.364H834.612Z" fill="#7596C7"/>
<circle cx="605.5" cy="703.5" r="30" fill="white" stroke="#7596C7"/>
<path d="M608.774 684.909V698H607.189V686.571H607.112L603.916 688.693V687.082L607.189 684.909H608.774ZM587.996 706.909V720H586.41V706.909H587.996ZM595.214 720H591.174V706.909H595.393C596.663 706.909 597.749 707.171 598.653 707.695C599.556 708.215 600.249 708.963 600.73 709.939C601.212 710.911 601.453 712.074 601.453 713.429C601.453 714.793 601.21 715.967 600.724 716.951C600.238 717.931 599.531 718.685 598.602 719.214C597.673 719.738 596.543 720 595.214 720ZM592.759 718.594H595.112C596.194 718.594 597.091 718.385 597.803 717.967C598.514 717.55 599.045 716.955 599.394 716.184C599.744 715.413 599.918 714.494 599.918 713.429C599.918 712.372 599.746 711.462 599.401 710.7C599.055 709.933 598.54 709.344 597.854 708.935C597.168 708.522 596.313 708.315 595.291 708.315H592.759V718.594ZM603.881 720V718.849L608.203 714.119C608.71 713.565 609.127 713.084 609.455 712.675C609.783 712.261 610.026 711.874 610.184 711.511C610.346 711.145 610.427 710.761 610.427 710.361C610.427 709.901 610.316 709.502 610.095 709.165C609.877 708.829 609.579 708.569 609.2 708.386C608.82 708.202 608.394 708.111 607.921 708.111C607.418 708.111 606.979 708.215 606.604 708.424C606.234 708.629 605.946 708.916 605.742 709.287C605.541 709.658 605.441 710.092 605.441 710.591H603.933C603.933 709.824 604.109 709.151 604.463 708.571C604.817 707.991 605.298 707.54 605.908 707.216C606.521 706.892 607.21 706.73 607.972 706.73C608.739 706.73 609.419 706.892 610.011 707.216C610.604 707.54 611.068 707.977 611.405 708.526C611.742 709.076 611.91 709.688 611.91 710.361C611.91 710.842 611.823 711.313 611.648 711.773C611.477 712.229 611.179 712.739 610.753 713.301C610.331 713.859 609.745 714.541 608.995 715.347L606.055 718.491V718.594H612.14V720H603.881ZM615.905 720.102C615.59 720.102 615.319 719.989 615.093 719.763C614.867 719.538 614.754 719.267 614.754 718.952C614.754 718.636 614.867 718.366 615.093 718.14C615.319 717.914 615.59 717.801 615.905 717.801C616.22 717.801 616.491 717.914 616.717 718.14C616.943 718.366 617.055 718.636 617.055 718.952C617.055 719.161 617.002 719.352 616.896 719.527C616.793 719.702 616.655 719.842 616.48 719.949C616.31 720.051 616.118 720.102 615.905 720.102ZM623.55 720.179C622.587 720.179 621.766 719.917 621.089 719.393C620.411 718.864 619.894 718.099 619.536 717.098C619.178 716.092 618.999 714.878 618.999 713.455C618.999 712.04 619.178 710.832 619.536 709.83C619.898 708.825 620.418 708.058 621.095 707.529C621.777 706.996 622.595 706.73 623.55 706.73C624.504 706.73 625.32 706.996 625.998 707.529C626.68 708.058 627.2 708.825 627.558 709.83C627.92 710.832 628.101 712.04 628.101 713.455C628.101 714.878 627.922 716.092 627.564 717.098C627.206 718.099 626.688 718.864 626.011 719.393C625.333 719.917 624.513 720.179 623.55 720.179ZM623.55 718.773C624.504 718.773 625.246 718.312 625.774 717.392C626.303 716.472 626.567 715.159 626.567 713.455C626.567 712.321 626.445 711.356 626.203 710.559C625.964 709.762 625.619 709.155 625.167 708.737C624.72 708.32 624.18 708.111 623.55 708.111C622.604 708.111 621.864 708.577 621.332 709.511C620.799 710.44 620.533 711.754 620.533 713.455C620.533 714.588 620.652 715.551 620.891 716.344C621.129 717.136 621.472 717.739 621.92 718.153C622.372 718.566 622.915 718.773 623.55 718.773Z" fill="#7596C7"/>
<path d="M642.585 698V684.909H650.486V686.315H644.17V690.739H650.077V692.145H644.17V696.594H650.588V698H642.585ZM654.647 684.909V698H653.138V684.909H654.647ZM661.526 698.205C660.58 698.205 659.764 697.996 659.078 697.578C658.396 697.156 657.87 696.568 657.499 695.814C657.133 695.055 656.95 694.173 656.95 693.168C656.95 692.162 657.133 691.276 657.499 690.509C657.87 689.737 658.386 689.136 659.046 688.706C659.711 688.271 660.487 688.054 661.373 688.054C661.884 688.054 662.389 688.139 662.888 688.31C663.387 688.48 663.84 688.757 664.249 689.141C664.659 689.52 664.985 690.023 665.227 690.649C665.47 691.276 665.592 692.047 665.592 692.963V693.602H658.024V692.298H664.058C664.058 691.744 663.947 691.25 663.725 690.815C663.508 690.381 663.197 690.038 662.792 689.786C662.392 689.535 661.919 689.409 661.373 689.409C660.772 689.409 660.252 689.558 659.813 689.857C659.379 690.151 659.044 690.534 658.81 691.007C658.575 691.48 658.458 691.987 658.458 692.528V693.398C658.458 694.139 658.586 694.768 658.842 695.283C659.102 695.795 659.462 696.185 659.922 696.453C660.382 696.717 660.917 696.849 661.526 696.849C661.923 696.849 662.281 696.794 662.6 696.683C662.924 696.568 663.203 696.398 663.438 696.172C663.672 695.942 663.853 695.656 663.981 695.315L665.438 695.724C665.285 696.219 665.027 696.653 664.665 697.028C664.303 697.399 663.855 697.689 663.323 697.898C662.79 698.102 662.191 698.205 661.526 698.205ZM675.616 688.182L671.985 698H670.451L666.821 688.182H668.457L671.167 696.006H671.27L673.98 688.182H675.616ZM680.198 698.23C679.575 698.23 679.011 698.113 678.504 697.879C677.997 697.64 677.594 697.297 677.296 696.849C676.997 696.398 676.848 695.852 676.848 695.213C676.848 694.651 676.959 694.195 677.181 693.845C677.402 693.491 677.698 693.214 678.069 693.014C678.44 692.814 678.849 692.665 679.296 692.567C679.748 692.464 680.202 692.384 680.658 692.324C681.254 692.247 681.738 692.19 682.109 692.151C682.484 692.109 682.757 692.038 682.927 691.94C683.102 691.842 683.189 691.672 683.189 691.429V691.378C683.189 690.747 683.017 690.257 682.671 689.908C682.33 689.558 681.813 689.384 681.118 689.384C680.398 689.384 679.833 689.541 679.424 689.857C679.015 690.172 678.727 690.509 678.561 690.866L677.129 690.355C677.385 689.759 677.726 689.294 678.152 688.962C678.583 688.625 679.051 688.391 679.558 688.259C680.07 688.122 680.573 688.054 681.067 688.054C681.382 688.054 681.744 688.092 682.154 688.169C682.567 688.241 682.965 688.393 683.349 688.623C683.737 688.853 684.058 689.2 684.314 689.665C684.57 690.129 684.698 690.751 684.698 691.531V698H683.189V696.67H683.112C683.01 696.884 682.84 697.112 682.601 697.354C682.362 697.597 682.045 697.804 681.649 697.974C681.252 698.145 680.769 698.23 680.198 698.23ZM680.428 696.875C681.024 696.875 681.527 696.758 681.936 696.523C682.35 696.289 682.661 695.987 682.869 695.616C683.083 695.245 683.189 694.855 683.189 694.446V693.065C683.125 693.142 682.985 693.212 682.767 693.276C682.554 693.336 682.307 693.389 682.026 693.436C681.749 693.479 681.478 693.517 681.214 693.551C680.954 693.581 680.743 693.607 680.581 693.628C680.189 693.679 679.823 693.762 679.482 693.877C679.145 693.988 678.872 694.156 678.664 694.382C678.459 694.604 678.357 694.906 678.357 695.29C678.357 695.814 678.551 696.21 678.938 696.479C679.33 696.743 679.827 696.875 680.428 696.875ZM691.721 688.182V689.46H686.633V688.182H691.721ZM688.116 685.83H689.624V695.188C689.624 695.614 689.686 695.933 689.81 696.146C689.938 696.355 690.099 696.496 690.295 696.568C690.496 696.636 690.707 696.67 690.928 696.67C691.094 696.67 691.231 696.662 691.337 696.645C691.444 696.624 691.529 696.607 691.593 696.594L691.9 697.949C691.798 697.987 691.655 698.026 691.472 698.064C691.288 698.107 691.056 698.128 690.775 698.128C690.349 698.128 689.931 698.036 689.522 697.853C689.117 697.67 688.781 697.391 688.512 697.016C688.248 696.641 688.116 696.168 688.116 695.597V685.83ZM693.99 698V688.182H695.499V698H693.99ZM694.757 686.545C694.463 686.545 694.21 686.445 693.996 686.245C693.788 686.045 693.683 685.804 693.683 685.523C693.683 685.241 693.788 685.001 693.996 684.8C694.21 684.6 694.463 684.5 694.757 684.5C695.051 684.5 695.303 684.6 695.511 684.8C695.724 685.001 695.831 685.241 695.831 685.523C695.831 685.804 695.724 686.045 695.511 686.245C695.303 686.445 695.051 686.545 694.757 686.545ZM702.25 698.205C701.364 698.205 700.586 697.994 699.917 697.572C699.252 697.15 698.732 696.56 698.357 695.801C697.987 695.043 697.801 694.156 697.801 693.142C697.801 692.119 697.987 691.227 698.357 690.464C698.732 689.701 699.252 689.109 699.917 688.687C700.586 688.265 701.364 688.054 702.25 688.054C703.137 688.054 703.912 688.265 704.577 688.687C705.246 689.109 705.766 689.701 706.137 690.464C706.512 691.227 706.699 692.119 706.699 693.142C706.699 694.156 706.512 695.043 706.137 695.801C705.766 696.56 705.246 697.15 704.577 697.572C703.912 697.994 703.137 698.205 702.25 698.205ZM702.25 696.849C702.923 696.849 703.477 696.677 703.912 696.332C704.347 695.987 704.669 695.533 704.877 694.97C705.086 694.408 705.191 693.798 705.191 693.142C705.191 692.486 705.086 691.874 704.877 691.308C704.669 690.741 704.347 690.283 703.912 689.933C703.477 689.584 702.923 689.409 702.25 689.409C701.577 689.409 701.023 689.584 700.588 689.933C700.154 690.283 699.832 690.741 699.623 691.308C699.414 691.874 699.31 692.486 699.31 693.142C699.31 693.798 699.414 694.408 699.623 694.97C699.832 695.533 700.154 695.987 700.588 696.332C701.023 696.677 701.577 696.849 702.25 696.849ZM710.51 692.094V698H709.002V688.182H710.459V689.716H710.587C710.817 689.217 711.167 688.817 711.635 688.514C712.104 688.207 712.709 688.054 713.451 688.054C714.115 688.054 714.697 688.19 715.196 688.463C715.694 688.732 716.082 689.141 716.359 689.69C716.636 690.236 716.775 690.926 716.775 691.761V698H715.266V691.864C715.266 691.092 715.066 690.491 714.665 690.061C714.265 689.626 713.715 689.409 713.016 689.409C712.534 689.409 712.104 689.513 711.725 689.722C711.35 689.931 711.054 690.236 710.836 690.636C710.619 691.037 710.51 691.523 710.51 692.094ZM649.335 712.381L647.98 712.764C647.895 712.538 647.769 712.319 647.603 712.106C647.441 711.888 647.219 711.71 646.938 711.569C646.657 711.428 646.297 711.358 645.858 711.358C645.257 711.358 644.756 711.496 644.356 711.773C643.96 712.046 643.761 712.393 643.761 712.815C643.761 713.19 643.898 713.487 644.17 713.704C644.443 713.921 644.869 714.102 645.449 714.247L646.906 714.605C647.784 714.818 648.438 715.144 648.869 715.583C649.299 716.018 649.514 716.578 649.514 717.264C649.514 717.827 649.352 718.33 649.028 718.773C648.709 719.216 648.261 719.565 647.686 719.821C647.111 720.077 646.442 720.205 645.679 720.205C644.678 720.205 643.849 719.987 643.192 719.553C642.536 719.118 642.121 718.483 641.946 717.648L643.378 717.29C643.514 717.818 643.772 718.214 644.151 718.479C644.535 718.743 645.036 718.875 645.653 718.875C646.357 718.875 646.915 718.726 647.328 718.428C647.746 718.125 647.955 717.763 647.955 717.341C647.955 717 647.835 716.714 647.597 716.484C647.358 716.25 646.991 716.075 646.497 715.96L644.861 715.577C643.962 715.364 643.301 715.033 642.879 714.586C642.462 714.134 642.253 713.57 642.253 712.892C642.253 712.338 642.408 711.848 642.719 711.422C643.035 710.996 643.463 710.661 644.004 710.418C644.55 710.175 645.168 710.054 645.858 710.054C646.83 710.054 647.592 710.267 648.146 710.693C648.705 711.119 649.101 711.682 649.335 712.381ZM655.774 720.205C654.853 720.205 654.061 719.987 653.396 719.553C652.731 719.118 652.22 718.519 651.862 717.756C651.504 716.994 651.325 716.122 651.325 715.142C651.325 714.145 651.508 713.265 651.874 712.502C652.245 711.735 652.761 711.136 653.421 710.706C654.086 710.271 654.862 710.054 655.748 710.054C656.438 710.054 657.061 710.182 657.615 710.438C658.169 710.693 658.622 711.051 658.976 711.511C659.33 711.972 659.549 712.509 659.634 713.122H658.126C658.011 712.675 657.755 712.278 657.359 711.933C656.967 711.584 656.438 711.409 655.774 711.409C655.186 711.409 654.67 711.562 654.227 711.869C653.788 712.172 653.445 712.6 653.198 713.154C652.955 713.704 652.833 714.349 652.833 715.091C652.833 715.849 652.953 716.51 653.191 717.072C653.434 717.635 653.775 718.072 654.214 718.383C654.657 718.694 655.177 718.849 655.774 718.849C656.166 718.849 656.521 718.781 656.841 718.645C657.161 718.509 657.431 718.312 657.653 718.057C657.874 717.801 658.032 717.494 658.126 717.136H659.634C659.549 717.716 659.338 718.238 659.002 718.702C658.669 719.163 658.228 719.529 657.678 719.802C657.133 720.07 656.498 720.205 655.774 720.205ZM664.729 720.23C664.107 720.23 663.542 720.113 663.035 719.879C662.528 719.64 662.125 719.297 661.827 718.849C661.529 718.398 661.379 717.852 661.379 717.213C661.379 716.651 661.49 716.195 661.712 715.845C661.933 715.491 662.23 715.214 662.6 715.014C662.971 714.814 663.38 714.665 663.828 714.567C664.279 714.464 664.733 714.384 665.189 714.324C665.786 714.247 666.269 714.19 666.64 714.151C667.015 714.109 667.288 714.038 667.458 713.94C667.633 713.842 667.72 713.672 667.72 713.429V713.378C667.72 712.747 667.548 712.257 667.203 711.908C666.862 711.558 666.344 711.384 665.649 711.384C664.929 711.384 664.365 711.541 663.955 711.857C663.546 712.172 663.259 712.509 663.093 712.866L661.661 712.355C661.916 711.759 662.257 711.294 662.683 710.962C663.114 710.625 663.583 710.391 664.09 710.259C664.601 710.122 665.104 710.054 665.598 710.054C665.914 710.054 666.276 710.092 666.685 710.169C667.098 710.241 667.497 710.393 667.88 710.623C668.268 710.853 668.59 711.2 668.845 711.665C669.101 712.129 669.229 712.751 669.229 713.531V720H667.72V718.67H667.644C667.541 718.884 667.371 719.112 667.132 719.354C666.894 719.597 666.576 719.804 666.18 719.974C665.784 720.145 665.3 720.23 664.729 720.23ZM664.959 718.875C665.556 718.875 666.058 718.758 666.468 718.523C666.881 718.289 667.192 717.987 667.401 717.616C667.614 717.245 667.72 716.855 667.72 716.446V715.065C667.656 715.142 667.516 715.212 667.298 715.276C667.085 715.336 666.838 715.389 666.557 715.436C666.28 715.479 666.009 715.517 665.745 715.551C665.485 715.581 665.274 715.607 665.112 715.628C664.72 715.679 664.354 715.762 664.013 715.877C663.676 715.988 663.404 716.156 663.195 716.382C662.99 716.604 662.888 716.906 662.888 717.29C662.888 717.814 663.082 718.21 663.47 718.479C663.862 718.743 664.358 718.875 664.959 718.875ZM673.491 706.909V720H671.982V706.909H673.491ZM680.37 720.205C679.424 720.205 678.608 719.996 677.922 719.578C677.24 719.156 676.714 718.568 676.343 717.814C675.977 717.055 675.794 716.173 675.794 715.168C675.794 714.162 675.977 713.276 676.343 712.509C676.714 711.737 677.23 711.136 677.89 710.706C678.555 710.271 679.33 710.054 680.217 710.054C680.728 710.054 681.233 710.139 681.732 710.31C682.23 710.48 682.684 710.757 683.093 711.141C683.502 711.52 683.828 712.023 684.071 712.649C684.314 713.276 684.436 714.047 684.436 714.963V715.602H676.867V714.298H682.901C682.901 713.744 682.791 713.25 682.569 712.815C682.352 712.381 682.041 712.038 681.636 711.786C681.235 711.535 680.762 711.409 680.217 711.409C679.616 711.409 679.096 711.558 678.657 711.857C678.222 712.151 677.888 712.534 677.654 713.007C677.419 713.48 677.302 713.987 677.302 714.528V715.398C677.302 716.139 677.43 716.768 677.686 717.283C677.945 717.795 678.306 718.185 678.766 718.453C679.226 718.717 679.761 718.849 680.37 718.849C680.767 718.849 681.124 718.794 681.444 718.683C681.768 718.568 682.047 718.398 682.281 718.172C682.516 717.942 682.697 717.656 682.825 717.315L684.282 717.724C684.129 718.219 683.871 718.653 683.509 719.028C683.146 719.399 682.699 719.689 682.166 719.898C681.634 720.102 681.035 720.205 680.37 720.205ZM696.369 706.909V720H694.784V708.571H694.708L691.512 710.693V709.082L694.784 706.909H696.369ZM704.788 706.295L700.569 721.969H699.188L703.407 706.295H704.788ZM706.55 720V718.849L710.871 714.119C711.379 713.565 711.796 713.084 712.124 712.675C712.452 712.261 712.695 711.874 712.853 711.511C713.015 711.145 713.096 710.761 713.096 710.361C713.096 709.901 712.985 709.502 712.763 709.165C712.546 708.829 712.248 708.569 711.869 708.386C711.489 708.202 711.063 708.111 710.59 708.111C710.087 708.111 709.648 708.215 709.273 708.424C708.903 708.629 708.615 708.916 708.411 709.287C708.21 709.658 708.11 710.092 708.11 710.591H706.602C706.602 709.824 706.778 709.151 707.132 708.571C707.486 707.991 707.967 707.54 708.577 707.216C709.19 706.892 709.879 706.73 710.641 706.73C711.408 706.73 712.088 706.892 712.68 707.216C713.273 707.54 713.737 707.977 714.074 708.526C714.411 709.076 714.579 709.688 714.579 710.361C714.579 710.842 714.491 711.313 714.317 711.773C714.146 712.229 713.848 712.739 713.422 713.301C713 713.859 712.414 714.541 711.664 715.347L708.724 718.491V718.594H714.809V720H706.55ZM718.804 706.909V708.06C718.804 708.409 718.74 708.782 718.612 709.178C718.489 709.57 718.305 709.952 718.062 710.322C717.824 710.689 717.534 711.009 717.193 711.281L716.375 710.616C716.643 710.233 716.876 709.835 717.072 709.421C717.272 709.004 717.372 708.558 717.372 708.085V706.909H718.804ZM722.077 706.909V708.06C722.077 708.409 722.013 708.782 721.885 709.178C721.761 709.57 721.578 709.952 721.335 710.322C721.097 710.689 720.807 711.009 720.466 711.281L719.648 710.616C719.916 710.233 720.148 709.835 720.344 709.421C720.545 709.004 720.645 708.558 720.645 708.085V706.909H722.077ZM730.006 712.253V710.872H737.881V712.253H730.006ZM730.006 716.037V714.656H737.881V716.037H730.006ZM750.897 706.909V720H749.312V708.571H749.235L746.039 710.693V709.082L749.312 706.909H750.897ZM756.017 706.909V708.06C756.017 708.409 755.953 708.782 755.825 709.178C755.702 709.57 755.518 709.952 755.275 710.322C755.037 710.689 754.747 711.009 754.406 711.281L753.588 710.616C753.856 710.233 754.089 709.835 754.285 709.421C754.485 709.004 754.585 708.558 754.585 708.085V706.909H756.017ZM762.51 712.751V714.158H756.782V712.751H762.51ZM769.408 720.179C768.445 720.179 767.625 719.917 766.947 719.393C766.27 718.864 765.752 718.099 765.394 717.098C765.036 716.092 764.857 714.878 764.857 713.455C764.857 712.04 765.036 710.832 765.394 709.83C765.756 708.825 766.276 708.058 766.954 707.529C767.635 706.996 768.454 706.73 769.408 706.73C770.363 706.73 771.179 706.996 771.856 707.529C772.538 708.058 773.058 708.825 773.416 709.83C773.778 710.832 773.959 712.04 773.959 713.455C773.959 714.878 773.78 716.092 773.422 717.098C773.064 718.099 772.547 718.864 771.869 719.393C771.192 719.917 770.371 720.179 769.408 720.179ZM769.408 718.773C770.363 718.773 771.104 718.312 771.633 717.392C772.161 716.472 772.425 715.159 772.425 713.455C772.425 712.321 772.304 711.356 772.061 710.559C771.822 709.762 771.477 709.155 771.025 708.737C770.578 708.32 770.039 708.111 769.408 708.111C768.462 708.111 767.723 708.577 767.19 709.511C766.657 710.44 766.391 711.754 766.391 713.455C766.391 714.588 766.51 715.551 766.749 716.344C766.988 717.136 767.331 717.739 767.778 718.153C768.23 718.566 768.773 718.773 769.408 718.773ZM777.743 706.909V708.06C777.743 708.409 777.68 708.782 777.552 709.178C777.428 709.57 777.245 709.952 777.002 710.322C776.763 710.689 776.474 711.009 776.133 711.281L775.314 710.616C775.583 710.233 775.815 709.835 776.011 709.421C776.211 709.004 776.312 708.558 776.312 708.085V706.909H777.743ZM781.016 706.909V708.06C781.016 708.409 780.952 708.782 780.824 709.178C780.701 709.57 780.518 709.952 780.275 710.322C780.036 710.689 779.746 711.009 779.405 711.281L778.587 710.616C778.856 710.233 779.088 709.835 779.284 709.421C779.484 709.004 779.584 708.558 779.584 708.085V706.909H781.016Z" fill="#7596C7"/>
<line x1="575" y1="702.5" x2="825" y2="702.5" stroke="#7596C7"/>
<rect x="86" y="79" width="1228" height="672" stroke="#7596C7" stroke-width="2"/>
<rect x="105.5" y="102.5" width="1189" height="564" fill="#E0EAF9" stroke="#7596C7"/>
<line y1="-0.5" x2="1317.32" y2="-0.5" transform="matrix(-0.903351 0.428902 -0.969838 -0.243749 1295 102)" stroke="#7596C7"/>
<line y1="-0.5" x2="1317.32" y2="-0.5" transform="matrix(0.903351 0.428902 -0.969838 0.243749 105 102)" stroke="#7596C7"/>
</svg>
