<svg width="1400" height="905" viewBox="0 0 1400 905" fill="none" xmlns="http://www.w3.org/2000/svg">
<rect width="1400" height="905" fill="white"/>
<rect x="105.5" y="90.5" width="394" height="579" fill="#E0EAF9" stroke="#7596C7"/>
<rect x="520.5" y="90.5" width="394" height="579" fill="#E0EAF9" stroke="#7596C7"/>
<rect x="935.5" y="90.5" width="359" height="579" fill="#E0EAF9" stroke="#7596C7"/>
<path d="M585.223 817.358C583.535 817.358 582.031 817.068 580.71 816.489C579.398 815.909 578.354 815.104 577.578 814.072C576.811 813.033 576.393 811.827 576.325 810.455H579.547C579.615 811.298 579.905 812.027 580.416 812.641C580.927 813.246 581.596 813.714 582.423 814.047C583.25 814.379 584.166 814.545 585.172 814.545C586.297 814.545 587.294 814.349 588.163 813.957C589.032 813.565 589.714 813.02 590.209 812.321C590.703 811.622 590.95 810.812 590.95 809.892C590.95 808.929 590.711 808.081 590.234 807.348C589.757 806.607 589.058 806.027 588.138 805.609C587.217 805.192 586.092 804.983 584.763 804.983H582.666V802.17H584.763C585.802 802.17 586.714 801.983 587.498 801.608C588.291 801.233 588.909 800.705 589.352 800.023C589.804 799.341 590.03 798.54 590.03 797.619C590.03 796.733 589.834 795.962 589.442 795.305C589.05 794.649 588.496 794.138 587.78 793.771C587.072 793.405 586.237 793.222 585.274 793.222C584.371 793.222 583.518 793.388 582.717 793.72C581.925 794.044 581.277 794.517 580.774 795.139C580.271 795.753 579.998 796.494 579.956 797.364H576.888C576.939 795.991 577.352 794.79 578.128 793.759C578.903 792.719 579.917 791.909 581.17 791.33C582.432 790.75 583.817 790.46 585.325 790.46C586.944 790.46 588.334 790.788 589.493 791.445C590.652 792.092 591.542 792.949 592.165 794.014C592.787 795.08 593.098 796.23 593.098 797.466C593.098 798.94 592.71 800.197 591.934 801.237C591.167 802.277 590.123 802.997 588.802 803.398V803.602C590.456 803.875 591.747 804.578 592.676 805.712C593.605 806.837 594.069 808.23 594.069 809.892C594.069 811.315 593.682 812.594 592.906 813.727C592.139 814.852 591.091 815.739 589.761 816.386C588.432 817.034 586.919 817.358 585.223 817.358ZM600.74 817.205C600.109 817.205 599.568 816.979 599.116 816.527C598.664 816.075 598.438 815.534 598.438 814.903C598.438 814.273 598.664 813.732 599.116 813.28C599.568 812.828 600.109 812.602 600.74 812.602C601.37 812.602 601.911 812.828 602.363 813.28C602.815 813.732 603.041 814.273 603.041 814.903C603.041 815.321 602.934 815.705 602.721 816.054C602.517 816.403 602.24 816.685 601.89 816.898C601.549 817.102 601.166 817.205 600.74 817.205ZM616.029 817.358C614.103 817.358 612.463 816.834 611.107 815.786C609.752 814.729 608.717 813.199 608.001 811.196C607.285 809.185 606.927 806.756 606.927 803.909C606.927 801.08 607.285 798.663 608.001 796.661C608.725 794.649 609.765 793.115 611.12 792.058C612.484 790.993 614.12 790.46 616.029 790.46C617.938 790.46 619.57 790.993 620.926 792.058C622.289 793.115 623.329 794.649 624.045 796.661C624.769 798.663 625.132 801.08 625.132 803.909C625.132 806.756 624.774 809.185 624.058 811.196C623.342 813.199 622.306 814.729 620.951 815.786C619.596 816.834 617.955 817.358 616.029 817.358ZM616.029 814.545C617.938 814.545 619.421 813.625 620.478 811.784C621.535 809.943 622.063 807.318 622.063 803.909C622.063 801.642 621.82 799.712 621.335 798.118C620.857 796.524 620.167 795.31 619.264 794.474C618.369 793.639 617.291 793.222 616.029 793.222C614.137 793.222 612.659 794.155 611.593 796.021C610.528 797.879 609.995 800.509 609.995 803.909C609.995 806.176 610.234 808.102 610.711 809.688C611.188 811.273 611.874 812.479 612.769 813.305C613.673 814.132 614.759 814.545 616.029 814.545ZM640.575 790.818H644.359L653.257 812.551H653.563L662.461 790.818H666.245V817H663.279V797.108H663.024L654.842 817H651.978L643.796 797.108H643.541V817H640.575V790.818ZM675.773 790.818V817H672.602V790.818H675.773ZM682.129 817V790.818H685.3V814.188H697.47V817H682.129ZM702.379 817V790.818H705.55V814.188H717.72V817H702.379ZM727.385 817L720.226 790.818H723.448L728.919 812.142H729.175L734.749 790.818H738.328L743.902 812.142H744.158L749.629 790.818H752.851L745.692 817H742.419L736.641 796.136H736.436L730.658 817H727.385ZM777.662 803.909C777.662 806.67 777.163 809.057 776.166 811.068C775.169 813.08 773.801 814.631 772.062 815.722C770.324 816.812 768.338 817.358 766.105 817.358C763.872 817.358 761.886 816.812 760.148 815.722C758.409 814.631 757.041 813.08 756.044 811.068C755.047 809.057 754.548 806.67 754.548 803.909C754.548 801.148 755.047 798.761 756.044 796.75C757.041 794.739 758.409 793.188 760.148 792.097C761.886 791.006 763.872 790.46 766.105 790.46C768.338 790.46 770.324 791.006 772.062 792.097C773.801 793.188 775.169 794.739 776.166 796.75C777.163 798.761 777.662 801.148 777.662 803.909ZM774.594 803.909C774.594 801.642 774.214 799.729 773.456 798.169C772.706 796.609 771.687 795.429 770.4 794.628C769.122 793.827 767.69 793.426 766.105 793.426C764.52 793.426 763.084 793.827 761.797 794.628C760.518 795.429 759.5 796.609 758.741 798.169C757.991 799.729 757.616 801.642 757.616 803.909C757.616 806.176 757.991 808.089 758.741 809.649C759.5 811.209 760.518 812.389 761.797 813.19C763.084 813.991 764.52 814.392 766.105 814.392C767.69 814.392 769.122 813.991 770.4 813.19C771.687 812.389 772.706 811.209 773.456 809.649C774.214 808.089 774.594 806.176 774.594 803.909ZM782.993 817V790.818H791.839C793.885 790.818 795.564 791.168 796.876 791.866C798.189 792.557 799.16 793.507 799.791 794.717C800.422 795.928 800.737 797.304 800.737 798.847C800.737 800.389 800.422 801.757 799.791 802.95C799.16 804.143 798.193 805.081 796.889 805.763C795.585 806.436 793.919 806.773 791.89 806.773H784.731V803.909H791.788C793.186 803.909 794.311 803.705 795.163 803.295C796.024 802.886 796.646 802.307 797.03 801.557C797.422 800.798 797.618 799.895 797.618 798.847C797.618 797.798 797.422 796.882 797.03 796.098C796.638 795.314 796.011 794.709 795.15 794.283C794.29 793.848 793.152 793.631 791.737 793.631H786.163V817H782.993ZM795.317 805.239L801.76 817H798.078L791.737 805.239H795.317ZM806.02 817V790.818H809.191V803.807H809.497L821.259 790.818H825.401L814.406 802.631L825.401 817H821.566L812.463 804.83L809.191 808.511V817H806.02Z" fill="#7596C7"/>
<circle cx="207.5" cy="707.5" r="30" fill="white" stroke="#7596C7"/>
<path d="M210.774 688.909V702H209.189V690.571H209.112L205.916 692.693V691.082L209.189 688.909H210.774ZM189.917 710.909V724H188.331V710.909H189.917ZM197.135 724H193.095V710.909H197.314C198.584 710.909 199.67 711.171 200.574 711.695C201.477 712.215 202.17 712.963 202.651 713.939C203.133 714.911 203.373 716.074 203.373 717.429C203.373 718.793 203.131 719.967 202.645 720.951C202.159 721.931 201.452 722.685 200.523 723.214C199.594 723.738 198.464 724 197.135 724ZM194.68 722.594H197.032C198.115 722.594 199.012 722.385 199.724 721.967C200.435 721.55 200.966 720.955 201.315 720.184C201.665 719.413 201.839 718.494 201.839 717.429C201.839 716.372 201.667 715.462 201.322 714.7C200.976 713.933 200.461 713.344 199.775 712.935C199.089 712.522 198.234 712.315 197.211 712.315H194.68V722.594ZM210.226 724.179C209.382 724.179 208.63 724.034 207.969 723.744C207.313 723.455 206.791 723.052 206.403 722.536C206.02 722.016 205.811 721.413 205.777 720.727H207.388C207.422 721.149 207.567 721.513 207.822 721.82C208.078 722.123 208.412 722.357 208.826 722.523C209.239 722.69 209.697 722.773 210.2 722.773C210.763 722.773 211.261 722.675 211.696 722.479C212.131 722.283 212.471 722.01 212.719 721.661C212.966 721.311 213.089 720.906 213.089 720.446C213.089 719.964 212.97 719.54 212.731 719.174C212.493 718.803 212.143 718.513 211.683 718.305C211.223 718.096 210.66 717.991 209.996 717.991H208.947V716.585H209.996C210.515 716.585 210.971 716.491 211.363 716.304C211.76 716.116 212.069 715.852 212.29 715.511C212.516 715.17 212.629 714.77 212.629 714.31C212.629 713.866 212.531 713.481 212.335 713.153C212.139 712.825 211.862 712.569 211.504 712.386C211.15 712.202 210.733 712.111 210.251 712.111C209.8 712.111 209.373 712.194 208.973 712.36C208.577 712.522 208.253 712.759 208.001 713.07C207.75 713.376 207.613 713.747 207.592 714.182H206.058C206.084 713.496 206.29 712.895 206.678 712.379C207.066 711.859 207.573 711.455 208.199 711.165C208.83 710.875 209.523 710.73 210.277 710.73C211.086 710.73 211.781 710.894 212.361 711.222C212.94 711.546 213.385 711.974 213.697 712.507C214.008 713.04 214.163 713.615 214.163 714.233C214.163 714.97 213.969 715.599 213.581 716.119C213.198 716.638 212.676 716.999 212.015 717.199V717.301C212.842 717.437 213.488 717.789 213.952 718.356C214.417 718.918 214.649 719.615 214.649 720.446C214.649 721.158 214.455 721.797 214.067 722.364C213.684 722.926 213.16 723.369 212.495 723.693C211.83 724.017 211.074 724.179 210.226 724.179ZM217.984 724.102C217.669 724.102 217.398 723.989 217.172 723.763C216.946 723.538 216.833 723.267 216.833 722.952C216.833 722.636 216.946 722.366 217.172 722.14C217.398 721.914 217.669 721.801 217.984 721.801C218.299 721.801 218.57 721.914 218.796 722.14C219.022 722.366 219.135 722.636 219.135 722.952C219.135 723.161 219.081 723.352 218.975 723.527C218.873 723.702 218.734 723.842 218.559 723.949C218.389 724.051 218.197 724.102 217.984 724.102ZM225.629 724.179C224.666 724.179 223.846 723.917 223.168 723.393C222.49 722.864 221.973 722.099 221.615 721.098C221.257 720.092 221.078 718.878 221.078 717.455C221.078 716.04 221.257 714.832 221.615 713.83C221.977 712.825 222.497 712.058 223.174 711.529C223.856 710.996 224.674 710.73 225.629 710.73C226.583 710.73 227.4 710.996 228.077 711.529C228.759 712.058 229.279 712.825 229.637 713.83C229.999 714.832 230.18 716.04 230.18 717.455C230.18 718.878 230.001 720.092 229.643 721.098C229.285 722.099 228.767 722.864 228.09 723.393C227.412 723.917 226.592 724.179 225.629 724.179ZM225.629 722.773C226.583 722.773 227.325 722.312 227.853 721.392C228.382 720.472 228.646 719.159 228.646 717.455C228.646 716.321 228.525 715.356 228.282 714.559C228.043 713.762 227.698 713.155 227.246 712.737C226.799 712.32 226.26 712.111 225.629 712.111C224.683 712.111 223.944 712.577 223.411 713.511C222.878 714.44 222.612 715.754 222.612 717.455C222.612 718.588 222.731 719.551 222.97 720.344C223.208 721.136 223.551 721.739 223.999 722.153C224.451 722.566 224.994 722.773 225.629 722.773Z" fill="#7596C7"/>
<path d="M244.585 688.909H246.477L250.926 699.776H251.08L255.528 688.909H257.42V702H255.938V692.054H255.81L251.719 702H250.287L246.196 692.054H246.068V702H244.585V688.909ZM260.394 702V692.182H261.903V702H260.394ZM261.161 690.545C260.867 690.545 260.614 690.445 260.401 690.245C260.192 690.045 260.088 689.804 260.088 689.523C260.088 689.241 260.192 689.001 260.401 688.8C260.614 688.6 260.867 688.5 261.161 688.5C261.455 688.5 261.707 688.6 261.916 688.8C262.129 689.001 262.235 689.241 262.235 689.523C262.235 689.804 262.129 690.045 261.916 690.245C261.707 690.445 261.455 690.545 261.161 690.545ZM266.174 688.909V702H264.666V688.909H266.174ZM270.446 688.909V702H268.937V688.909H270.446ZM275.433 702L272.442 692.182H274.027L276.149 699.699H276.251L278.348 692.182H279.959L282.03 699.673H282.132L284.254 692.182H285.839L282.848 702H281.365L279.217 694.457H279.064L276.916 702H275.433ZM291.488 702.205C290.602 702.205 289.824 701.994 289.155 701.572C288.491 701.15 287.971 700.56 287.596 699.801C287.225 699.043 287.04 698.156 287.04 697.142C287.04 696.119 287.225 695.227 287.596 694.464C287.971 693.701 288.491 693.109 289.155 692.687C289.824 692.265 290.602 692.054 291.488 692.054C292.375 692.054 293.15 692.265 293.815 692.687C294.484 693.109 295.004 693.701 295.375 694.464C295.75 695.227 295.937 696.119 295.937 697.142C295.937 698.156 295.75 699.043 295.375 699.801C295.004 700.56 294.484 701.15 293.815 701.572C293.15 701.994 292.375 702.205 291.488 702.205ZM291.488 700.849C292.162 700.849 292.716 700.677 293.15 700.332C293.585 699.987 293.907 699.533 294.116 698.97C294.324 698.408 294.429 697.798 294.429 697.142C294.429 696.486 294.324 695.874 294.116 695.308C293.907 694.741 293.585 694.283 293.15 693.933C292.716 693.584 292.162 693.409 291.488 693.409C290.815 693.409 290.261 693.584 289.827 693.933C289.392 694.283 289.07 694.741 288.861 695.308C288.653 695.874 288.548 696.486 288.548 697.142C288.548 697.798 288.653 698.408 288.861 698.97C289.07 699.533 289.392 699.987 289.827 700.332C290.261 700.677 290.815 700.849 291.488 700.849ZM298.24 702V692.182H299.697V693.665H299.8C299.979 693.179 300.303 692.785 300.771 692.482C301.24 692.18 301.768 692.028 302.357 692.028C302.467 692.028 302.606 692.031 302.772 692.035C302.938 692.039 303.064 692.045 303.149 692.054V693.588C303.098 693.575 302.981 693.556 302.798 693.531C302.619 693.501 302.429 693.486 302.229 693.486C301.751 693.486 301.325 693.586 300.95 693.786C300.58 693.982 300.286 694.255 300.068 694.604C299.855 694.95 299.749 695.344 299.749 695.787V702H298.24ZM306.344 698.42L306.318 696.554H306.625L310.92 692.182H312.787L308.21 696.81H308.082L306.344 698.42ZM304.937 702V688.909H306.446V702H304.937ZM311.176 702L307.341 697.142L308.415 696.094L313.094 702H311.176ZM251.335 716.381L249.98 716.764C249.895 716.538 249.769 716.319 249.603 716.106C249.441 715.888 249.219 715.71 248.938 715.569C248.657 715.428 248.297 715.358 247.858 715.358C247.257 715.358 246.756 715.496 246.356 715.773C245.96 716.046 245.761 716.393 245.761 716.815C245.761 717.19 245.898 717.487 246.17 717.704C246.443 717.921 246.869 718.102 247.449 718.247L248.906 718.605C249.784 718.818 250.438 719.144 250.869 719.583C251.299 720.018 251.514 720.578 251.514 721.264C251.514 721.827 251.352 722.33 251.028 722.773C250.709 723.216 250.261 723.565 249.686 723.821C249.111 724.077 248.442 724.205 247.679 724.205C246.678 724.205 245.849 723.987 245.192 723.553C244.536 723.118 244.121 722.483 243.946 721.648L245.378 721.29C245.514 721.818 245.772 722.214 246.151 722.479C246.535 722.743 247.036 722.875 247.653 722.875C248.357 722.875 248.915 722.726 249.328 722.428C249.746 722.125 249.955 721.763 249.955 721.341C249.955 721 249.835 720.714 249.597 720.484C249.358 720.25 248.991 720.075 248.497 719.96L246.861 719.577C245.962 719.364 245.301 719.033 244.879 718.586C244.462 718.134 244.253 717.57 244.253 716.892C244.253 716.338 244.408 715.848 244.719 715.422C245.035 714.996 245.463 714.661 246.004 714.418C246.55 714.175 247.168 714.054 247.858 714.054C248.83 714.054 249.592 714.267 250.146 714.693C250.705 715.119 251.101 715.682 251.335 716.381ZM257.774 724.205C256.853 724.205 256.061 723.987 255.396 723.553C254.731 723.118 254.22 722.519 253.862 721.756C253.504 720.994 253.325 720.122 253.325 719.142C253.325 718.145 253.508 717.265 253.874 716.502C254.245 715.735 254.761 715.136 255.421 714.706C256.086 714.271 256.862 714.054 257.748 714.054C258.438 714.054 259.061 714.182 259.615 714.438C260.169 714.693 260.622 715.051 260.976 715.511C261.33 715.972 261.549 716.509 261.634 717.122H260.126C260.011 716.675 259.755 716.278 259.359 715.933C258.967 715.584 258.438 715.409 257.774 715.409C257.186 715.409 256.67 715.562 256.227 715.869C255.788 716.172 255.445 716.6 255.198 717.154C254.955 717.704 254.833 718.349 254.833 719.091C254.833 719.849 254.953 720.51 255.191 721.072C255.434 721.635 255.775 722.072 256.214 722.383C256.657 722.694 257.177 722.849 257.774 722.849C258.166 722.849 258.521 722.781 258.841 722.645C259.161 722.509 259.431 722.312 259.653 722.057C259.874 721.801 260.032 721.494 260.126 721.136H261.634C261.549 721.716 261.338 722.238 261.002 722.702C260.669 723.163 260.228 723.529 259.678 723.802C259.133 724.07 258.498 724.205 257.774 724.205ZM266.729 724.23C266.107 724.23 265.542 724.113 265.035 723.879C264.528 723.64 264.125 723.297 263.827 722.849C263.529 722.398 263.379 721.852 263.379 721.213C263.379 720.651 263.49 720.195 263.712 719.845C263.933 719.491 264.23 719.214 264.6 719.014C264.971 718.814 265.38 718.665 265.828 718.567C266.279 718.464 266.733 718.384 267.189 718.324C267.786 718.247 268.269 718.19 268.64 718.151C269.015 718.109 269.288 718.038 269.458 717.94C269.633 717.842 269.72 717.672 269.72 717.429V717.378C269.72 716.747 269.548 716.257 269.203 715.908C268.862 715.558 268.344 715.384 267.649 715.384C266.929 715.384 266.365 715.541 265.955 715.857C265.546 716.172 265.259 716.509 265.093 716.866L263.661 716.355C263.916 715.759 264.257 715.294 264.683 714.962C265.114 714.625 265.583 714.391 266.09 714.259C266.601 714.122 267.104 714.054 267.598 714.054C267.914 714.054 268.276 714.092 268.685 714.169C269.098 714.241 269.497 714.393 269.88 714.623C270.268 714.853 270.59 715.2 270.845 715.665C271.101 716.129 271.229 716.751 271.229 717.531V724H269.72V722.67H269.644C269.541 722.884 269.371 723.112 269.132 723.354C268.894 723.597 268.576 723.804 268.18 723.974C267.784 724.145 267.3 724.23 266.729 724.23ZM266.959 722.875C267.556 722.875 268.058 722.758 268.468 722.523C268.881 722.289 269.192 721.987 269.401 721.616C269.614 721.245 269.72 720.855 269.72 720.446V719.065C269.656 719.142 269.516 719.212 269.298 719.276C269.085 719.336 268.838 719.389 268.557 719.436C268.28 719.479 268.009 719.517 267.745 719.551C267.485 719.581 267.274 719.607 267.112 719.628C266.72 719.679 266.354 719.762 266.013 719.877C265.676 719.988 265.404 720.156 265.195 720.382C264.99 720.604 264.888 720.906 264.888 721.29C264.888 721.814 265.082 722.21 265.47 722.479C265.862 722.743 266.358 722.875 266.959 722.875ZM275.491 710.909V724H273.982V710.909H275.491ZM282.37 724.205C281.424 724.205 280.608 723.996 279.922 723.578C279.24 723.156 278.714 722.568 278.343 721.814C277.977 721.055 277.794 720.173 277.794 719.168C277.794 718.162 277.977 717.276 278.343 716.509C278.714 715.737 279.23 715.136 279.89 714.706C280.555 714.271 281.33 714.054 282.217 714.054C282.728 714.054 283.233 714.139 283.732 714.31C284.23 714.48 284.684 714.757 285.093 715.141C285.502 715.52 285.828 716.023 286.071 716.649C286.314 717.276 286.436 718.047 286.436 718.963V719.602H278.867V718.298H284.901C284.901 717.744 284.791 717.25 284.569 716.815C284.352 716.381 284.041 716.038 283.636 715.786C283.235 715.535 282.762 715.409 282.217 715.409C281.616 715.409 281.096 715.558 280.657 715.857C280.222 716.151 279.888 716.534 279.654 717.007C279.419 717.48 279.302 717.987 279.302 718.528V719.398C279.302 720.139 279.43 720.768 279.686 721.283C279.945 721.795 280.306 722.185 280.766 722.453C281.226 722.717 281.761 722.849 282.37 722.849C282.767 722.849 283.124 722.794 283.444 722.683C283.768 722.568 284.047 722.398 284.281 722.172C284.516 721.942 284.697 721.656 284.825 721.315L286.282 721.724C286.129 722.219 285.871 722.653 285.509 723.028C285.146 723.399 284.699 723.689 284.166 723.898C283.634 724.102 283.035 724.205 282.37 724.205ZM298.369 710.909V724H296.784V712.571H296.708L293.512 714.693V713.082L296.784 710.909H298.369ZM303.49 710.909V712.06C303.49 712.409 303.426 712.782 303.298 713.178C303.174 713.57 302.991 713.952 302.748 714.322C302.509 714.689 302.22 715.009 301.879 715.281L301.061 714.616C301.329 714.233 301.561 713.835 301.757 713.421C301.958 713.004 302.058 712.558 302.058 712.085V710.909H303.49ZM306.762 710.909V712.06C306.762 712.409 306.698 712.782 306.57 713.178C306.447 713.57 306.264 713.952 306.021 714.322C305.782 714.689 305.492 715.009 305.151 715.281L304.333 714.616C304.602 714.233 304.834 713.835 305.03 713.421C305.23 713.004 305.33 712.558 305.33 712.085V710.909H306.762ZM314.692 716.253V714.872H322.567V716.253H314.692ZM314.692 720.037V718.656H322.567V720.037H314.692ZM335.582 710.909V724H333.997V712.571H333.92L330.724 714.693V713.082L333.997 710.909H335.582ZM340.702 710.909V712.06C340.702 712.409 340.638 712.782 340.511 713.178C340.387 713.57 340.204 713.952 339.961 714.322C339.722 714.689 339.433 715.009 339.092 715.281L338.273 714.616C338.542 714.233 338.774 713.835 338.97 713.421C339.17 713.004 339.271 712.558 339.271 712.085V710.909H340.702ZM347.195 716.751V718.158H341.468V716.751H347.195ZM354.094 724.179C353.131 724.179 352.31 723.917 351.633 723.393C350.955 722.864 350.438 722.099 350.08 721.098C349.722 720.092 349.543 718.878 349.543 717.455C349.543 716.04 349.722 714.832 350.08 713.83C350.442 712.825 350.962 712.058 351.639 711.529C352.321 710.996 353.139 710.73 354.094 710.73C355.048 710.73 355.864 710.996 356.542 711.529C357.224 712.058 357.744 712.825 358.102 713.83C358.464 714.832 358.645 716.04 358.645 717.455C358.645 718.878 358.466 720.092 358.108 721.098C357.75 722.099 357.232 722.864 356.555 723.393C355.877 723.917 355.057 724.179 354.094 724.179ZM354.094 722.773C355.048 722.773 355.79 722.312 356.318 721.392C356.847 720.472 357.111 719.159 357.111 717.455C357.111 716.321 356.989 715.356 356.746 714.559C356.508 713.762 356.163 713.155 355.711 712.737C355.263 712.32 354.724 712.111 354.094 712.111C353.148 712.111 352.408 712.577 351.876 713.511C351.343 714.44 351.077 715.754 351.077 717.455C351.077 718.588 351.196 719.551 351.435 720.344C351.673 721.136 352.016 721.739 352.464 722.153C352.915 722.566 353.459 722.773 354.094 722.773ZM362.429 710.909V712.06C362.429 712.409 362.365 712.782 362.237 713.178C362.114 713.57 361.93 713.952 361.688 714.322C361.449 714.689 361.159 715.009 360.818 715.281L360 714.616C360.268 714.233 360.501 713.835 360.697 713.421C360.897 713.004 360.997 712.558 360.997 712.085V710.909H362.429ZM365.702 710.909V712.06C365.702 712.409 365.638 712.782 365.51 713.178C365.386 713.57 365.203 713.952 364.96 714.322C364.722 714.689 364.432 715.009 364.091 715.281L363.273 714.616C363.541 714.233 363.773 713.835 363.969 713.421C364.17 713.004 364.27 712.558 364.27 712.085V710.909H365.702Z" fill="#7596C7"/>
<line x1="177" y1="706.5" x2="427" y2="706.5" stroke="#7596C7"/>
<circle cx="623.5" cy="707.5" r="30" fill="white" stroke="#7596C7"/>
<path d="M620.906 702V700.849L625.227 696.119C625.734 695.565 626.152 695.084 626.48 694.675C626.808 694.261 627.051 693.874 627.208 693.511C627.37 693.145 627.451 692.761 627.451 692.361C627.451 691.901 627.341 691.502 627.119 691.165C626.902 690.829 626.603 690.569 626.224 690.386C625.845 690.202 625.419 690.111 624.946 690.111C624.443 690.111 624.004 690.215 623.629 690.424C623.258 690.629 622.971 690.916 622.766 691.287C622.566 691.658 622.466 692.092 622.466 692.591H620.957C620.957 691.824 621.134 691.151 621.488 690.571C621.841 689.991 622.323 689.54 622.932 689.216C623.546 688.892 624.234 688.73 624.997 688.73C625.764 688.73 626.444 688.892 627.036 689.216C627.628 689.54 628.093 689.977 628.429 690.526C628.766 691.076 628.934 691.688 628.934 692.361C628.934 692.842 628.847 693.313 628.672 693.773C628.502 694.229 628.203 694.739 627.777 695.301C627.355 695.859 626.77 696.541 626.02 697.347L623.079 700.491V700.594H629.164V702H620.906ZM605.917 710.909V724H604.331V710.909H605.917ZM613.135 724H609.095V710.909H613.314C614.584 710.909 615.67 711.171 616.574 711.695C617.477 712.215 618.17 712.963 618.651 713.939C619.133 714.911 619.373 716.074 619.373 717.429C619.373 718.793 619.131 719.967 618.645 720.951C618.159 721.931 617.452 722.685 616.523 723.214C615.594 723.738 614.464 724 613.135 724ZM610.68 722.594H613.032C614.115 722.594 615.012 722.385 615.724 721.967C616.435 721.55 616.966 720.955 617.315 720.184C617.665 719.413 617.839 718.494 617.839 717.429C617.839 716.372 617.667 715.462 617.322 714.7C616.976 713.933 616.461 713.344 615.775 712.935C615.089 712.522 614.234 712.315 613.211 712.315H610.68V722.594ZM626.226 724.179C625.382 724.179 624.63 724.034 623.969 723.744C623.313 723.455 622.791 723.052 622.403 722.536C622.02 722.016 621.811 721.413 621.777 720.727H623.388C623.422 721.149 623.567 721.513 623.822 721.82C624.078 722.123 624.412 722.357 624.826 722.523C625.239 722.69 625.697 722.773 626.2 722.773C626.763 722.773 627.261 722.675 627.696 722.479C628.131 722.283 628.471 722.01 628.719 721.661C628.966 721.311 629.089 720.906 629.089 720.446C629.089 719.964 628.97 719.54 628.731 719.174C628.493 718.803 628.143 718.513 627.683 718.305C627.223 718.096 626.66 717.991 625.996 717.991H624.947V716.585H625.996C626.515 716.585 626.971 716.491 627.363 716.304C627.76 716.116 628.069 715.852 628.29 715.511C628.516 715.17 628.629 714.77 628.629 714.31C628.629 713.866 628.531 713.481 628.335 713.153C628.139 712.825 627.862 712.569 627.504 712.386C627.15 712.202 626.733 712.111 626.251 712.111C625.8 712.111 625.373 712.194 624.973 712.36C624.577 712.522 624.253 712.759 624.001 713.07C623.75 713.376 623.613 713.747 623.592 714.182H622.058C622.084 713.496 622.29 712.895 622.678 712.379C623.066 711.859 623.573 711.455 624.199 711.165C624.83 710.875 625.523 710.73 626.277 710.73C627.086 710.73 627.781 710.894 628.361 711.222C628.94 711.546 629.385 711.974 629.697 712.507C630.008 713.04 630.163 713.615 630.163 714.233C630.163 714.97 629.969 715.599 629.581 716.119C629.198 716.638 628.676 716.999 628.015 717.199V717.301C628.842 717.437 629.488 717.789 629.952 718.356C630.417 718.918 630.649 719.615 630.649 720.446C630.649 721.158 630.455 721.797 630.067 722.364C629.684 722.926 629.16 723.369 628.495 723.693C627.83 724.017 627.074 724.179 626.226 724.179ZM633.984 724.102C633.669 724.102 633.398 723.989 633.172 723.763C632.946 723.538 632.833 723.267 632.833 722.952C632.833 722.636 632.946 722.366 633.172 722.14C633.398 721.914 633.669 721.801 633.984 721.801C634.299 721.801 634.57 721.914 634.796 722.14C635.022 722.366 635.135 722.636 635.135 722.952C635.135 723.161 635.081 723.352 634.975 723.527C634.873 723.702 634.734 723.842 634.559 723.949C634.389 724.051 634.197 724.102 633.984 724.102ZM641.629 724.179C640.666 724.179 639.846 723.917 639.168 723.393C638.49 722.864 637.973 722.099 637.615 721.098C637.257 720.092 637.078 718.878 637.078 717.455C637.078 716.04 637.257 714.832 637.615 713.83C637.977 712.825 638.497 712.058 639.174 711.529C639.856 710.996 640.674 710.73 641.629 710.73C642.583 710.73 643.4 710.996 644.077 711.529C644.759 712.058 645.279 712.825 645.637 713.83C645.999 714.832 646.18 716.04 646.18 717.455C646.18 718.878 646.001 720.092 645.643 721.098C645.285 722.099 644.767 722.864 644.09 723.393C643.412 723.917 642.592 724.179 641.629 724.179ZM641.629 722.773C642.583 722.773 643.325 722.312 643.853 721.392C644.382 720.472 644.646 719.159 644.646 717.455C644.646 716.321 644.525 715.356 644.282 714.559C644.043 713.762 643.698 713.155 643.246 712.737C642.799 712.32 642.26 712.111 641.629 712.111C640.683 712.111 639.944 712.577 639.411 713.511C638.878 714.44 638.612 715.754 638.612 717.455C638.612 718.588 638.731 719.551 638.97 720.344C639.208 721.136 639.551 721.739 639.999 722.153C640.451 722.566 640.994 722.773 641.629 722.773Z" fill="#7596C7"/>
<path d="M660.585 688.909H662.477L666.926 699.776H667.08L671.528 688.909H673.42V702H671.938V692.054H671.81L667.719 702H666.287L662.196 692.054H662.068V702H660.585V688.909ZM676.394 702V692.182H677.903V702H676.394ZM677.161 690.545C676.867 690.545 676.614 690.445 676.401 690.245C676.192 690.045 676.088 689.804 676.088 689.523C676.088 689.241 676.192 689.001 676.401 688.8C676.614 688.6 676.867 688.5 677.161 688.5C677.455 688.5 677.707 688.6 677.916 688.8C678.129 689.001 678.235 689.241 678.235 689.523C678.235 689.804 678.129 690.045 677.916 690.245C677.707 690.445 677.455 690.545 677.161 690.545ZM682.174 688.909V702H680.666V688.909H682.174ZM686.446 688.909V702H684.937V688.909H686.446ZM691.433 702L688.442 692.182H690.027L692.149 699.699H692.251L694.348 692.182H695.959L698.03 699.673H698.132L700.254 692.182H701.839L698.848 702H697.365L695.217 694.457H695.064L692.916 702H691.433ZM707.488 702.205C706.602 702.205 705.824 701.994 705.155 701.572C704.491 701.15 703.971 700.56 703.596 699.801C703.225 699.043 703.04 698.156 703.04 697.142C703.04 696.119 703.225 695.227 703.596 694.464C703.971 693.701 704.491 693.109 705.155 692.687C705.824 692.265 706.602 692.054 707.488 692.054C708.375 692.054 709.15 692.265 709.815 692.687C710.484 693.109 711.004 693.701 711.375 694.464C711.75 695.227 711.937 696.119 711.937 697.142C711.937 698.156 711.75 699.043 711.375 699.801C711.004 700.56 710.484 701.15 709.815 701.572C709.15 701.994 708.375 702.205 707.488 702.205ZM707.488 700.849C708.162 700.849 708.716 700.677 709.15 700.332C709.585 699.987 709.907 699.533 710.116 698.97C710.324 698.408 710.429 697.798 710.429 697.142C710.429 696.486 710.324 695.874 710.116 695.308C709.907 694.741 709.585 694.283 709.15 693.933C708.716 693.584 708.162 693.409 707.488 693.409C706.815 693.409 706.261 693.584 705.827 693.933C705.392 694.283 705.07 694.741 704.861 695.308C704.653 695.874 704.548 696.486 704.548 697.142C704.548 697.798 704.653 698.408 704.861 698.97C705.07 699.533 705.392 699.987 705.827 700.332C706.261 700.677 706.815 700.849 707.488 700.849ZM714.24 702V692.182H715.697V693.665H715.8C715.979 693.179 716.303 692.785 716.771 692.482C717.24 692.18 717.768 692.028 718.357 692.028C718.467 692.028 718.606 692.031 718.772 692.035C718.938 692.039 719.064 692.045 719.149 692.054V693.588C719.098 693.575 718.981 693.556 718.798 693.531C718.619 693.501 718.429 693.486 718.229 693.486C717.751 693.486 717.325 693.586 716.95 693.786C716.58 693.982 716.286 694.255 716.068 694.604C715.855 694.95 715.749 695.344 715.749 695.787V702H714.24ZM722.344 698.42L722.318 696.554H722.625L726.92 692.182H728.787L724.21 696.81H724.082L722.344 698.42ZM720.937 702V688.909H722.446V702H720.937ZM727.176 702L723.341 697.142L724.415 696.094L729.094 702H727.176ZM667.335 716.381L665.98 716.764C665.895 716.538 665.769 716.319 665.603 716.106C665.441 715.888 665.219 715.71 664.938 715.569C664.657 715.428 664.297 715.358 663.858 715.358C663.257 715.358 662.756 715.496 662.356 715.773C661.96 716.046 661.761 716.393 661.761 716.815C661.761 717.19 661.898 717.487 662.17 717.704C662.443 717.921 662.869 718.102 663.449 718.247L664.906 718.605C665.784 718.818 666.438 719.144 666.869 719.583C667.299 720.018 667.514 720.578 667.514 721.264C667.514 721.827 667.352 722.33 667.028 722.773C666.709 723.216 666.261 723.565 665.686 723.821C665.111 724.077 664.442 724.205 663.679 724.205C662.678 724.205 661.849 723.987 661.192 723.553C660.536 723.118 660.121 722.483 659.946 721.648L661.378 721.29C661.514 721.818 661.772 722.214 662.151 722.479C662.535 722.743 663.036 722.875 663.653 722.875C664.357 722.875 664.915 722.726 665.328 722.428C665.746 722.125 665.955 721.763 665.955 721.341C665.955 721 665.835 720.714 665.597 720.484C665.358 720.25 664.991 720.075 664.497 719.96L662.861 719.577C661.962 719.364 661.301 719.033 660.879 718.586C660.462 718.134 660.253 717.57 660.253 716.892C660.253 716.338 660.408 715.848 660.719 715.422C661.035 714.996 661.463 714.661 662.004 714.418C662.55 714.175 663.168 714.054 663.858 714.054C664.83 714.054 665.592 714.267 666.146 714.693C666.705 715.119 667.101 715.682 667.335 716.381ZM673.774 724.205C672.853 724.205 672.061 723.987 671.396 723.553C670.731 723.118 670.22 722.519 669.862 721.756C669.504 720.994 669.325 720.122 669.325 719.142C669.325 718.145 669.508 717.265 669.874 716.502C670.245 715.735 670.761 715.136 671.421 714.706C672.086 714.271 672.862 714.054 673.748 714.054C674.438 714.054 675.061 714.182 675.615 714.438C676.169 714.693 676.622 715.051 676.976 715.511C677.33 715.972 677.549 716.509 677.634 717.122H676.126C676.011 716.675 675.755 716.278 675.359 715.933C674.967 715.584 674.438 715.409 673.774 715.409C673.186 715.409 672.67 715.562 672.227 715.869C671.788 716.172 671.445 716.6 671.198 717.154C670.955 717.704 670.833 718.349 670.833 719.091C670.833 719.849 670.953 720.51 671.191 721.072C671.434 721.635 671.775 722.072 672.214 722.383C672.657 722.694 673.177 722.849 673.774 722.849C674.166 722.849 674.521 722.781 674.841 722.645C675.161 722.509 675.431 722.312 675.653 722.057C675.874 721.801 676.032 721.494 676.126 721.136H677.634C677.549 721.716 677.338 722.238 677.002 722.702C676.669 723.163 676.228 723.529 675.678 723.802C675.133 724.07 674.498 724.205 673.774 724.205ZM682.729 724.23C682.107 724.23 681.542 724.113 681.035 723.879C680.528 723.64 680.125 723.297 679.827 722.849C679.529 722.398 679.379 721.852 679.379 721.213C679.379 720.651 679.49 720.195 679.712 719.845C679.933 719.491 680.23 719.214 680.6 719.014C680.971 718.814 681.38 718.665 681.828 718.567C682.279 718.464 682.733 718.384 683.189 718.324C683.786 718.247 684.269 718.19 684.64 718.151C685.015 718.109 685.288 718.038 685.458 717.94C685.633 717.842 685.72 717.672 685.72 717.429V717.378C685.72 716.747 685.548 716.257 685.203 715.908C684.862 715.558 684.344 715.384 683.649 715.384C682.929 715.384 682.365 715.541 681.955 715.857C681.546 716.172 681.259 716.509 681.093 716.866L679.661 716.355C679.916 715.759 680.257 715.294 680.683 714.962C681.114 714.625 681.583 714.391 682.09 714.259C682.601 714.122 683.104 714.054 683.598 714.054C683.914 714.054 684.276 714.092 684.685 714.169C685.098 714.241 685.497 714.393 685.88 714.623C686.268 714.853 686.59 715.2 686.845 715.665C687.101 716.129 687.229 716.751 687.229 717.531V724H685.72V722.67H685.644C685.541 722.884 685.371 723.112 685.132 723.354C684.894 723.597 684.576 723.804 684.18 723.974C683.784 724.145 683.3 724.23 682.729 724.23ZM682.959 722.875C683.556 722.875 684.058 722.758 684.468 722.523C684.881 722.289 685.192 721.987 685.401 721.616C685.614 721.245 685.72 720.855 685.72 720.446V719.065C685.656 719.142 685.516 719.212 685.298 719.276C685.085 719.336 684.838 719.389 684.557 719.436C684.28 719.479 684.009 719.517 683.745 719.551C683.485 719.581 683.274 719.607 683.112 719.628C682.72 719.679 682.354 719.762 682.013 719.877C681.676 719.988 681.404 720.156 681.195 720.382C680.99 720.604 680.888 720.906 680.888 721.29C680.888 721.814 681.082 722.21 681.47 722.479C681.862 722.743 682.358 722.875 682.959 722.875ZM691.491 710.909V724H689.982V710.909H691.491ZM698.37 724.205C697.424 724.205 696.608 723.996 695.922 723.578C695.24 723.156 694.714 722.568 694.343 721.814C693.977 721.055 693.794 720.173 693.794 719.168C693.794 718.162 693.977 717.276 694.343 716.509C694.714 715.737 695.23 715.136 695.89 714.706C696.555 714.271 697.33 714.054 698.217 714.054C698.728 714.054 699.233 714.139 699.732 714.31C700.23 714.48 700.684 714.757 701.093 715.141C701.502 715.52 701.828 716.023 702.071 716.649C702.314 717.276 702.436 718.047 702.436 718.963V719.602H694.867V718.298H700.901C700.901 717.744 700.791 717.25 700.569 716.815C700.352 716.381 700.041 716.038 699.636 715.786C699.235 715.535 698.762 715.409 698.217 715.409C697.616 715.409 697.096 715.558 696.657 715.857C696.222 716.151 695.888 716.534 695.654 717.007C695.419 717.48 695.302 717.987 695.302 718.528V719.398C695.302 720.139 695.43 720.768 695.686 721.283C695.945 721.795 696.306 722.185 696.766 722.453C697.226 722.717 697.761 722.849 698.37 722.849C698.767 722.849 699.124 722.794 699.444 722.683C699.768 722.568 700.047 722.398 700.281 722.172C700.516 721.942 700.697 721.656 700.825 721.315L702.282 721.724C702.129 722.219 701.871 722.653 701.509 723.028C701.146 723.399 700.699 723.689 700.166 723.898C699.634 724.102 699.035 724.205 698.37 724.205ZM714.369 710.909V724H712.784V712.571H712.708L709.512 714.693V713.082L712.784 710.909H714.369ZM719.49 710.909V712.06C719.49 712.409 719.426 712.782 719.298 713.178C719.174 713.57 718.991 713.952 718.748 714.322C718.509 714.689 718.22 715.009 717.879 715.281L717.061 714.616C717.329 714.233 717.561 713.835 717.757 713.421C717.958 713.004 718.058 712.558 718.058 712.085V710.909H719.49ZM722.762 710.909V712.06C722.762 712.409 722.698 712.782 722.57 713.178C722.447 713.57 722.264 713.952 722.021 714.322C721.782 714.689 721.492 715.009 721.151 715.281L720.333 714.616C720.602 714.233 720.834 713.835 721.03 713.421C721.23 713.004 721.33 712.558 721.33 712.085V710.909H722.762ZM730.692 716.253V714.872H738.567V716.253H730.692ZM730.692 720.037V718.656H738.567V720.037H730.692ZM751.582 710.909V724H749.997V712.571H749.92L746.724 714.693V713.082L749.997 710.909H751.582ZM756.702 710.909V712.06C756.702 712.409 756.638 712.782 756.511 713.178C756.387 713.57 756.204 713.952 755.961 714.322C755.722 714.689 755.433 715.009 755.092 715.281L754.273 714.616C754.542 714.233 754.774 713.835 754.97 713.421C755.17 713.004 755.271 712.558 755.271 712.085V710.909H756.702ZM763.195 716.751V718.158H757.468V716.751H763.195ZM770.094 724.179C769.131 724.179 768.31 723.917 767.633 723.393C766.955 722.864 766.438 722.099 766.08 721.098C765.722 720.092 765.543 718.878 765.543 717.455C765.543 716.04 765.722 714.832 766.08 713.83C766.442 712.825 766.962 712.058 767.639 711.529C768.321 710.996 769.139 710.73 770.094 710.73C771.048 710.73 771.864 710.996 772.542 711.529C773.224 712.058 773.744 712.825 774.102 713.83C774.464 714.832 774.645 716.04 774.645 717.455C774.645 718.878 774.466 720.092 774.108 721.098C773.75 722.099 773.232 722.864 772.555 723.393C771.877 723.917 771.057 724.179 770.094 724.179ZM770.094 722.773C771.048 722.773 771.79 722.312 772.318 721.392C772.847 720.472 773.111 719.159 773.111 717.455C773.111 716.321 772.989 715.356 772.746 714.559C772.508 713.762 772.163 713.155 771.711 712.737C771.263 712.32 770.724 712.111 770.094 712.111C769.148 712.111 768.408 712.577 767.876 713.511C767.343 714.44 767.077 715.754 767.077 717.455C767.077 718.588 767.196 719.551 767.435 720.344C767.673 721.136 768.016 721.739 768.464 722.153C768.915 722.566 769.459 722.773 770.094 722.773ZM778.429 710.909V712.06C778.429 712.409 778.365 712.782 778.237 713.178C778.114 713.57 777.93 713.952 777.688 714.322C777.449 714.689 777.159 715.009 776.818 715.281L776 714.616C776.268 714.233 776.501 713.835 776.697 713.421C776.897 713.004 776.997 712.558 776.997 712.085V710.909H778.429ZM781.702 710.909V712.06C781.702 712.409 781.638 712.782 781.51 713.178C781.386 713.57 781.203 713.952 780.96 714.322C780.722 714.689 780.432 715.009 780.091 715.281L779.273 714.616C779.541 714.233 779.773 713.835 779.969 713.421C780.17 713.004 780.27 712.558 780.27 712.085V710.909H781.702Z" fill="#7596C7"/>
<line x1="593" y1="706.5" x2="843" y2="706.5" stroke="#7596C7"/>
<circle cx="1020.5" cy="707.5" r="30" fill="white" stroke="#7596C7"/>
<path d="M1022.05 702.179C1021.2 702.179 1020.45 702.034 1019.79 701.744C1019.14 701.455 1018.61 701.052 1018.23 700.536C1017.84 700.016 1017.63 699.413 1017.6 698.727H1019.21C1019.24 699.149 1019.39 699.513 1019.64 699.82C1019.9 700.123 1020.23 700.357 1020.65 700.523C1021.06 700.69 1021.52 700.773 1022.02 700.773C1022.58 700.773 1023.08 700.675 1023.52 700.479C1023.95 700.283 1024.29 700.01 1024.54 699.661C1024.79 699.311 1024.91 698.906 1024.91 698.446C1024.91 697.964 1024.79 697.54 1024.55 697.174C1024.31 696.803 1023.97 696.513 1023.51 696.305C1023.05 696.096 1022.48 695.991 1021.82 695.991H1020.77V694.585H1021.82C1022.34 694.585 1022.79 694.491 1023.19 694.304C1023.58 694.116 1023.89 693.852 1024.11 693.511C1024.34 693.17 1024.45 692.77 1024.45 692.31C1024.45 691.866 1024.35 691.481 1024.16 691.153C1023.96 690.825 1023.68 690.569 1023.33 690.386C1022.97 690.202 1022.56 690.111 1022.07 690.111C1021.62 690.111 1021.2 690.194 1020.8 690.36C1020.4 690.522 1020.07 690.759 1019.82 691.07C1019.57 691.376 1019.44 691.747 1019.41 692.182H1017.88C1017.91 691.496 1018.11 690.895 1018.5 690.379C1018.89 689.859 1019.4 689.455 1020.02 689.165C1020.65 688.875 1021.34 688.73 1022.1 688.73C1022.91 688.73 1023.6 688.894 1024.18 689.222C1024.76 689.546 1025.21 689.974 1025.52 690.507C1025.83 691.04 1025.99 691.615 1025.99 692.233C1025.99 692.97 1025.79 693.599 1025.4 694.119C1025.02 694.638 1024.5 694.999 1023.84 695.199V695.301C1024.66 695.437 1025.31 695.789 1025.77 696.356C1026.24 696.918 1026.47 697.615 1026.47 698.446C1026.47 699.158 1026.28 699.797 1025.89 700.364C1025.51 700.926 1024.98 701.369 1024.32 701.693C1023.65 702.017 1022.9 702.179 1022.05 702.179ZM1002.92 710.909V724H1001.33V710.909H1002.92ZM1010.13 724H1006.09V710.909H1010.31C1011.58 710.909 1012.67 711.171 1013.57 711.695C1014.48 712.215 1015.17 712.963 1015.65 713.939C1016.13 714.911 1016.37 716.074 1016.37 717.429C1016.37 718.793 1016.13 719.967 1015.64 720.951C1015.16 721.931 1014.45 722.685 1013.52 723.214C1012.59 723.738 1011.46 724 1010.13 724ZM1007.68 722.594H1010.03C1011.11 722.594 1012.01 722.385 1012.72 721.967C1013.44 721.55 1013.97 720.955 1014.32 720.184C1014.66 719.413 1014.84 718.494 1014.84 717.429C1014.84 716.372 1014.67 715.462 1014.32 714.7C1013.98 713.933 1013.46 713.344 1012.77 712.935C1012.09 712.522 1011.23 712.315 1010.21 712.315H1007.68V722.594ZM1023.23 724.179C1022.38 724.179 1021.63 724.034 1020.97 723.744C1020.31 723.455 1019.79 723.052 1019.4 722.536C1019.02 722.016 1018.81 721.413 1018.78 720.727H1020.39C1020.42 721.149 1020.57 721.513 1020.82 721.82C1021.08 722.123 1021.41 722.357 1021.83 722.523C1022.24 722.69 1022.7 722.773 1023.2 722.773C1023.76 722.773 1024.26 722.675 1024.7 722.479C1025.13 722.283 1025.47 722.01 1025.72 721.661C1025.97 721.311 1026.09 720.906 1026.09 720.446C1026.09 719.964 1025.97 719.54 1025.73 719.174C1025.49 718.803 1025.14 718.513 1024.68 718.305C1024.22 718.096 1023.66 717.991 1023 717.991H1021.95V716.585H1023C1023.52 716.585 1023.97 716.491 1024.36 716.304C1024.76 716.116 1025.07 715.852 1025.29 715.511C1025.52 715.17 1025.63 714.77 1025.63 714.31C1025.63 713.866 1025.53 713.481 1025.34 713.153C1025.14 712.825 1024.86 712.569 1024.5 712.386C1024.15 712.202 1023.73 712.111 1023.25 712.111C1022.8 712.111 1022.37 712.194 1021.97 712.36C1021.58 712.522 1021.25 712.759 1021 713.07C1020.75 713.376 1020.61 713.747 1020.59 714.182H1019.06C1019.08 713.496 1019.29 712.895 1019.68 712.379C1020.07 711.859 1020.57 711.455 1021.2 711.165C1021.83 710.875 1022.52 710.73 1023.28 710.73C1024.09 710.73 1024.78 710.894 1025.36 711.222C1025.94 711.546 1026.39 711.974 1026.7 712.507C1027.01 713.04 1027.16 713.615 1027.16 714.233C1027.16 714.97 1026.97 715.599 1026.58 716.119C1026.2 716.638 1025.68 716.999 1025.02 717.199V717.301C1025.84 717.437 1026.49 717.789 1026.95 718.356C1027.42 718.918 1027.65 719.615 1027.65 720.446C1027.65 721.158 1027.46 721.797 1027.07 722.364C1026.68 722.926 1026.16 723.369 1025.49 723.693C1024.83 724.017 1024.07 724.179 1023.23 724.179ZM1030.98 724.102C1030.67 724.102 1030.4 723.989 1030.17 723.763C1029.95 723.538 1029.83 723.267 1029.83 722.952C1029.83 722.636 1029.95 722.366 1030.17 722.14C1030.4 721.914 1030.67 721.801 1030.98 721.801C1031.3 721.801 1031.57 721.914 1031.8 722.14C1032.02 722.366 1032.13 722.636 1032.13 722.952C1032.13 723.161 1032.08 723.352 1031.97 723.527C1031.87 723.702 1031.73 723.842 1031.56 723.949C1031.39 724.051 1031.2 724.102 1030.98 724.102ZM1038.63 724.179C1037.67 724.179 1036.85 723.917 1036.17 723.393C1035.49 722.864 1034.97 722.099 1034.61 721.098C1034.26 720.092 1034.08 718.878 1034.08 717.455C1034.08 716.04 1034.26 714.832 1034.61 713.83C1034.98 712.825 1035.5 712.058 1036.17 711.529C1036.86 710.996 1037.67 710.73 1038.63 710.73C1039.58 710.73 1040.4 710.996 1041.08 711.529C1041.76 712.058 1042.28 712.825 1042.64 713.83C1043 714.832 1043.18 716.04 1043.18 717.455C1043.18 718.878 1043 720.092 1042.64 721.098C1042.29 722.099 1041.77 722.864 1041.09 723.393C1040.41 723.917 1039.59 724.179 1038.63 724.179ZM1038.63 722.773C1039.58 722.773 1040.32 722.312 1040.85 721.392C1041.38 720.472 1041.65 719.159 1041.65 717.455C1041.65 716.321 1041.52 715.356 1041.28 714.559C1041.04 713.762 1040.7 713.155 1040.25 712.737C1039.8 712.32 1039.26 712.111 1038.63 712.111C1037.68 712.111 1036.94 712.577 1036.41 713.511C1035.88 714.44 1035.61 715.754 1035.61 717.455C1035.61 718.588 1035.73 719.551 1035.97 720.344C1036.21 721.136 1036.55 721.739 1037 722.153C1037.45 722.566 1037.99 722.773 1038.63 722.773Z" fill="#7596C7"/>
<path d="M1057.59 688.909H1059.48L1063.93 699.776H1064.08L1068.53 688.909H1070.42V702H1068.94V692.054H1068.81L1064.72 702H1063.29L1059.2 692.054H1059.07V702H1057.59V688.909ZM1073.39 702V692.182H1074.9V702H1073.39ZM1074.16 690.545C1073.87 690.545 1073.61 690.445 1073.4 690.245C1073.19 690.045 1073.09 689.804 1073.09 689.523C1073.09 689.241 1073.19 689.001 1073.4 688.8C1073.61 688.6 1073.87 688.5 1074.16 688.5C1074.46 688.5 1074.71 688.6 1074.92 688.8C1075.13 689.001 1075.24 689.241 1075.24 689.523C1075.24 689.804 1075.13 690.045 1074.92 690.245C1074.71 690.445 1074.46 690.545 1074.16 690.545ZM1079.17 688.909V702H1077.67V688.909H1079.17ZM1083.45 688.909V702H1081.94V688.909H1083.45ZM1088.43 702L1085.44 692.182H1087.03L1089.15 699.699H1089.25L1091.35 692.182H1092.96L1095.03 699.673H1095.13L1097.25 692.182H1098.84L1095.85 702H1094.37L1092.22 694.457H1092.06L1089.92 702H1088.43ZM1104.49 702.205C1103.6 702.205 1102.82 701.994 1102.16 701.572C1101.49 701.15 1100.97 700.56 1100.6 699.801C1100.22 699.043 1100.04 698.156 1100.04 697.142C1100.04 696.119 1100.22 695.227 1100.6 694.464C1100.97 693.701 1101.49 693.109 1102.16 692.687C1102.82 692.265 1103.6 692.054 1104.49 692.054C1105.37 692.054 1106.15 692.265 1106.82 692.687C1107.48 693.109 1108 693.701 1108.37 694.464C1108.75 695.227 1108.94 696.119 1108.94 697.142C1108.94 698.156 1108.75 699.043 1108.37 699.801C1108 700.56 1107.48 701.15 1106.82 701.572C1106.15 701.994 1105.37 702.205 1104.49 702.205ZM1104.49 700.849C1105.16 700.849 1105.72 700.677 1106.15 700.332C1106.59 699.987 1106.91 699.533 1107.12 698.97C1107.32 698.408 1107.43 697.798 1107.43 697.142C1107.43 696.486 1107.32 695.874 1107.12 695.308C1106.91 694.741 1106.59 694.283 1106.15 693.933C1105.72 693.584 1105.16 693.409 1104.49 693.409C1103.82 693.409 1103.26 693.584 1102.83 693.933C1102.39 694.283 1102.07 694.741 1101.86 695.308C1101.65 695.874 1101.55 696.486 1101.55 697.142C1101.55 697.798 1101.65 698.408 1101.86 698.97C1102.07 699.533 1102.39 699.987 1102.83 700.332C1103.26 700.677 1103.82 700.849 1104.49 700.849ZM1111.24 702V692.182H1112.7V693.665H1112.8C1112.98 693.179 1113.3 692.785 1113.77 692.482C1114.24 692.18 1114.77 692.028 1115.36 692.028C1115.47 692.028 1115.61 692.031 1115.77 692.035C1115.94 692.039 1116.06 692.045 1116.15 692.054V693.588C1116.1 693.575 1115.98 693.556 1115.8 693.531C1115.62 693.501 1115.43 693.486 1115.23 693.486C1114.75 693.486 1114.33 693.586 1113.95 693.786C1113.58 693.982 1113.29 694.255 1113.07 694.604C1112.86 694.95 1112.75 695.344 1112.75 695.787V702H1111.24ZM1119.34 698.42L1119.32 696.554H1119.62L1123.92 692.182H1125.79L1121.21 696.81H1121.08L1119.34 698.42ZM1117.94 702V688.909H1119.45V702H1117.94ZM1124.18 702L1120.34 697.142L1121.41 696.094L1126.09 702H1124.18ZM1064.34 716.381L1062.98 716.764C1062.89 716.538 1062.77 716.319 1062.6 716.106C1062.44 715.888 1062.22 715.71 1061.94 715.569C1061.66 715.428 1061.3 715.358 1060.86 715.358C1060.26 715.358 1059.76 715.496 1059.36 715.773C1058.96 716.046 1058.76 716.393 1058.76 716.815C1058.76 717.19 1058.9 717.487 1059.17 717.704C1059.44 717.921 1059.87 718.102 1060.45 718.247L1061.91 718.605C1062.78 718.818 1063.44 719.144 1063.87 719.583C1064.3 720.018 1064.51 720.578 1064.51 721.264C1064.51 721.827 1064.35 722.33 1064.03 722.773C1063.71 723.216 1063.26 723.565 1062.69 723.821C1062.11 724.077 1061.44 724.205 1060.68 724.205C1059.68 724.205 1058.85 723.987 1058.19 723.553C1057.54 723.118 1057.12 722.483 1056.95 721.648L1058.38 721.29C1058.51 721.818 1058.77 722.214 1059.15 722.479C1059.53 722.743 1060.04 722.875 1060.65 722.875C1061.36 722.875 1061.91 722.726 1062.33 722.428C1062.75 722.125 1062.95 721.763 1062.95 721.341C1062.95 721 1062.84 720.714 1062.6 720.484C1062.36 720.25 1061.99 720.075 1061.5 719.96L1059.86 719.577C1058.96 719.364 1058.3 719.033 1057.88 718.586C1057.46 718.134 1057.25 717.57 1057.25 716.892C1057.25 716.338 1057.41 715.848 1057.72 715.422C1058.03 714.996 1058.46 714.661 1059 714.418C1059.55 714.175 1060.17 714.054 1060.86 714.054C1061.83 714.054 1062.59 714.267 1063.15 714.693C1063.7 715.119 1064.1 715.682 1064.34 716.381ZM1070.77 724.205C1069.85 724.205 1069.06 723.987 1068.4 723.553C1067.73 723.118 1067.22 722.519 1066.86 721.756C1066.5 720.994 1066.32 720.122 1066.32 719.142C1066.32 718.145 1066.51 717.265 1066.87 716.502C1067.25 715.735 1067.76 715.136 1068.42 714.706C1069.09 714.271 1069.86 714.054 1070.75 714.054C1071.44 714.054 1072.06 714.182 1072.61 714.438C1073.17 714.693 1073.62 715.051 1073.98 715.511C1074.33 715.972 1074.55 716.509 1074.63 717.122H1073.13C1073.01 716.675 1072.76 716.278 1072.36 715.933C1071.97 715.584 1071.44 715.409 1070.77 715.409C1070.19 715.409 1069.67 715.562 1069.23 715.869C1068.79 716.172 1068.44 716.6 1068.2 717.154C1067.95 717.704 1067.83 718.349 1067.83 719.091C1067.83 719.849 1067.95 720.51 1068.19 721.072C1068.43 721.635 1068.78 722.072 1069.21 722.383C1069.66 722.694 1070.18 722.849 1070.77 722.849C1071.17 722.849 1071.52 722.781 1071.84 722.645C1072.16 722.509 1072.43 722.312 1072.65 722.057C1072.87 721.801 1073.03 721.494 1073.13 721.136H1074.63C1074.55 721.716 1074.34 722.238 1074 722.702C1073.67 723.163 1073.23 723.529 1072.68 723.802C1072.13 724.07 1071.5 724.205 1070.77 724.205ZM1079.73 724.23C1079.11 724.23 1078.54 724.113 1078.03 723.879C1077.53 723.64 1077.13 723.297 1076.83 722.849C1076.53 722.398 1076.38 721.852 1076.38 721.213C1076.38 720.651 1076.49 720.195 1076.71 719.845C1076.93 719.491 1077.23 719.214 1077.6 719.014C1077.97 718.814 1078.38 718.665 1078.83 718.567C1079.28 718.464 1079.73 718.384 1080.19 718.324C1080.79 718.247 1081.27 718.19 1081.64 718.151C1082.02 718.109 1082.29 718.038 1082.46 717.94C1082.63 717.842 1082.72 717.672 1082.72 717.429V717.378C1082.72 716.747 1082.55 716.257 1082.2 715.908C1081.86 715.558 1081.34 715.384 1080.65 715.384C1079.93 715.384 1079.36 715.541 1078.96 715.857C1078.55 716.172 1078.26 716.509 1078.09 716.866L1076.66 716.355C1076.92 715.759 1077.26 715.294 1077.68 714.962C1078.11 714.625 1078.58 714.391 1079.09 714.259C1079.6 714.122 1080.1 714.054 1080.6 714.054C1080.91 714.054 1081.28 714.092 1081.68 714.169C1082.1 714.241 1082.5 714.393 1082.88 714.623C1083.27 714.853 1083.59 715.2 1083.85 715.665C1084.1 716.129 1084.23 716.751 1084.23 717.531V724H1082.72V722.67H1082.64C1082.54 722.884 1082.37 723.112 1082.13 723.354C1081.89 723.597 1081.58 723.804 1081.18 723.974C1080.78 724.145 1080.3 724.23 1079.73 724.23ZM1079.96 722.875C1080.56 722.875 1081.06 722.758 1081.47 722.523C1081.88 722.289 1082.19 721.987 1082.4 721.616C1082.61 721.245 1082.72 720.855 1082.72 720.446V719.065C1082.66 719.142 1082.52 719.212 1082.3 719.276C1082.09 719.336 1081.84 719.389 1081.56 719.436C1081.28 719.479 1081.01 719.517 1080.75 719.551C1080.49 719.581 1080.27 719.607 1080.11 719.628C1079.72 719.679 1079.35 719.762 1079.01 719.877C1078.68 719.988 1078.4 720.156 1078.19 720.382C1077.99 720.604 1077.89 720.906 1077.89 721.29C1077.89 721.814 1078.08 722.21 1078.47 722.479C1078.86 722.743 1079.36 722.875 1079.96 722.875ZM1088.49 710.909V724H1086.98V710.909H1088.49ZM1095.37 724.205C1094.42 724.205 1093.61 723.996 1092.92 723.578C1092.24 723.156 1091.71 722.568 1091.34 721.814C1090.98 721.055 1090.79 720.173 1090.79 719.168C1090.79 718.162 1090.98 717.276 1091.34 716.509C1091.71 715.737 1092.23 715.136 1092.89 714.706C1093.55 714.271 1094.33 714.054 1095.22 714.054C1095.73 714.054 1096.23 714.139 1096.73 714.31C1097.23 714.48 1097.68 714.757 1098.09 715.141C1098.5 715.52 1098.83 716.023 1099.07 716.649C1099.31 717.276 1099.44 718.047 1099.44 718.963V719.602H1091.87V718.298H1097.9C1097.9 717.744 1097.79 717.25 1097.57 716.815C1097.35 716.381 1097.04 716.038 1096.64 715.786C1096.24 715.535 1095.76 715.409 1095.22 715.409C1094.62 715.409 1094.1 715.558 1093.66 715.857C1093.22 716.151 1092.89 716.534 1092.65 717.007C1092.42 717.48 1092.3 717.987 1092.3 718.528V719.398C1092.3 720.139 1092.43 720.768 1092.69 721.283C1092.95 721.795 1093.31 722.185 1093.77 722.453C1094.23 722.717 1094.76 722.849 1095.37 722.849C1095.77 722.849 1096.12 722.794 1096.44 722.683C1096.77 722.568 1097.05 722.398 1097.28 722.172C1097.52 721.942 1097.7 721.656 1097.82 721.315L1099.28 721.724C1099.13 722.219 1098.87 722.653 1098.51 723.028C1098.15 723.399 1097.7 723.689 1097.17 723.898C1096.63 724.102 1096.03 724.205 1095.37 724.205ZM1111.37 710.909V724H1109.78V712.571H1109.71L1106.51 714.693V713.082L1109.78 710.909H1111.37ZM1116.49 710.909V712.06C1116.49 712.409 1116.43 712.782 1116.3 713.178C1116.17 713.57 1115.99 713.952 1115.75 714.322C1115.51 714.689 1115.22 715.009 1114.88 715.281L1114.06 714.616C1114.33 714.233 1114.56 713.835 1114.76 713.421C1114.96 713.004 1115.06 712.558 1115.06 712.085V710.909H1116.49ZM1119.76 710.909V712.06C1119.76 712.409 1119.7 712.782 1119.57 713.178C1119.45 713.57 1119.26 713.952 1119.02 714.322C1118.78 714.689 1118.49 715.009 1118.15 715.281L1117.33 714.616C1117.6 714.233 1117.83 713.835 1118.03 713.421C1118.23 713.004 1118.33 712.558 1118.33 712.085V710.909H1119.76ZM1127.69 716.253V714.872H1135.57V716.253H1127.69ZM1127.69 720.037V718.656H1135.57V720.037H1127.69ZM1148.58 710.909V724H1147V712.571H1146.92L1143.72 714.693V713.082L1147 710.909H1148.58ZM1153.7 710.909V712.06C1153.7 712.409 1153.64 712.782 1153.51 713.178C1153.39 713.57 1153.2 713.952 1152.96 714.322C1152.72 714.689 1152.43 715.009 1152.09 715.281L1151.27 714.616C1151.54 714.233 1151.77 713.835 1151.97 713.421C1152.17 713.004 1152.27 712.558 1152.27 712.085V710.909H1153.7ZM1160.2 716.751V718.158H1154.47V716.751H1160.2ZM1167.09 724.179C1166.13 724.179 1165.31 723.917 1164.63 723.393C1163.96 722.864 1163.44 722.099 1163.08 721.098C1162.72 720.092 1162.54 718.878 1162.54 717.455C1162.54 716.04 1162.72 714.832 1163.08 713.83C1163.44 712.825 1163.96 712.058 1164.64 711.529C1165.32 710.996 1166.14 710.73 1167.09 710.73C1168.05 710.73 1168.86 710.996 1169.54 711.529C1170.22 712.058 1170.74 712.825 1171.1 713.83C1171.46 714.832 1171.64 716.04 1171.64 717.455C1171.64 718.878 1171.47 720.092 1171.11 721.098C1170.75 722.099 1170.23 722.864 1169.55 723.393C1168.88 723.917 1168.06 724.179 1167.09 724.179ZM1167.09 722.773C1168.05 722.773 1168.79 722.312 1169.32 721.392C1169.85 720.472 1170.11 719.159 1170.11 717.455C1170.11 716.321 1169.99 715.356 1169.75 714.559C1169.51 713.762 1169.16 713.155 1168.71 712.737C1168.26 712.32 1167.72 712.111 1167.09 712.111C1166.15 712.111 1165.41 712.577 1164.88 713.511C1164.34 714.44 1164.08 715.754 1164.08 717.455C1164.08 718.588 1164.2 719.551 1164.43 720.344C1164.67 721.136 1165.02 721.739 1165.46 722.153C1165.92 722.566 1166.46 722.773 1167.09 722.773ZM1175.43 710.909V712.06C1175.43 712.409 1175.37 712.782 1175.24 713.178C1175.11 713.57 1174.93 713.952 1174.69 714.322C1174.45 714.689 1174.16 715.009 1173.82 715.281L1173 714.616C1173.27 714.233 1173.5 713.835 1173.7 713.421C1173.9 713.004 1174 712.558 1174 712.085V710.909H1175.43ZM1178.7 710.909V712.06C1178.7 712.409 1178.64 712.782 1178.51 713.178C1178.39 713.57 1178.2 713.952 1177.96 714.322C1177.72 714.689 1177.43 715.009 1177.09 715.281L1176.27 714.616C1176.54 714.233 1176.77 713.835 1176.97 713.421C1177.17 713.004 1177.27 712.558 1177.27 712.085V710.909H1178.7Z" fill="#7596C7"/>
<line x1="990" y1="706.5" x2="1240" y2="706.5" stroke="#7596C7"/>
<rect x="86" y="76" width="1228" height="672" stroke="#7596C7" stroke-width="2"/>
<line x1="105.413" y1="89.7186" x2="500.413" y2="669.719" stroke="#7596C7"/>
<line x1="520.413" y1="89.7186" x2="915.413" y2="669.719" stroke="#7596C7"/>
<line x1="935.425" y1="89.7363" x2="1295.42" y2="669.736" stroke="#7596C7"/>
<line x1="104.587" y1="669.719" x2="499.587" y2="89.7186" stroke="#7596C7"/>
<line x1="519.587" y1="669.719" x2="914.587" y2="89.7186" stroke="#7596C7"/>
<line x1="934.575" y1="669.736" x2="1294.58" y2="89.7363" stroke="#7596C7"/>
</svg>
