<svg width="1400" height="905" viewBox="0 0 1400 905" fill="none" xmlns="http://www.w3.org/2000/svg">
<rect width="1400" height="905" fill="white"/>
<path d="M504.573 817V790.818H513.419C515.473 790.818 517.152 791.189 518.456 791.93C519.769 792.663 520.74 793.656 521.371 794.909C522.002 796.162 522.317 797.56 522.317 799.102C522.317 800.645 522.002 802.047 521.371 803.308C520.749 804.57 519.786 805.575 518.482 806.325C517.178 807.067 515.507 807.438 513.471 807.438H507.13V804.625H513.368C514.775 804.625 515.904 804.382 516.756 803.896C517.608 803.411 518.226 802.754 518.61 801.928C519.002 801.092 519.198 800.151 519.198 799.102C519.198 798.054 519.002 797.116 518.61 796.29C518.226 795.463 517.604 794.815 516.743 794.347C515.882 793.869 514.74 793.631 513.317 793.631H507.743V817H504.573ZM527.424 817V790.818H536.271C538.316 790.818 539.995 791.168 541.308 791.866C542.62 792.557 543.592 793.507 544.223 794.717C544.853 795.928 545.169 797.304 545.169 798.847C545.169 800.389 544.853 801.757 544.223 802.95C543.592 804.143 542.625 805.081 541.321 805.763C540.017 806.436 538.35 806.773 536.322 806.773H529.163V803.909H536.22C537.618 803.909 538.743 803.705 539.595 803.295C540.456 802.886 541.078 802.307 541.461 801.557C541.853 800.798 542.049 799.895 542.049 798.847C542.049 797.798 541.853 796.882 541.461 796.098C541.069 795.314 540.443 794.709 539.582 794.283C538.721 793.848 537.583 793.631 536.169 793.631H530.595V817H527.424ZM539.748 805.239L546.191 817H542.51L536.169 805.239H539.748ZM572.543 803.909C572.543 806.67 572.044 809.057 571.047 811.068C570.05 813.08 568.682 814.631 566.943 815.722C565.205 816.812 563.219 817.358 560.986 817.358C558.753 817.358 556.767 816.812 555.028 815.722C553.29 814.631 551.922 813.08 550.925 811.068C549.928 809.057 549.429 806.67 549.429 803.909C549.429 801.148 549.928 798.761 550.925 796.75C551.922 794.739 553.29 793.188 555.028 792.097C556.767 791.006 558.753 790.46 560.986 790.46C563.219 790.46 565.205 791.006 566.943 792.097C568.682 793.188 570.05 794.739 571.047 796.75C572.044 798.761 572.543 801.148 572.543 803.909ZM569.474 803.909C569.474 801.642 569.095 799.729 568.337 798.169C567.587 796.609 566.568 795.429 565.281 794.628C564.003 793.827 562.571 793.426 560.986 793.426C559.401 793.426 557.964 793.827 556.678 794.628C555.399 795.429 554.381 796.609 553.622 798.169C552.872 799.729 552.497 801.642 552.497 803.909C552.497 806.176 552.872 808.089 553.622 809.649C554.381 811.209 555.399 812.389 556.678 813.19C557.964 813.991 559.401 814.392 560.986 814.392C562.571 814.392 564.003 813.991 565.281 813.19C566.568 812.389 567.587 811.209 568.337 809.649C569.095 808.089 569.474 806.176 569.474 803.909ZM587.896 790.818H591.067V809.534C591.067 811.205 590.76 812.624 590.146 813.791C589.533 814.959 588.668 815.845 587.551 816.45C586.435 817.055 585.118 817.358 583.601 817.358C582.169 817.358 580.895 817.098 579.778 816.578C578.662 816.05 577.784 815.3 577.145 814.328C576.506 813.357 576.186 812.202 576.186 810.864H579.305C579.305 811.605 579.489 812.253 579.855 812.807C580.23 813.352 580.741 813.778 581.389 814.085C582.037 814.392 582.774 814.545 583.601 814.545C584.513 814.545 585.288 814.354 585.928 813.97C586.567 813.587 587.053 813.024 587.385 812.283C587.726 811.533 587.896 810.616 587.896 809.534V790.818ZM597.42 817V790.818H613.222V793.631H600.591V802.477H612.403V805.29H600.591V814.188H613.426V817H597.42ZM640.004 799H636.834C636.646 798.088 636.318 797.287 635.849 796.597C635.389 795.906 634.827 795.327 634.162 794.858C633.506 794.381 632.777 794.023 631.976 793.784C631.175 793.545 630.339 793.426 629.47 793.426C627.885 793.426 626.449 793.827 625.162 794.628C623.884 795.429 622.865 796.609 622.107 798.169C621.357 799.729 620.982 801.642 620.982 803.909C620.982 806.176 621.357 808.089 622.107 809.649C622.865 811.209 623.884 812.389 625.162 813.19C626.449 813.991 627.885 814.392 629.47 814.392C630.339 814.392 631.175 814.273 631.976 814.034C632.777 813.795 633.506 813.442 634.162 812.973C634.827 812.496 635.389 811.912 635.849 811.222C636.318 810.523 636.646 809.722 636.834 808.818H640.004C639.766 810.156 639.331 811.354 638.7 812.411C638.07 813.467 637.286 814.366 636.348 815.108C635.411 815.841 634.358 816.399 633.19 816.783C632.031 817.166 630.791 817.358 629.47 817.358C627.237 817.358 625.251 816.812 623.513 815.722C621.774 814.631 620.406 813.08 619.409 811.068C618.412 809.057 617.913 806.67 617.913 803.909C617.913 801.148 618.412 798.761 619.409 796.75C620.406 794.739 621.774 793.188 623.513 792.097C625.251 791.006 627.237 790.46 629.47 790.46C630.791 790.46 632.031 790.652 633.19 791.036C634.358 791.419 635.411 791.982 636.348 792.723C637.286 793.456 638.07 794.351 638.7 795.408C639.331 796.456 639.766 797.653 640.004 799ZM643.696 793.631V790.818H663.332V793.631H655.099V817H651.929V793.631H643.696ZM681.521 790.818V817H678.35V790.818H681.521ZM708.639 790.818V817H705.571L691.304 796.443H691.048V817H687.877V790.818H690.946L705.264 811.426H705.52V790.818H708.639ZM729.301 797.364C729.148 796.068 728.526 795.062 727.435 794.347C726.344 793.631 725.006 793.273 723.42 793.273C722.261 793.273 721.247 793.46 720.378 793.835C719.517 794.21 718.844 794.726 718.358 795.382C717.881 796.038 717.642 796.784 717.642 797.619C717.642 798.318 717.808 798.919 718.141 799.422C718.482 799.916 718.916 800.33 719.445 800.662C719.973 800.986 720.527 801.254 721.107 801.467C721.686 801.672 722.219 801.838 722.705 801.966L725.364 802.682C726.045 802.861 726.804 803.108 727.639 803.423C728.483 803.739 729.288 804.169 730.055 804.714C730.831 805.251 731.47 805.942 731.973 806.786C732.476 807.629 732.727 808.665 732.727 809.892C732.727 811.307 732.357 812.585 731.615 813.727C730.882 814.869 729.808 815.777 728.393 816.45C726.987 817.124 725.278 817.46 723.267 817.46C721.392 817.46 719.768 817.158 718.396 816.553C717.033 815.947 715.959 815.104 715.175 814.021C714.399 812.939 713.96 811.682 713.858 810.25H717.131C717.216 811.239 717.548 812.057 718.128 812.705C718.716 813.344 719.457 813.821 720.352 814.136C721.256 814.443 722.227 814.597 723.267 814.597C724.477 814.597 725.564 814.401 726.527 814.009C727.49 813.608 728.253 813.054 728.815 812.347C729.378 811.631 729.659 810.795 729.659 809.841C729.659 808.972 729.416 808.264 728.93 807.719C728.445 807.173 727.805 806.73 727.013 806.389C726.22 806.048 725.364 805.75 724.443 805.494L721.222 804.574C719.176 803.986 717.557 803.146 716.364 802.055C715.17 800.964 714.574 799.537 714.574 797.773C714.574 796.307 714.97 795.028 715.763 793.938C716.564 792.838 717.638 791.986 718.984 791.381C720.339 790.767 721.852 790.46 723.523 790.46C725.21 790.46 726.71 790.763 728.023 791.368C729.335 791.964 730.375 792.783 731.142 793.822C731.918 794.862 732.327 796.043 732.369 797.364H729.301ZM737.94 817V790.818H746.787C748.841 790.818 750.52 791.189 751.824 791.93C753.136 792.663 754.108 793.656 754.738 794.909C755.369 796.162 755.684 797.56 755.684 799.102C755.684 800.645 755.369 802.047 754.738 803.308C754.116 804.57 753.153 805.575 751.849 806.325C750.545 807.067 748.875 807.438 746.838 807.438H740.497V804.625H746.735C748.142 804.625 749.271 804.382 750.123 803.896C750.975 803.411 751.593 802.754 751.977 801.928C752.369 801.092 752.565 800.151 752.565 799.102C752.565 798.054 752.369 797.116 751.977 796.29C751.593 795.463 750.971 794.815 750.11 794.347C749.25 793.869 748.108 793.631 746.684 793.631H741.11V817H737.94ZM763.962 790.818V817H760.792V790.818H763.962ZM770.319 817V790.818H779.165C781.211 790.818 782.89 791.168 784.202 791.866C785.515 792.557 786.487 793.507 787.117 794.717C787.748 795.928 788.063 797.304 788.063 798.847C788.063 800.389 787.748 801.757 787.117 802.95C786.487 804.143 785.519 805.081 784.215 805.763C782.911 806.436 781.245 806.773 779.217 806.773H772.058V803.909H779.114C780.512 803.909 781.637 803.705 782.489 803.295C783.35 802.886 783.972 802.307 784.356 801.557C784.748 800.798 784.944 799.895 784.944 798.847C784.944 797.798 784.748 796.882 784.356 796.098C783.964 795.314 783.337 794.709 782.477 794.283C781.616 793.848 780.478 793.631 779.063 793.631H773.489V817H770.319ZM782.643 805.239L789.086 817H785.404L779.063 805.239H782.643ZM794.42 817H791.096L800.71 790.818H803.983L813.596 817H810.272L802.449 794.96H802.244L794.42 817ZM795.647 806.773H809.045V809.585H795.647V806.773ZM813.184 793.631V790.818H832.82V793.631H824.587V817H821.417V793.631H813.184ZM840.884 790.818V817H837.713V790.818H840.884ZM869.332 803.909C869.332 806.67 868.833 809.057 867.836 811.068C866.839 813.08 865.471 814.631 863.732 815.722C861.994 816.812 860.008 817.358 857.775 817.358C855.542 817.358 853.556 816.812 851.817 815.722C850.079 814.631 848.711 813.08 847.714 811.068C846.717 809.057 846.218 806.67 846.218 803.909C846.218 801.148 846.717 798.761 847.714 796.75C848.711 794.739 850.079 793.188 851.817 792.097C853.556 791.006 855.542 790.46 857.775 790.46C860.008 790.46 861.994 791.006 863.732 792.097C865.471 793.188 866.839 794.739 867.836 796.75C868.833 798.761 869.332 801.148 869.332 803.909ZM866.263 803.909C866.263 801.642 865.884 799.729 865.126 798.169C864.376 796.609 863.357 795.429 862.07 794.628C860.792 793.827 859.36 793.426 857.775 793.426C856.19 793.426 854.754 793.827 853.467 794.628C852.188 795.429 851.17 796.609 850.411 798.169C849.661 799.729 849.286 801.642 849.286 803.909C849.286 806.176 849.661 808.089 850.411 809.649C851.17 811.209 852.188 812.389 853.467 813.19C854.754 813.991 856.19 814.392 857.775 814.392C859.36 814.392 860.792 813.991 862.07 813.19C863.357 812.389 864.376 811.209 865.126 809.649C865.884 808.089 866.263 806.176 866.263 803.909ZM895.424 790.818V817H892.356L878.089 796.443H877.833V817H874.663V790.818H877.731L892.049 811.426H892.305V790.818H895.424Z" fill="#7596C7"/>
<rect x="86" y="79" width="1228" height="672" stroke="#7596C7" stroke-width="2"/>
<rect x="675.5" y="102.5" width="619" height="629" fill="#E0EAF9" stroke="#7596C7"/>
<rect x="105.5" y="102.5" width="549" height="277" fill="#E0EAF9" stroke="#7596C7"/>
<rect x="105.5" y="400.5" width="251" height="331" fill="#E0EAF9" stroke="#7596C7"/>
<rect x="377.5" y="400.5" width="277" height="331" fill="#E0EAF9" stroke="#7596C7"/>
</svg>
