<svg width="1400" height="905" viewBox="0 0 1400 905" fill="none" xmlns="http://www.w3.org/2000/svg">
<rect width="1400" height="905" fill="white"/>
<rect x="107.5" y="102.5" width="1189" height="564" fill="#E0EAF9" stroke="#7596C7"/>
<path d="M559.759 790.818V817H556.588V794.142H556.435L550.043 798.386V795.165L556.588 790.818H559.759ZM567.991 817.205C567.361 817.205 566.82 816.979 566.368 816.527C565.916 816.075 565.69 815.534 565.69 814.903C565.69 814.273 565.916 813.732 566.368 813.28C566.82 812.828 567.361 812.602 567.991 812.602C568.622 812.602 569.163 812.828 569.615 813.28C570.067 813.732 570.293 814.273 570.293 814.903C570.293 815.321 570.186 815.705 569.973 816.054C569.768 816.403 569.491 816.685 569.142 816.898C568.801 817.102 568.418 817.205 567.991 817.205ZM583.281 817.358C581.355 817.358 579.714 816.834 578.359 815.786C577.004 814.729 575.969 813.199 575.253 811.196C574.537 809.185 574.179 806.756 574.179 803.909C574.179 801.08 574.537 798.663 575.253 796.661C575.977 794.649 577.017 793.115 578.372 792.058C579.736 790.993 581.372 790.46 583.281 790.46C585.19 790.46 586.822 790.993 588.178 792.058C589.541 793.115 590.581 794.649 591.297 796.661C592.021 798.663 592.384 801.08 592.384 803.909C592.384 806.756 592.026 809.185 591.31 811.196C590.594 813.199 589.558 814.729 588.203 815.786C586.848 816.834 585.207 817.358 583.281 817.358ZM583.281 814.545C585.19 814.545 586.673 813.625 587.73 811.784C588.787 809.943 589.315 807.318 589.315 803.909C589.315 801.642 589.072 799.712 588.587 798.118C588.109 796.524 587.419 795.31 586.516 794.474C585.621 793.639 584.543 793.222 583.281 793.222C581.389 793.222 579.911 794.155 578.845 796.021C577.78 797.879 577.247 800.509 577.247 803.909C577.247 806.176 577.486 808.102 577.963 809.688C578.44 811.273 579.126 812.479 580.021 813.305C580.925 814.132 582.011 814.545 583.281 814.545ZM607.827 817V790.818H623.526V793.631H610.997V802.477H622.349V805.29H610.997V817H607.827ZM628.956 817V790.818H632.126V814.188H644.297V817H628.956ZM670.277 803.909C670.277 806.67 669.778 809.057 668.781 811.068C667.784 813.08 666.416 814.631 664.678 815.722C662.939 816.812 660.953 817.358 658.72 817.358C656.487 817.358 654.501 816.812 652.763 815.722C651.024 814.631 649.656 813.08 648.659 811.068C647.662 809.057 647.163 806.67 647.163 803.909C647.163 801.148 647.662 798.761 648.659 796.75C649.656 794.739 651.024 793.188 652.763 792.097C654.501 791.006 656.487 790.46 658.72 790.46C660.953 790.46 662.939 791.006 664.678 792.097C666.416 793.188 667.784 794.739 668.781 796.75C669.778 798.761 670.277 801.148 670.277 803.909ZM667.209 803.909C667.209 801.642 666.83 799.729 666.071 798.169C665.321 796.609 664.303 795.429 663.016 794.628C661.737 793.827 660.305 793.426 658.72 793.426C657.135 793.426 655.699 793.827 654.412 794.628C653.134 795.429 652.115 796.609 651.357 798.169C650.607 799.729 650.232 801.642 650.232 803.909C650.232 806.176 650.607 808.089 651.357 809.649C652.115 811.209 653.134 812.389 654.412 813.19C655.699 813.991 657.135 814.392 658.72 814.392C660.305 814.392 661.737 813.991 663.016 813.19C664.303 812.389 665.321 811.209 666.071 809.649C666.83 808.089 667.209 806.176 667.209 803.909ZM697.699 803.909C697.699 806.67 697.2 809.057 696.203 811.068C695.206 813.08 693.838 814.631 692.099 815.722C690.361 816.812 688.375 817.358 686.142 817.358C683.909 817.358 681.923 816.812 680.185 815.722C678.446 814.631 677.078 813.08 676.081 811.068C675.084 809.057 674.585 806.67 674.585 803.909C674.585 801.148 675.084 798.761 676.081 796.75C677.078 794.739 678.446 793.188 680.185 792.097C681.923 791.006 683.909 790.46 686.142 790.46C688.375 790.46 690.361 791.006 692.099 792.097C693.838 793.188 695.206 794.739 696.203 796.75C697.2 798.761 697.699 801.148 697.699 803.909ZM694.631 803.909C694.631 801.642 694.251 799.729 693.493 798.169C692.743 796.609 691.724 795.429 690.438 794.628C689.159 793.827 687.727 793.426 686.142 793.426C684.557 793.426 683.121 793.827 681.834 794.628C680.555 795.429 679.537 796.609 678.778 798.169C678.028 799.729 677.653 801.642 677.653 803.909C677.653 806.176 678.028 808.089 678.778 809.649C679.537 811.209 680.555 812.389 681.834 813.19C683.121 813.991 684.557 814.392 686.142 814.392C687.727 814.392 689.159 813.991 690.438 813.19C691.724 812.389 692.743 811.209 693.493 809.649C694.251 808.089 694.631 806.176 694.631 803.909ZM703.03 817V790.818H711.876C713.922 790.818 715.601 791.168 716.913 791.866C718.226 792.557 719.197 793.507 719.828 794.717C720.459 795.928 720.774 797.304 720.774 798.847C720.774 800.389 720.459 801.757 719.828 802.95C719.197 804.143 718.23 805.081 716.926 805.763C715.622 806.436 713.956 806.773 711.928 806.773H704.768V803.909H711.825C713.223 803.909 714.348 803.705 715.2 803.295C716.061 802.886 716.683 802.307 717.067 801.557C717.459 800.798 717.655 799.895 717.655 798.847C717.655 797.798 717.459 796.882 717.067 796.098C716.675 795.314 716.048 794.709 715.188 794.283C714.327 793.848 713.189 793.631 711.774 793.631H706.2V817H703.03ZM715.354 805.239L721.797 817H718.115L711.774 805.239H715.354ZM736.182 817V790.818H745.029C747.083 790.818 748.762 791.189 750.066 791.93C751.378 792.663 752.35 793.656 752.98 794.909C753.611 796.162 753.926 797.56 753.926 799.102C753.926 800.645 753.611 802.047 752.98 803.308C752.358 804.57 751.395 805.575 750.091 806.325C748.787 807.067 747.117 807.438 745.08 807.438H738.739V804.625H744.978C746.384 804.625 747.513 804.382 748.365 803.896C749.218 803.411 749.836 802.754 750.219 801.928C750.611 801.092 750.807 800.151 750.807 799.102C750.807 798.054 750.611 797.116 750.219 796.29C749.836 795.463 749.213 794.815 748.353 794.347C747.492 793.869 746.35 793.631 744.926 793.631H739.353V817H736.182ZM759.034 817V790.818H762.204V814.188H774.375V817H759.034ZM782.01 817H778.686L788.3 790.818H791.572L801.186 817H797.862L790.038 794.96H789.834L782.01 817ZM783.237 806.773H796.635V809.585H783.237V806.773ZM826.026 790.818V817H822.957L808.69 796.443H808.435V817H805.264V790.818H808.332L822.651 811.426H822.906V790.818H826.026ZM846.688 797.364C846.534 796.068 845.912 795.062 844.821 794.347C843.73 793.631 842.392 793.273 840.807 793.273C839.648 793.273 838.634 793.46 837.765 793.835C836.904 794.21 836.23 794.726 835.745 795.382C835.267 796.038 835.029 796.784 835.029 797.619C835.029 798.318 835.195 798.919 835.527 799.422C835.868 799.916 836.303 800.33 836.831 800.662C837.36 800.986 837.914 801.254 838.493 801.467C839.073 801.672 839.605 801.838 840.091 801.966L842.75 802.682C843.432 802.861 844.191 803.108 845.026 803.423C845.87 803.739 846.675 804.169 847.442 804.714C848.218 805.251 848.857 805.942 849.36 806.786C849.863 807.629 850.114 808.665 850.114 809.892C850.114 811.307 849.743 812.585 849.002 813.727C848.269 814.869 847.195 815.777 845.78 816.45C844.374 817.124 842.665 817.46 840.654 817.46C838.779 817.46 837.155 817.158 835.783 816.553C834.419 815.947 833.346 815.104 832.561 814.021C831.786 812.939 831.347 811.682 831.245 810.25H834.517C834.603 811.239 834.935 812.057 835.515 812.705C836.103 813.344 836.844 813.821 837.739 814.136C838.642 814.443 839.614 814.597 840.654 814.597C841.864 814.597 842.951 814.401 843.914 814.009C844.877 813.608 845.64 813.054 846.202 812.347C846.765 811.631 847.046 810.795 847.046 809.841C847.046 808.972 846.803 808.264 846.317 807.719C845.831 807.173 845.192 806.73 844.4 806.389C843.607 806.048 842.75 805.75 841.83 805.494L838.608 804.574C836.563 803.986 834.944 803.146 833.75 802.055C832.557 800.964 831.961 799.537 831.961 797.773C831.961 796.307 832.357 795.028 833.15 793.938C833.951 792.838 835.025 791.986 836.371 791.381C837.726 790.767 839.239 790.46 840.909 790.46C842.597 790.46 844.097 790.763 845.409 791.368C846.722 791.964 847.762 792.783 848.529 793.822C849.304 794.862 849.713 796.043 849.756 797.364H846.688Z" fill="#7596C7"/>
<circle cx="605.5" cy="703.5" r="30" fill="white" stroke="#7596C7"/>
<path d="M608.774 684.909V698H607.189V686.571H607.112L603.916 688.693V687.082L607.189 684.909H608.774ZM589.648 706.909V720H588.063V706.909H589.648ZM596.866 720H592.826V706.909H597.045C598.315 706.909 599.402 707.171 600.305 707.695C601.209 708.215 601.901 708.963 602.383 709.939C602.864 710.911 603.105 712.074 603.105 713.429C603.105 714.793 602.862 715.967 602.376 716.951C601.89 717.931 601.183 718.685 600.254 719.214C599.325 719.738 598.196 720 596.866 720ZM594.412 718.594H596.764C597.846 718.594 598.743 718.385 599.455 717.967C600.167 717.55 600.697 716.955 601.047 716.184C601.396 715.413 601.571 714.494 601.571 713.429C601.571 712.372 601.398 711.462 601.053 710.7C600.708 709.933 600.192 709.344 599.506 708.935C598.82 708.522 597.966 708.315 596.943 708.315H594.412V718.594ZM610.136 706.909V720H608.551V708.571H608.474L605.278 710.693V709.082L608.551 706.909H610.136ZM614.253 720.102C613.937 720.102 613.667 719.989 613.441 719.763C613.215 719.538 613.102 719.267 613.102 718.952C613.102 718.636 613.215 718.366 613.441 718.14C613.667 717.914 613.937 717.801 614.253 717.801C614.568 717.801 614.839 717.914 615.064 718.14C615.29 718.366 615.403 718.636 615.403 718.952C615.403 719.161 615.35 719.352 615.243 719.527C615.141 719.702 615.003 719.842 614.828 719.949C614.657 720.051 614.466 720.102 614.253 720.102ZM621.897 720.179C620.934 720.179 620.114 719.917 619.437 719.393C618.759 718.864 618.241 718.099 617.883 717.098C617.525 716.092 617.346 714.878 617.346 713.455C617.346 712.04 617.525 710.832 617.883 709.83C618.245 708.825 618.765 708.058 619.443 707.529C620.125 706.996 620.943 706.73 621.897 706.73C622.852 706.73 623.668 706.996 624.346 707.529C625.027 708.058 625.547 708.825 625.905 709.83C626.267 710.832 626.449 712.04 626.449 713.455C626.449 714.878 626.27 716.092 625.912 717.098C625.554 718.099 625.036 718.864 624.358 719.393C623.681 719.917 622.861 720.179 621.897 720.179ZM621.897 718.773C622.852 718.773 623.593 718.312 624.122 717.392C624.65 716.472 624.915 715.159 624.915 713.455C624.915 712.321 624.793 711.356 624.55 710.559C624.312 709.762 623.966 709.155 623.515 708.737C623.067 708.32 622.528 708.111 621.897 708.111C620.951 708.111 620.212 708.577 619.679 709.511C619.147 710.44 618.88 711.754 618.88 713.455C618.88 714.588 619 715.551 619.238 716.344C619.477 717.136 619.82 717.739 620.267 718.153C620.719 718.566 621.263 718.773 621.897 718.773Z" fill="#7596C7"/>
<path d="M642.585 698V684.909H650.435V686.315H644.17V690.739H649.847V692.145H644.17V698H642.585ZM654.454 684.909V698H652.945V684.909H654.454ZM661.205 698.205C660.319 698.205 659.541 697.994 658.872 697.572C658.207 697.15 657.688 696.56 657.312 695.801C656.942 695.043 656.756 694.156 656.756 693.142C656.756 692.119 656.942 691.227 657.312 690.464C657.688 689.701 658.207 689.109 658.872 688.687C659.541 688.265 660.319 688.054 661.205 688.054C662.092 688.054 662.867 688.265 663.532 688.687C664.201 689.109 664.721 689.701 665.092 690.464C665.467 691.227 665.654 692.119 665.654 693.142C665.654 694.156 665.467 695.043 665.092 695.801C664.721 696.56 664.201 697.15 663.532 697.572C662.867 697.994 662.092 698.205 661.205 698.205ZM661.205 696.849C661.879 696.849 662.433 696.677 662.867 696.332C663.302 695.987 663.624 695.533 663.832 694.97C664.041 694.408 664.146 693.798 664.146 693.142C664.146 692.486 664.041 691.874 663.832 691.308C663.624 690.741 663.302 690.283 662.867 689.933C662.433 689.584 661.879 689.409 661.205 689.409C660.532 689.409 659.978 689.584 659.543 689.933C659.109 690.283 658.787 690.741 658.578 691.308C658.369 691.874 658.265 692.486 658.265 693.142C658.265 693.798 658.369 694.408 658.578 694.97C658.787 695.533 659.109 695.987 659.543 696.332C659.978 696.677 660.532 696.849 661.205 696.849ZM671.945 698.205C671.059 698.205 670.281 697.994 669.612 697.572C668.948 697.15 668.428 696.56 668.053 695.801C667.682 695.043 667.497 694.156 667.497 693.142C667.497 692.119 667.682 691.227 668.053 690.464C668.428 689.701 668.948 689.109 669.612 688.687C670.281 688.265 671.059 688.054 671.945 688.054C672.832 688.054 673.607 688.265 674.272 688.687C674.941 689.109 675.461 689.701 675.832 690.464C676.207 691.227 676.394 692.119 676.394 693.142C676.394 694.156 676.207 695.043 675.832 695.801C675.461 696.56 674.941 697.15 674.272 697.572C673.607 697.994 672.832 698.205 671.945 698.205ZM671.945 696.849C672.619 696.849 673.173 696.677 673.607 696.332C674.042 695.987 674.364 695.533 674.573 694.97C674.781 694.408 674.886 693.798 674.886 693.142C674.886 692.486 674.781 691.874 674.573 691.308C674.364 690.741 674.042 690.283 673.607 689.933C673.173 689.584 672.619 689.409 671.945 689.409C671.272 689.409 670.718 689.584 670.284 689.933C669.849 690.283 669.527 690.741 669.318 691.308C669.11 691.874 669.005 692.486 669.005 693.142C669.005 693.798 669.11 694.408 669.318 694.97C669.527 695.533 669.849 695.987 670.284 696.332C670.718 696.677 671.272 696.849 671.945 696.849ZM678.697 698V688.182H680.154V689.665H680.257C680.436 689.179 680.76 688.785 681.228 688.482C681.697 688.18 682.225 688.028 682.814 688.028C682.924 688.028 683.063 688.031 683.229 688.035C683.395 688.039 683.521 688.045 683.606 688.054V689.588C683.555 689.575 683.438 689.556 683.255 689.531C683.076 689.501 682.886 689.486 682.686 689.486C682.208 689.486 681.782 689.586 681.407 689.786C681.037 689.982 680.743 690.255 680.525 690.604C680.312 690.95 680.206 691.344 680.206 691.787V698H678.697ZM690.661 698V684.909H695.085C696.112 684.909 696.951 685.094 697.603 685.465C698.259 685.832 698.745 686.328 699.061 686.955C699.376 687.581 699.534 688.28 699.534 689.051C699.534 689.822 699.376 690.523 699.061 691.154C698.749 691.785 698.268 692.288 697.616 692.663C696.964 693.033 696.129 693.219 695.11 693.219H691.94V691.812H695.059C695.762 691.812 696.327 691.691 696.753 691.448C697.179 691.205 697.488 690.877 697.68 690.464C697.876 690.046 697.974 689.575 697.974 689.051C697.974 688.527 697.876 688.058 697.68 687.645C697.488 687.232 697.177 686.908 696.747 686.673C696.316 686.435 695.745 686.315 695.034 686.315H692.247V698H690.661ZM703.391 684.909V698H701.883V684.909H703.391ZM709.043 698.23C708.421 698.23 707.857 698.113 707.349 697.879C706.842 697.64 706.44 697.297 706.141 696.849C705.843 696.398 705.694 695.852 705.694 695.213C705.694 694.651 705.805 694.195 706.026 693.845C706.248 693.491 706.544 693.214 706.915 693.014C707.286 692.814 707.695 692.665 708.142 692.567C708.594 692.464 709.048 692.384 709.504 692.324C710.1 692.247 710.584 692.19 710.955 692.151C711.33 692.109 711.602 692.038 711.773 691.94C711.947 691.842 712.035 691.672 712.035 691.429V691.378C712.035 690.747 711.862 690.257 711.517 689.908C711.176 689.558 710.658 689.384 709.964 689.384C709.244 689.384 708.679 689.541 708.27 689.857C707.861 690.172 707.573 690.509 707.407 690.866L705.975 690.355C706.231 689.759 706.572 689.294 706.998 688.962C707.428 688.625 707.897 688.391 708.404 688.259C708.915 688.122 709.418 688.054 709.913 688.054C710.228 688.054 710.59 688.092 710.999 688.169C711.413 688.241 711.811 688.393 712.195 688.623C712.582 688.853 712.904 689.2 713.16 689.665C713.415 690.129 713.543 690.751 713.543 691.531V698H712.035V696.67H711.958C711.856 696.884 711.685 697.112 711.447 697.354C711.208 697.597 710.891 697.804 710.494 697.974C710.098 698.145 709.614 698.23 709.043 698.23ZM709.273 696.875C709.87 696.875 710.373 696.758 710.782 696.523C711.195 696.289 711.506 695.987 711.715 695.616C711.928 695.245 712.035 694.855 712.035 694.446V693.065C711.971 693.142 711.83 693.212 711.613 693.276C711.4 693.336 711.153 693.389 710.871 693.436C710.594 693.479 710.324 693.517 710.06 693.551C709.8 693.581 709.589 693.607 709.427 693.628C709.035 693.679 708.668 693.762 708.327 693.877C707.991 693.988 707.718 694.156 707.509 694.382C707.305 694.604 707.202 694.906 707.202 695.29C707.202 695.814 707.396 696.21 707.784 696.479C708.176 696.743 708.673 696.875 709.273 696.875ZM717.805 692.094V698H716.297V688.182H717.754V689.716H717.882C718.112 689.217 718.461 688.817 718.93 688.514C719.399 688.207 720.004 688.054 720.746 688.054C721.41 688.054 721.992 688.19 722.491 688.463C722.989 688.732 723.377 689.141 723.654 689.69C723.931 690.236 724.069 690.926 724.069 691.761V698H722.561V691.864C722.561 691.092 722.361 690.491 721.96 690.061C721.559 689.626 721.01 689.409 720.311 689.409C719.829 689.409 719.399 689.513 719.02 689.722C718.645 689.931 718.349 690.236 718.131 690.636C717.914 691.037 717.805 691.523 717.805 692.094ZM649.335 712.381L647.98 712.764C647.895 712.538 647.769 712.319 647.603 712.106C647.441 711.888 647.219 711.71 646.938 711.569C646.657 711.428 646.297 711.358 645.858 711.358C645.257 711.358 644.756 711.496 644.356 711.773C643.96 712.046 643.761 712.393 643.761 712.815C643.761 713.19 643.898 713.487 644.17 713.704C644.443 713.921 644.869 714.102 645.449 714.247L646.906 714.605C647.784 714.818 648.438 715.144 648.869 715.583C649.299 716.018 649.514 716.578 649.514 717.264C649.514 717.827 649.352 718.33 649.028 718.773C648.709 719.216 648.261 719.565 647.686 719.821C647.111 720.077 646.442 720.205 645.679 720.205C644.678 720.205 643.849 719.987 643.192 719.553C642.536 719.118 642.121 718.483 641.946 717.648L643.378 717.29C643.514 717.818 643.772 718.214 644.151 718.479C644.535 718.743 645.036 718.875 645.653 718.875C646.357 718.875 646.915 718.726 647.328 718.428C647.746 718.125 647.955 717.763 647.955 717.341C647.955 717 647.835 716.714 647.597 716.484C647.358 716.25 646.991 716.075 646.497 715.96L644.861 715.577C643.962 715.364 643.301 715.033 642.879 714.586C642.462 714.134 642.253 713.57 642.253 712.892C642.253 712.338 642.408 711.848 642.719 711.422C643.035 710.996 643.463 710.661 644.004 710.418C644.55 710.175 645.168 710.054 645.858 710.054C646.83 710.054 647.592 710.267 648.146 710.693C648.705 711.119 649.101 711.682 649.335 712.381ZM655.774 720.205C654.853 720.205 654.061 719.987 653.396 719.553C652.731 719.118 652.22 718.519 651.862 717.756C651.504 716.994 651.325 716.122 651.325 715.142C651.325 714.145 651.508 713.265 651.874 712.502C652.245 711.735 652.761 711.136 653.421 710.706C654.086 710.271 654.862 710.054 655.748 710.054C656.438 710.054 657.061 710.182 657.615 710.438C658.169 710.693 658.622 711.051 658.976 711.511C659.33 711.972 659.549 712.509 659.634 713.122H658.126C658.011 712.675 657.755 712.278 657.359 711.933C656.967 711.584 656.438 711.409 655.774 711.409C655.186 711.409 654.67 711.562 654.227 711.869C653.788 712.172 653.445 712.6 653.198 713.154C652.955 713.704 652.833 714.349 652.833 715.091C652.833 715.849 652.953 716.51 653.191 717.072C653.434 717.635 653.775 718.072 654.214 718.383C654.657 718.694 655.177 718.849 655.774 718.849C656.166 718.849 656.521 718.781 656.841 718.645C657.161 718.509 657.431 718.312 657.653 718.057C657.874 717.801 658.032 717.494 658.126 717.136H659.634C659.549 717.716 659.338 718.238 659.002 718.702C658.669 719.163 658.228 719.529 657.678 719.802C657.133 720.07 656.498 720.205 655.774 720.205ZM664.729 720.23C664.107 720.23 663.542 720.113 663.035 719.879C662.528 719.64 662.125 719.297 661.827 718.849C661.529 718.398 661.379 717.852 661.379 717.213C661.379 716.651 661.49 716.195 661.712 715.845C661.933 715.491 662.23 715.214 662.6 715.014C662.971 714.814 663.38 714.665 663.828 714.567C664.279 714.464 664.733 714.384 665.189 714.324C665.786 714.247 666.269 714.19 666.64 714.151C667.015 714.109 667.288 714.038 667.458 713.94C667.633 713.842 667.72 713.672 667.72 713.429V713.378C667.72 712.747 667.548 712.257 667.203 711.908C666.862 711.558 666.344 711.384 665.649 711.384C664.929 711.384 664.365 711.541 663.955 711.857C663.546 712.172 663.259 712.509 663.093 712.866L661.661 712.355C661.916 711.759 662.257 711.294 662.683 710.962C663.114 710.625 663.583 710.391 664.09 710.259C664.601 710.122 665.104 710.054 665.598 710.054C665.914 710.054 666.276 710.092 666.685 710.169C667.098 710.241 667.497 710.393 667.88 710.623C668.268 710.853 668.59 711.2 668.845 711.665C669.101 712.129 669.229 712.751 669.229 713.531V720H667.72V718.67H667.644C667.541 718.884 667.371 719.112 667.132 719.354C666.894 719.597 666.576 719.804 666.18 719.974C665.784 720.145 665.3 720.23 664.729 720.23ZM664.959 718.875C665.556 718.875 666.058 718.758 666.468 718.523C666.881 718.289 667.192 717.987 667.401 717.616C667.614 717.245 667.72 716.855 667.72 716.446V715.065C667.656 715.142 667.516 715.212 667.298 715.276C667.085 715.336 666.838 715.389 666.557 715.436C666.28 715.479 666.009 715.517 665.745 715.551C665.485 715.581 665.274 715.607 665.112 715.628C664.72 715.679 664.354 715.762 664.013 715.877C663.676 715.988 663.404 716.156 663.195 716.382C662.99 716.604 662.888 716.906 662.888 717.29C662.888 717.814 663.082 718.21 663.47 718.479C663.862 718.743 664.358 718.875 664.959 718.875ZM673.491 706.909V720H671.982V706.909H673.491ZM680.37 720.205C679.424 720.205 678.608 719.996 677.922 719.578C677.24 719.156 676.714 718.568 676.343 717.814C675.977 717.055 675.794 716.173 675.794 715.168C675.794 714.162 675.977 713.276 676.343 712.509C676.714 711.737 677.23 711.136 677.89 710.706C678.555 710.271 679.33 710.054 680.217 710.054C680.728 710.054 681.233 710.139 681.732 710.31C682.23 710.48 682.684 710.757 683.093 711.141C683.502 711.52 683.828 712.023 684.071 712.649C684.314 713.276 684.436 714.047 684.436 714.963V715.602H676.867V714.298H682.901C682.901 713.744 682.791 713.25 682.569 712.815C682.352 712.381 682.041 712.038 681.636 711.786C681.235 711.535 680.762 711.409 680.217 711.409C679.616 711.409 679.096 711.558 678.657 711.857C678.222 712.151 677.888 712.534 677.654 713.007C677.419 713.48 677.302 713.987 677.302 714.528V715.398C677.302 716.139 677.43 716.768 677.686 717.283C677.945 717.795 678.306 718.185 678.766 718.453C679.226 718.717 679.761 718.849 680.37 718.849C680.767 718.849 681.124 718.794 681.444 718.683C681.768 718.568 682.047 718.398 682.281 718.172C682.516 717.942 682.697 717.656 682.825 717.315L684.282 717.724C684.129 718.219 683.871 718.653 683.509 719.028C683.146 719.399 682.699 719.689 682.166 719.898C681.634 720.102 681.035 720.205 680.37 720.205ZM696.369 706.909V720H694.784V708.571H694.708L691.512 710.693V709.082L694.784 706.909H696.369ZM704.788 706.295L700.569 721.969H699.188L703.407 706.295H704.788ZM706.55 720V718.849L710.871 714.119C711.379 713.565 711.796 713.084 712.124 712.675C712.452 712.261 712.695 711.874 712.853 711.511C713.015 711.145 713.096 710.761 713.096 710.361C713.096 709.901 712.985 709.502 712.763 709.165C712.546 708.829 712.248 708.569 711.869 708.386C711.489 708.202 711.063 708.111 710.59 708.111C710.087 708.111 709.648 708.215 709.273 708.424C708.903 708.629 708.615 708.916 708.411 709.287C708.21 709.658 708.11 710.092 708.11 710.591H706.602C706.602 709.824 706.778 709.151 707.132 708.571C707.486 707.991 707.967 707.54 708.577 707.216C709.19 706.892 709.879 706.73 710.641 706.73C711.408 706.73 712.088 706.892 712.68 707.216C713.273 707.54 713.737 707.977 714.074 708.526C714.411 709.076 714.579 709.688 714.579 710.361C714.579 710.842 714.491 711.313 714.317 711.773C714.146 712.229 713.848 712.739 713.422 713.301C713 713.859 712.414 714.541 711.664 715.347L708.724 718.491V718.594H714.809V720H706.55ZM718.804 706.909V708.06C718.804 708.409 718.74 708.782 718.612 709.178C718.489 709.57 718.305 709.952 718.062 710.322C717.824 710.689 717.534 711.009 717.193 711.281L716.375 710.616C716.643 710.233 716.876 709.835 717.072 709.421C717.272 709.004 717.372 708.558 717.372 708.085V706.909H718.804ZM722.077 706.909V708.06C722.077 708.409 722.013 708.782 721.885 709.178C721.761 709.57 721.578 709.952 721.335 710.322C721.097 710.689 720.807 711.009 720.466 711.281L719.648 710.616C719.916 710.233 720.148 709.835 720.344 709.421C720.545 709.004 720.645 708.558 720.645 708.085V706.909H722.077ZM730.006 712.253V710.872H737.881V712.253H730.006ZM730.006 716.037V714.656H737.881V716.037H730.006ZM750.897 706.909V720H749.312V708.571H749.235L746.039 710.693V709.082L749.312 706.909H750.897ZM756.017 706.909V708.06C756.017 708.409 755.953 708.782 755.825 709.178C755.702 709.57 755.518 709.952 755.275 710.322C755.037 710.689 754.747 711.009 754.406 711.281L753.588 710.616C753.856 710.233 754.089 709.835 754.285 709.421C754.485 709.004 754.585 708.558 754.585 708.085V706.909H756.017ZM762.51 712.751V714.158H756.782V712.751H762.51ZM769.408 720.179C768.445 720.179 767.625 719.917 766.947 719.393C766.27 718.864 765.752 718.099 765.394 717.098C765.036 716.092 764.857 714.878 764.857 713.455C764.857 712.04 765.036 710.832 765.394 709.83C765.756 708.825 766.276 708.058 766.954 707.529C767.635 706.996 768.454 706.73 769.408 706.73C770.363 706.73 771.179 706.996 771.856 707.529C772.538 708.058 773.058 708.825 773.416 709.83C773.778 710.832 773.959 712.04 773.959 713.455C773.959 714.878 773.78 716.092 773.422 717.098C773.064 718.099 772.547 718.864 771.869 719.393C771.192 719.917 770.371 720.179 769.408 720.179ZM769.408 718.773C770.363 718.773 771.104 718.312 771.633 717.392C772.161 716.472 772.425 715.159 772.425 713.455C772.425 712.321 772.304 711.356 772.061 710.559C771.822 709.762 771.477 709.155 771.025 708.737C770.578 708.32 770.039 708.111 769.408 708.111C768.462 708.111 767.723 708.577 767.19 709.511C766.657 710.44 766.391 711.754 766.391 713.455C766.391 714.588 766.51 715.551 766.749 716.344C766.988 717.136 767.331 717.739 767.778 718.153C768.23 718.566 768.773 718.773 769.408 718.773ZM777.743 706.909V708.06C777.743 708.409 777.68 708.782 777.552 709.178C777.428 709.57 777.245 709.952 777.002 710.322C776.763 710.689 776.474 711.009 776.133 711.281L775.314 710.616C775.583 710.233 775.815 709.835 776.011 709.421C776.211 709.004 776.312 708.558 776.312 708.085V706.909H777.743ZM781.016 706.909V708.06C781.016 708.409 780.952 708.782 780.824 709.178C780.701 709.57 780.518 709.952 780.275 710.322C780.036 710.689 779.746 711.009 779.405 711.281L778.587 710.616C778.856 710.233 779.088 709.835 779.284 709.421C779.484 709.004 779.584 708.558 779.584 708.085V706.909H781.016Z" fill="#7596C7"/>
<line x1="575" y1="702.5" x2="825" y2="702.5" stroke="#7596C7"/>
<rect x="86" y="79" width="1228" height="672" stroke="#7596C7" stroke-width="2"/>
<line y1="-0.5" x2="1317.32" y2="-0.5" transform="matrix(-0.903351 0.428902 -0.969838 -0.243749 1297 102)" stroke="#7596C7"/>
<line y1="-0.5" x2="1317.32" y2="-0.5" transform="matrix(0.903351 0.428902 -0.969838 0.243749 107 102)" stroke="#7596C7"/>
</svg>
