<svg width="1400" height="905" viewBox="0 0 1400 905" fill="none" xmlns="http://www.w3.org/2000/svg">
<rect width="1400" height="905" fill="white"/>
<rect x="199.5" y="150.5" width="1115" height="86" stroke="#7596C7"/>
<rect x="199.5" y="253.5" width="1115" height="86" stroke="#7596C7"/>
<rect x="199.5" y="356.5" width="1115" height="86" stroke="#7596C7"/>
<rect x="199.5" y="459.5" width="1115" height="86" stroke="#7596C7"/>
<rect x="199.5" y="561.5" width="1115" height="86" stroke="#7596C7"/>
<rect x="199.5" y="665.5" width="1115" height="86" stroke="#7596C7"/>
<rect x="85.5" y="356.5" width="93" height="86" fill="#E0EAF9" stroke="#7596C7"/>
<rect x="85.5" y="253.5" width="93" height="86" fill="#E0EAF9" stroke="#7596C7"/>
<rect x="85.5" y="150.5" width="93" height="86" fill="#E0EAF9" stroke="#7596C7"/>
<rect x="85.5" y="458.5" width="93" height="87" fill="#E0EAF9" stroke="#7596C7"/>
<rect x="85.5" y="561.5" width="93" height="87" fill="#E0EAF9" stroke="#7596C7"/>
<rect x="85.5" y="665.5" width="93" height="86" fill="#E0EAF9" stroke="#7596C7"/>
<path d="M511.022 811.631V809.023L522.528 790.818H524.42V794.858H523.142L514.449 808.614V808.818H529.943V811.631H511.022ZM523.346 817V810.838V809.624V790.818H526.363V817H523.346ZM535.753 817.205C535.123 817.205 534.581 816.979 534.13 816.527C533.678 816.075 533.452 815.534 533.452 814.903C533.452 814.273 533.678 813.732 534.13 813.28C534.581 812.828 535.123 812.602 535.753 812.602C536.384 812.602 536.925 812.828 537.377 813.28C537.828 813.732 538.054 814.273 538.054 814.903C538.054 815.321 537.948 815.705 537.735 816.054C537.53 816.403 537.253 816.685 536.904 816.898C536.563 817.102 536.179 817.205 535.753 817.205ZM551.043 817.358C549.117 817.358 547.476 816.834 546.121 815.786C544.766 814.729 543.73 813.199 543.015 811.196C542.299 809.185 541.941 806.756 541.941 803.909C541.941 801.08 542.299 798.663 543.015 796.661C543.739 794.649 544.779 793.115 546.134 792.058C547.498 790.993 549.134 790.46 551.043 790.46C552.952 790.46 554.584 790.993 555.939 792.058C557.303 793.115 558.343 794.649 559.059 796.661C559.783 798.663 560.145 801.08 560.145 803.909C560.145 806.756 559.787 809.185 559.071 811.196C558.355 813.199 557.32 814.729 555.965 815.786C554.61 816.834 552.969 817.358 551.043 817.358ZM551.043 814.545C552.952 814.545 554.435 813.625 555.492 811.784C556.549 809.943 557.077 807.318 557.077 803.909C557.077 801.642 556.834 799.712 556.348 798.118C555.871 796.524 555.181 795.31 554.277 794.474C553.382 793.639 552.304 793.222 551.043 793.222C549.151 793.222 547.672 794.155 546.607 796.021C545.542 797.879 545.009 800.509 545.009 803.909C545.009 806.176 545.248 808.102 545.725 809.688C546.202 811.273 546.888 812.479 547.783 813.305C548.686 814.132 549.773 814.545 551.043 814.545ZM575.588 817V790.818H591.287V793.631H578.759V802.477H590.111V805.29H578.759V817H575.588ZM599.888 790.818V817H596.717V790.818H599.888ZM627.006 790.818V817H623.938L609.671 796.443H609.415V817H606.245V790.818H609.313L623.631 811.426H623.887V790.818H627.006ZM636.521 790.818V817H633.35V790.818H636.521ZM657.196 797.364C657.042 796.068 656.42 795.062 655.329 794.347C654.238 793.631 652.9 793.273 651.315 793.273C650.156 793.273 649.142 793.46 648.272 793.835C647.412 794.21 646.738 794.726 646.252 795.382C645.775 796.038 645.537 796.784 645.537 797.619C645.537 798.318 645.703 798.919 646.035 799.422C646.376 799.916 646.811 800.33 647.339 800.662C647.868 800.986 648.422 801.254 649.001 801.467C649.581 801.672 650.113 801.838 650.599 801.966L653.258 802.682C653.94 802.861 654.699 803.108 655.534 803.423C656.377 803.739 657.183 804.169 657.95 804.714C658.725 805.251 659.365 805.942 659.868 806.786C660.37 807.629 660.622 808.665 660.622 809.892C660.622 811.307 660.251 812.585 659.51 813.727C658.777 814.869 657.703 815.777 656.288 816.45C654.882 817.124 653.173 817.46 651.162 817.46C649.287 817.46 647.663 817.158 646.291 816.553C644.927 815.947 643.853 815.104 643.069 814.021C642.294 812.939 641.855 811.682 641.752 810.25H645.025C645.11 811.239 645.443 812.057 646.022 812.705C646.61 813.344 647.352 813.821 648.247 814.136C649.15 814.443 650.122 814.597 651.162 814.597C652.372 814.597 653.458 814.401 654.422 814.009C655.385 813.608 656.147 813.054 656.71 812.347C657.272 811.631 657.554 810.795 657.554 809.841C657.554 808.972 657.311 808.264 656.825 807.719C656.339 807.173 655.7 806.73 654.907 806.389C654.115 806.048 653.258 805.75 652.338 805.494L649.116 804.574C647.071 803.986 645.451 803.146 644.258 802.055C643.065 800.964 642.468 799.537 642.468 797.773C642.468 796.307 642.865 795.028 643.657 793.938C644.458 792.838 645.532 791.986 646.879 791.381C648.234 790.767 649.747 790.46 651.417 790.46C653.105 790.46 654.605 790.763 655.917 791.368C657.23 791.964 658.27 792.783 659.037 793.822C659.812 794.862 660.221 796.043 660.264 797.364H657.196ZM665.835 817V790.818H669.005V802.477H682.965V790.818H686.136V817H682.965V805.29H669.005V817H665.835ZM716.926 797.364C716.773 796.068 716.151 795.062 715.06 794.347C713.969 793.631 712.631 793.273 711.045 793.273C709.886 793.273 708.872 793.46 708.003 793.835C707.142 794.21 706.469 794.726 705.983 795.382C705.506 796.038 705.267 796.784 705.267 797.619C705.267 798.318 705.433 798.919 705.766 799.422C706.107 799.916 706.541 800.33 707.07 800.662C707.598 800.986 708.152 801.254 708.732 801.467C709.311 801.672 709.844 801.838 710.33 801.966L712.989 802.682C713.67 802.861 714.429 803.108 715.264 803.423C716.108 803.739 716.913 804.169 717.68 804.714C718.456 805.251 719.095 805.942 719.598 806.786C720.101 807.629 720.352 808.665 720.352 809.892C720.352 811.307 719.982 812.585 719.24 813.727C718.507 814.869 717.433 815.777 716.018 816.45C714.612 817.124 712.903 817.46 710.892 817.46C709.017 817.46 707.393 817.158 706.021 816.553C704.658 815.947 703.584 815.104 702.8 814.021C702.024 812.939 701.585 811.682 701.483 810.25H704.756C704.841 811.239 705.173 812.057 705.753 812.705C706.341 813.344 707.082 813.821 707.977 814.136C708.881 814.443 709.852 814.597 710.892 814.597C712.102 814.597 713.189 814.401 714.152 814.009C715.115 813.608 715.878 813.054 716.44 812.347C717.003 811.631 717.284 810.795 717.284 809.841C717.284 808.972 717.041 808.264 716.555 807.719C716.07 807.173 715.43 806.73 714.638 806.389C713.845 806.048 712.989 805.75 712.068 805.494L708.847 804.574C706.801 803.986 705.182 803.146 703.989 802.055C702.795 800.964 702.199 799.537 702.199 797.773C702.199 796.307 702.595 795.028 703.388 793.938C704.189 792.838 705.263 791.986 706.609 791.381C707.964 790.767 709.477 790.46 711.148 790.46C712.835 790.46 714.335 790.763 715.648 791.368C716.96 791.964 718 792.783 718.767 793.822C719.543 794.862 719.952 796.043 719.994 797.364H716.926ZM746.633 799H743.463C743.275 798.088 742.947 797.287 742.478 796.597C742.018 795.906 741.456 795.327 740.791 794.858C740.135 794.381 739.406 794.023 738.605 793.784C737.804 793.545 736.968 793.426 736.099 793.426C734.514 793.426 733.078 793.827 731.791 794.628C730.512 795.429 729.494 796.609 728.735 798.169C727.985 799.729 727.61 801.642 727.61 803.909C727.61 806.176 727.985 808.089 728.735 809.649C729.494 811.209 730.512 812.389 731.791 813.19C733.078 813.991 734.514 814.392 736.099 814.392C736.968 814.392 737.804 814.273 738.605 814.034C739.406 813.795 740.135 813.442 740.791 812.973C741.456 812.496 742.018 811.912 742.478 811.222C742.947 810.523 743.275 809.722 743.463 808.818H746.633C746.395 810.156 745.96 811.354 745.329 812.411C744.699 813.467 743.914 814.366 742.977 815.108C742.039 815.841 740.987 816.399 739.819 816.783C738.66 817.166 737.42 817.358 736.099 817.358C733.866 817.358 731.88 816.812 730.142 815.722C728.403 814.631 727.035 813.08 726.038 811.068C725.041 809.057 724.542 806.67 724.542 803.909C724.542 801.148 725.041 798.761 726.038 796.75C727.035 794.739 728.403 793.188 730.142 792.097C731.88 791.006 733.866 790.46 736.099 790.46C737.42 790.46 738.66 790.652 739.819 791.036C740.987 791.419 742.039 791.982 742.977 792.723C743.914 793.456 744.699 794.351 745.329 795.408C745.96 796.456 746.395 797.653 746.633 799ZM751.756 817V790.818H754.927V802.477H768.887V790.818H772.058V817H768.887V805.29H754.927V817H751.756ZM778.405 817V790.818H794.206V793.631H781.575V802.477H793.388V805.29H781.575V814.188H794.411V817H778.405ZM808 817H799.92V790.818H808.358C810.898 790.818 813.071 791.342 814.878 792.391C816.685 793.43 818.07 794.926 819.033 796.878C819.996 798.821 820.477 801.148 820.477 803.858C820.477 806.585 819.991 808.933 819.02 810.902C818.048 812.862 816.634 814.371 814.776 815.428C812.918 816.476 810.659 817 808 817ZM803.091 814.188H807.795C809.96 814.188 811.754 813.77 813.178 812.935C814.601 812.099 815.662 810.911 816.361 809.368C817.06 807.825 817.409 805.989 817.409 803.858C817.409 801.744 817.064 799.925 816.374 798.399C815.683 796.865 814.652 795.689 813.28 794.871C811.908 794.044 810.199 793.631 808.153 793.631H803.091V814.188ZM842.977 790.818H846.148V808.153C846.148 809.943 845.726 811.541 844.882 812.947C844.047 814.345 842.866 815.449 841.341 816.259C839.815 817.06 838.026 817.46 835.972 817.46C833.918 817.46 832.128 817.06 830.602 816.259C829.077 815.449 827.892 814.345 827.048 812.947C826.213 811.541 825.795 809.943 825.795 808.153V790.818H828.966V807.898C828.966 809.176 829.247 810.314 829.81 811.311C830.372 812.3 831.173 813.08 832.213 813.651C833.261 814.213 834.514 814.494 835.972 814.494C837.429 814.494 838.682 814.213 839.73 813.651C840.778 813.08 841.58 812.3 842.134 811.311C842.696 810.314 842.977 809.176 842.977 807.898V790.818ZM852.479 817V790.818H855.65V814.188H867.82V817H852.479ZM872.729 817V790.818H888.53V793.631H875.9V802.477H887.712V805.29H875.9V814.188H888.735V817H872.729Z" fill="#7596C7"/>
<path d="M108.358 124.909V138H106.773V124.909H108.358ZM111.332 138V128.182H112.789V129.716H112.917C113.122 129.192 113.452 128.785 113.908 128.495C114.364 128.201 114.911 128.054 115.551 128.054C116.198 128.054 116.737 128.201 117.168 128.495C117.602 128.785 117.941 129.192 118.184 129.716H118.286C118.538 129.209 118.915 128.806 119.418 128.508C119.921 128.205 120.524 128.054 121.227 128.054C122.105 128.054 122.823 128.329 123.381 128.879C123.939 129.424 124.218 130.274 124.218 131.429V138H122.71V131.429C122.71 130.705 122.512 130.187 122.115 129.876C121.719 129.565 121.252 129.409 120.715 129.409C120.025 129.409 119.49 129.618 119.111 130.036C118.732 130.449 118.542 130.973 118.542 131.608V138H117.008V131.276C117.008 130.717 116.827 130.268 116.465 129.927C116.102 129.582 115.636 129.409 115.065 129.409C114.673 129.409 114.306 129.513 113.965 129.722C113.629 129.931 113.356 130.221 113.147 130.592C112.943 130.958 112.84 131.382 112.84 131.864V138H111.332ZM129.866 138.23C129.243 138.23 128.679 138.113 128.172 137.879C127.665 137.64 127.262 137.297 126.964 136.849C126.665 136.398 126.516 135.852 126.516 135.213C126.516 134.651 126.627 134.195 126.849 133.845C127.07 133.491 127.366 133.214 127.737 133.014C128.108 132.814 128.517 132.665 128.964 132.567C129.416 132.464 129.87 132.384 130.326 132.324C130.922 132.247 131.406 132.19 131.777 132.151C132.152 132.109 132.425 132.038 132.595 131.94C132.77 131.842 132.857 131.672 132.857 131.429V131.378C132.857 130.747 132.684 130.257 132.339 129.908C131.998 129.558 131.481 129.384 130.786 129.384C130.066 129.384 129.501 129.541 129.092 129.857C128.683 130.172 128.395 130.509 128.229 130.866L126.797 130.355C127.053 129.759 127.394 129.294 127.82 128.962C128.251 128.625 128.719 128.391 129.226 128.259C129.738 128.122 130.241 128.054 130.735 128.054C131.05 128.054 131.412 128.092 131.822 128.169C132.235 128.241 132.633 128.393 133.017 128.623C133.405 128.853 133.726 129.2 133.982 129.665C134.238 130.129 134.366 130.751 134.366 131.531V138H132.857V136.67H132.78C132.678 136.884 132.508 137.112 132.269 137.354C132.03 137.597 131.713 137.804 131.317 137.974C130.92 138.145 130.437 138.23 129.866 138.23ZM130.096 136.875C130.692 136.875 131.195 136.758 131.604 136.523C132.018 136.289 132.329 135.987 132.537 135.616C132.751 135.245 132.857 134.855 132.857 134.446V133.065C132.793 133.142 132.653 133.212 132.435 133.276C132.222 133.336 131.975 133.389 131.694 133.436C131.417 133.479 131.146 133.517 130.882 133.551C130.622 133.581 130.411 133.607 130.249 133.628C129.857 133.679 129.491 133.762 129.15 133.877C128.813 133.988 128.54 134.156 128.331 134.382C128.127 134.604 128.025 134.906 128.025 135.29C128.025 135.814 128.219 136.21 128.606 136.479C128.998 136.743 129.495 136.875 130.096 136.875ZM141.082 141.886C140.353 141.886 139.727 141.793 139.203 141.605C138.679 141.422 138.242 141.179 137.892 140.876C137.547 140.578 137.272 140.259 137.068 139.918L138.27 139.074C138.406 139.253 138.578 139.457 138.787 139.688C138.996 139.922 139.282 140.124 139.644 140.295C140.01 140.469 140.49 140.557 141.082 140.557C141.875 140.557 142.529 140.365 143.044 139.982C143.56 139.598 143.818 138.997 143.818 138.179V136.185H143.69C143.579 136.364 143.422 136.585 143.217 136.849C143.017 137.109 142.727 137.342 142.348 137.546C141.973 137.746 141.466 137.847 140.826 137.847C140.034 137.847 139.322 137.659 138.691 137.284C138.065 136.909 137.569 136.364 137.202 135.648C136.84 134.932 136.659 134.062 136.659 133.04C136.659 132.034 136.836 131.158 137.189 130.413C137.543 129.663 138.035 129.083 138.666 128.674C139.297 128.261 140.025 128.054 140.852 128.054C141.491 128.054 141.998 128.161 142.373 128.374C142.752 128.582 143.042 128.821 143.243 129.089C143.447 129.354 143.605 129.571 143.716 129.741H143.869V128.182H145.326V138.281C145.326 139.125 145.135 139.811 144.751 140.339C144.372 140.872 143.86 141.262 143.217 141.509C142.578 141.761 141.866 141.886 141.082 141.886ZM141.031 136.491C141.636 136.491 142.147 136.353 142.565 136.076C142.983 135.799 143.3 135.401 143.517 134.881C143.735 134.361 143.843 133.739 143.843 133.014C143.843 132.307 143.737 131.683 143.524 131.141C143.311 130.6 142.995 130.176 142.578 129.869C142.16 129.562 141.645 129.409 141.031 129.409C140.392 129.409 139.859 129.571 139.433 129.895C139.011 130.219 138.694 130.653 138.48 131.199C138.272 131.744 138.167 132.349 138.167 133.014C138.167 133.696 138.274 134.299 138.487 134.823C138.704 135.343 139.024 135.752 139.446 136.05C139.872 136.344 140.4 136.491 141.031 136.491ZM152.204 138.205C151.258 138.205 150.442 137.996 149.756 137.578C149.074 137.156 148.548 136.568 148.177 135.814C147.811 135.055 147.627 134.173 147.627 133.168C147.627 132.162 147.811 131.276 148.177 130.509C148.548 129.737 149.064 129.136 149.724 128.706C150.389 128.271 151.164 128.054 152.051 128.054C152.562 128.054 153.067 128.139 153.566 128.31C154.064 128.48 154.518 128.757 154.927 129.141C155.336 129.52 155.662 130.023 155.905 130.649C156.148 131.276 156.27 132.047 156.27 132.963V133.602H148.701V132.298H154.735C154.735 131.744 154.625 131.25 154.403 130.815C154.186 130.381 153.875 130.038 153.47 129.786C153.069 129.535 152.596 129.409 152.051 129.409C151.45 129.409 150.93 129.558 150.491 129.857C150.056 130.151 149.722 130.534 149.488 131.007C149.253 131.48 149.136 131.987 149.136 132.528V133.398C149.136 134.139 149.264 134.768 149.52 135.283C149.779 135.795 150.14 136.185 150.6 136.453C151.06 136.717 151.595 136.849 152.204 136.849C152.6 136.849 152.958 136.794 153.278 136.683C153.602 136.568 153.881 136.398 154.115 136.172C154.35 135.942 154.531 135.656 154.659 135.315L156.116 135.724C155.963 136.219 155.705 136.653 155.343 137.028C154.98 137.399 154.533 137.689 154 137.898C153.468 138.102 152.869 138.205 152.204 138.205ZM210.979 124.909V138H209.394V124.909H210.979ZM218.223 128.182V129.46H213.135V128.182H218.223ZM214.618 125.83H216.126V135.188C216.126 135.614 216.188 135.933 216.312 136.146C216.439 136.355 216.601 136.496 216.797 136.568C216.998 136.636 217.209 136.67 217.43 136.67C217.596 136.67 217.733 136.662 217.839 136.645C217.946 136.624 218.031 136.607 218.095 136.594L218.402 137.949C218.3 137.987 218.157 138.026 217.974 138.064C217.79 138.107 217.558 138.128 217.277 138.128C216.851 138.128 216.433 138.036 216.024 137.853C215.619 137.67 215.282 137.391 215.014 137.016C214.75 136.641 214.618 136.168 214.618 135.597V125.83ZM224.503 138.205C223.557 138.205 222.741 137.996 222.055 137.578C221.373 137.156 220.847 136.568 220.476 135.814C220.11 135.055 219.926 134.173 219.926 133.168C219.926 132.162 220.11 131.276 220.476 130.509C220.847 129.737 221.362 129.136 222.023 128.706C222.688 128.271 223.463 128.054 224.35 128.054C224.861 128.054 225.366 128.139 225.865 128.31C226.363 128.48 226.817 128.757 227.226 129.141C227.635 129.52 227.961 130.023 228.204 130.649C228.447 131.276 228.568 132.047 228.568 132.963V133.602H221V132.298H227.034C227.034 131.744 226.923 131.25 226.702 130.815C226.485 130.381 226.173 130.038 225.769 129.786C225.368 129.535 224.895 129.409 224.35 129.409C223.749 129.409 223.229 129.558 222.79 129.857C222.355 130.151 222.021 130.534 221.786 131.007C221.552 131.48 221.435 131.987 221.435 132.528V133.398C221.435 134.139 221.563 134.768 221.818 135.283C222.078 135.795 222.438 136.185 222.899 136.453C223.359 136.717 223.894 136.849 224.503 136.849C224.899 136.849 225.257 136.794 225.577 136.683C225.901 136.568 226.18 136.398 226.414 136.172C226.649 135.942 226.83 135.656 226.958 135.315L228.415 135.724C228.262 136.219 228.004 136.653 227.642 137.028C227.279 137.399 226.832 137.689 226.299 137.898C225.767 138.102 225.168 138.205 224.503 138.205ZM230.863 138V128.182H232.32V129.716H232.448C232.653 129.192 232.983 128.785 233.439 128.495C233.895 128.201 234.443 128.054 235.082 128.054C235.73 128.054 236.269 128.201 236.699 128.495C237.134 128.785 237.472 129.192 237.715 129.716H237.818C238.069 129.209 238.446 128.806 238.949 128.508C239.452 128.205 240.055 128.054 240.758 128.054C241.636 128.054 242.354 128.329 242.912 128.879C243.47 129.424 243.749 130.274 243.749 131.429V138H242.241V131.429C242.241 130.705 242.043 130.187 241.646 129.876C241.25 129.565 240.784 129.409 240.247 129.409C239.556 129.409 239.021 129.618 238.642 130.036C238.263 130.449 238.073 130.973 238.073 131.608V138H236.539V131.276C236.539 130.717 236.358 130.268 235.996 129.927C235.634 129.582 235.167 129.409 234.596 129.409C234.204 129.409 233.838 129.513 233.497 129.722C233.16 129.931 232.887 130.221 232.678 130.592C232.474 130.958 232.372 131.382 232.372 131.864V138H230.863ZM346.939 138H342.9V124.909H347.118C348.388 124.909 349.475 125.171 350.378 125.695C351.282 126.215 351.974 126.963 352.456 127.939C352.937 128.911 353.178 130.074 353.178 131.429C353.178 132.793 352.935 133.967 352.449 134.951C351.964 135.931 351.256 136.685 350.327 137.214C349.398 137.738 348.269 138 346.939 138ZM344.485 136.594H346.837C347.92 136.594 348.817 136.385 349.528 135.967C350.24 135.55 350.77 134.955 351.12 134.184C351.469 133.413 351.644 132.494 351.644 131.429C351.644 130.372 351.471 129.462 351.126 128.7C350.781 127.933 350.265 127.344 349.579 126.935C348.893 126.522 348.039 126.315 347.016 126.315H344.485V136.594ZM359.749 138.205C358.803 138.205 357.987 137.996 357.301 137.578C356.619 137.156 356.093 136.568 355.722 135.814C355.356 135.055 355.172 134.173 355.172 133.168C355.172 132.162 355.356 131.276 355.722 130.509C356.093 129.737 356.608 129.136 357.269 128.706C357.934 128.271 358.709 128.054 359.596 128.054C360.107 128.054 360.612 128.139 361.111 128.31C361.609 128.48 362.063 128.757 362.472 129.141C362.881 129.52 363.207 130.023 363.45 130.649C363.693 131.276 363.814 132.047 363.814 132.963V133.602H356.246V132.298H362.28C362.28 131.744 362.17 131.25 361.948 130.815C361.731 130.381 361.42 130.038 361.015 129.786C360.614 129.535 360.141 129.409 359.596 129.409C358.995 129.409 358.475 129.558 358.036 129.857C357.601 130.151 357.267 130.534 357.032 131.007C356.798 131.48 356.681 131.987 356.681 132.528V133.398C356.681 134.139 356.809 134.768 357.064 135.283C357.324 135.795 357.684 136.185 358.145 136.453C358.605 136.717 359.14 136.849 359.749 136.849C360.145 136.849 360.503 136.794 360.823 136.683C361.147 136.568 361.426 136.398 361.66 136.172C361.895 135.942 362.076 135.656 362.204 135.315L363.661 135.724C363.508 136.219 363.25 136.653 362.888 137.028C362.525 137.399 362.078 137.689 361.545 137.898C361.013 138.102 360.414 138.205 359.749 138.205ZM373.064 130.381L371.709 130.764C371.623 130.538 371.498 130.319 371.331 130.106C371.17 129.888 370.948 129.71 370.667 129.569C370.385 129.428 370.025 129.358 369.586 129.358C368.986 129.358 368.485 129.496 368.084 129.773C367.688 130.046 367.49 130.393 367.49 130.815C367.49 131.19 367.626 131.487 367.899 131.704C368.172 131.921 368.598 132.102 369.177 132.247L370.635 132.605C371.513 132.818 372.167 133.144 372.597 133.583C373.028 134.018 373.243 134.578 373.243 135.264C373.243 135.827 373.081 136.33 372.757 136.773C372.437 137.216 371.99 137.565 371.415 137.821C370.839 138.077 370.17 138.205 369.407 138.205C368.406 138.205 367.577 137.987 366.921 137.553C366.265 137.118 365.849 136.483 365.675 135.648L367.106 135.29C367.243 135.818 367.501 136.214 367.88 136.479C368.263 136.743 368.764 136.875 369.382 136.875C370.085 136.875 370.643 136.726 371.057 136.428C371.474 136.125 371.683 135.763 371.683 135.341C371.683 135 371.564 134.714 371.325 134.484C371.086 134.25 370.72 134.075 370.226 133.96L368.589 133.577C367.69 133.364 367.03 133.033 366.608 132.586C366.19 132.134 365.981 131.57 365.981 130.892C365.981 130.338 366.137 129.848 366.448 129.422C366.763 128.996 367.192 128.661 367.733 128.418C368.278 128.175 368.896 128.054 369.586 128.054C370.558 128.054 371.321 128.267 371.875 128.693C372.433 129.119 372.829 129.682 373.064 130.381ZM379.502 138.205C378.582 138.205 377.789 137.987 377.124 137.553C376.46 137.118 375.948 136.519 375.59 135.756C375.232 134.994 375.053 134.122 375.053 133.142C375.053 132.145 375.237 131.265 375.603 130.502C375.974 129.735 376.489 129.136 377.15 128.706C377.815 128.271 378.59 128.054 379.477 128.054C380.167 128.054 380.789 128.182 381.343 128.438C381.897 128.693 382.351 129.051 382.705 129.511C383.058 129.972 383.278 130.509 383.363 131.122H381.854C381.739 130.675 381.484 130.278 381.087 129.933C380.695 129.584 380.167 129.409 379.502 129.409C378.914 129.409 378.398 129.562 377.955 129.869C377.516 130.172 377.173 130.6 376.926 131.154C376.683 131.704 376.562 132.349 376.562 133.091C376.562 133.849 376.681 134.51 376.92 135.072C377.163 135.635 377.504 136.072 377.942 136.383C378.386 136.694 378.906 136.849 379.502 136.849C379.894 136.849 380.25 136.781 380.57 136.645C380.889 136.509 381.16 136.312 381.381 136.057C381.603 135.801 381.761 135.494 381.854 135.136H383.363C383.278 135.716 383.067 136.238 382.73 136.702C382.398 137.163 381.957 137.529 381.407 137.802C380.862 138.07 380.227 138.205 379.502 138.205ZM385.568 138V128.182H387.026V129.665H387.128C387.307 129.179 387.631 128.785 388.099 128.482C388.568 128.18 389.097 128.028 389.685 128.028C389.795 128.028 389.934 128.031 390.1 128.035C390.266 128.039 390.392 128.045 390.477 128.054V129.588C390.426 129.575 390.309 129.556 390.126 129.531C389.947 129.501 389.757 129.486 389.557 129.486C389.08 129.486 388.653 129.586 388.278 129.786C387.908 129.982 387.614 130.255 387.396 130.604C387.183 130.95 387.077 131.344 387.077 131.787V138H385.568ZM392.265 138V128.182H393.774V138H392.265ZM393.032 126.545C392.738 126.545 392.485 126.445 392.272 126.245C392.063 126.045 391.959 125.804 391.959 125.523C391.959 125.241 392.063 125.001 392.272 124.8C392.485 124.6 392.738 124.5 393.032 124.5C393.327 124.5 393.578 124.6 393.787 124.8C394 125.001 394.106 125.241 394.106 125.523C394.106 125.804 394 126.045 393.787 126.245C393.578 126.445 393.327 126.545 393.032 126.545ZM396.537 141.682V128.182H397.994V129.741H398.173C398.284 129.571 398.438 129.354 398.634 129.089C398.834 128.821 399.119 128.582 399.49 128.374C399.865 128.161 400.372 128.054 401.011 128.054C401.838 128.054 402.567 128.261 403.197 128.674C403.828 129.087 404.32 129.673 404.674 130.432C405.028 131.19 405.205 132.085 405.205 133.116C405.205 134.156 405.028 135.058 404.674 135.82C404.32 136.579 403.83 137.167 403.204 137.585C402.577 137.998 401.855 138.205 401.037 138.205C400.406 138.205 399.901 138.1 399.522 137.891C399.143 137.678 398.851 137.437 398.646 137.169C398.442 136.896 398.284 136.67 398.173 136.491H398.045V141.682H396.537ZM398.02 133.091C398.02 133.832 398.129 134.487 398.346 135.053C398.563 135.616 398.881 136.057 399.298 136.376C399.716 136.692 400.227 136.849 400.832 136.849C401.463 136.849 401.989 136.683 402.411 136.351C402.837 136.014 403.157 135.562 403.37 134.996C403.587 134.425 403.696 133.79 403.696 133.091C403.696 132.401 403.589 131.778 403.376 131.224C403.168 130.666 402.85 130.225 402.424 129.901C402.002 129.573 401.472 129.409 400.832 129.409C400.219 129.409 399.703 129.565 399.286 129.876C398.868 130.183 398.553 130.613 398.339 131.167C398.126 131.717 398.02 132.358 398.02 133.091ZM411.776 128.182V129.46H406.688V128.182H411.776ZM408.17 125.83H409.679V135.188C409.679 135.614 409.741 135.933 409.864 136.146C409.992 136.355 410.154 136.496 410.35 136.568C410.55 136.636 410.761 136.67 410.983 136.67C411.149 136.67 411.286 136.662 411.392 136.645C411.499 136.624 411.584 136.607 411.648 136.594L411.955 137.949C411.852 137.987 411.71 138.026 411.526 138.064C411.343 138.107 411.111 138.128 410.83 138.128C410.403 138.128 409.986 138.036 409.577 137.853C409.172 137.67 408.835 137.391 408.567 137.016C408.303 136.641 408.17 136.168 408.17 135.597V125.83ZM414.045 138V128.182H415.553V138H414.045ZM414.812 126.545C414.518 126.545 414.264 126.445 414.051 126.245C413.842 126.045 413.738 125.804 413.738 125.523C413.738 125.241 413.842 125.001 414.051 124.8C414.264 124.6 414.518 124.5 414.812 124.5C415.106 124.5 415.357 124.6 415.566 124.8C415.779 125.001 415.886 125.241 415.886 125.523C415.886 125.804 415.779 126.045 415.566 126.245C415.357 126.445 415.106 126.545 414.812 126.545ZM422.305 138.205C421.419 138.205 420.641 137.994 419.972 137.572C419.307 137.15 418.787 136.56 418.412 135.801C418.041 135.043 417.856 134.156 417.856 133.142C417.856 132.119 418.041 131.227 418.412 130.464C418.787 129.701 419.307 129.109 419.972 128.687C420.641 128.265 421.419 128.054 422.305 128.054C423.191 128.054 423.967 128.265 424.632 128.687C425.301 129.109 425.82 129.701 426.191 130.464C426.566 131.227 426.754 132.119 426.754 133.142C426.754 134.156 426.566 135.043 426.191 135.801C425.82 136.56 425.301 137.15 424.632 137.572C423.967 137.994 423.191 138.205 422.305 138.205ZM422.305 136.849C422.978 136.849 423.532 136.677 423.967 136.332C424.401 135.987 424.723 135.533 424.932 134.97C425.141 134.408 425.245 133.798 425.245 133.142C425.245 132.486 425.141 131.874 424.932 131.308C424.723 130.741 424.401 130.283 423.967 129.933C423.532 129.584 422.978 129.409 422.305 129.409C421.632 129.409 421.078 129.584 420.643 129.933C420.208 130.283 419.887 130.741 419.678 131.308C419.469 131.874 419.365 132.486 419.365 133.142C419.365 133.798 419.469 134.408 419.678 134.97C419.887 135.533 420.208 135.987 420.643 136.332C421.078 136.677 421.632 136.849 422.305 136.849ZM430.565 132.094V138H429.056V128.182H430.514V129.716H430.642C430.872 129.217 431.221 128.817 431.69 128.514C432.159 128.207 432.764 128.054 433.505 128.054C434.17 128.054 434.752 128.19 435.25 128.463C435.749 128.732 436.137 129.141 436.414 129.69C436.691 130.236 436.829 130.926 436.829 131.761V138H435.321V131.864C435.321 131.092 435.12 130.491 434.72 130.061C434.319 129.626 433.77 129.409 433.071 129.409C432.589 129.409 432.159 129.513 431.779 129.722C431.404 129.931 431.108 130.236 430.891 130.636C430.674 131.037 430.565 131.523 430.565 132.094ZM561.29 138V124.909H569.14V126.315H562.876V130.739H568.552V132.145H562.876V138H561.29ZM571.65 138V128.182H573.159V138H571.65ZM572.417 126.545C572.123 126.545 571.87 126.445 571.657 126.245C571.448 126.045 571.343 125.804 571.343 125.523C571.343 125.241 571.448 125.001 571.657 124.8C571.87 124.6 572.123 124.5 572.417 124.5C572.711 124.5 572.963 124.6 573.172 124.8C573.385 125.001 573.491 125.241 573.491 125.523C573.491 125.804 573.385 126.045 573.172 126.245C572.963 126.445 572.711 126.545 572.417 126.545ZM577.43 132.094V138H575.922V128.182H577.379V129.716H577.507C577.737 129.217 578.086 128.817 578.555 128.514C579.024 128.207 579.629 128.054 580.371 128.054C581.035 128.054 581.617 128.19 582.116 128.463C582.614 128.732 583.002 129.141 583.279 129.69C583.556 130.236 583.694 130.926 583.694 131.761V138H582.186V131.864C582.186 131.092 581.986 130.491 581.585 130.061C581.184 129.626 580.635 129.409 579.936 129.409C579.454 129.409 579.024 129.513 578.645 129.722C578.27 129.931 577.974 130.236 577.756 130.636C577.539 131.037 577.43 131.523 577.43 132.094ZM586.451 138V128.182H587.96V138H586.451ZM587.218 126.545C586.924 126.545 586.67 126.445 586.457 126.245C586.249 126.045 586.144 125.804 586.144 125.523C586.144 125.241 586.249 125.001 586.457 124.8C586.67 124.6 586.924 124.5 587.218 124.5C587.512 124.5 587.763 124.6 587.972 124.8C588.185 125.001 588.292 125.241 588.292 125.523C588.292 125.804 588.185 126.045 587.972 126.245C587.763 126.445 587.512 126.545 587.218 126.545ZM597.677 130.381L596.322 130.764C596.237 130.538 596.111 130.319 595.945 130.106C595.783 129.888 595.561 129.71 595.28 129.569C594.999 129.428 594.639 129.358 594.2 129.358C593.599 129.358 593.098 129.496 592.698 129.773C592.301 130.046 592.103 130.393 592.103 130.815C592.103 131.19 592.24 131.487 592.512 131.704C592.785 131.921 593.211 132.102 593.791 132.247L595.248 132.605C596.126 132.818 596.78 133.144 597.21 133.583C597.641 134.018 597.856 134.578 597.856 135.264C597.856 135.827 597.694 136.33 597.37 136.773C597.051 137.216 596.603 137.565 596.028 137.821C595.453 138.077 594.784 138.205 594.021 138.205C593.019 138.205 592.191 137.987 591.534 137.553C590.878 137.118 590.463 136.483 590.288 135.648L591.72 135.29C591.856 135.818 592.114 136.214 592.493 136.479C592.877 136.743 593.377 136.875 593.995 136.875C594.698 136.875 595.257 136.726 595.67 136.428C596.088 136.125 596.296 135.763 596.296 135.341C596.296 135 596.177 134.714 595.938 134.484C595.7 134.25 595.333 134.075 594.839 133.96L593.203 133.577C592.303 133.364 591.643 133.033 591.221 132.586C590.803 132.134 590.595 131.57 590.595 130.892C590.595 130.338 590.75 129.848 591.061 129.422C591.377 128.996 591.805 128.661 592.346 128.418C592.892 128.175 593.509 128.054 594.2 128.054C595.171 128.054 595.934 128.267 596.488 128.693C597.046 129.119 597.443 129.682 597.677 130.381ZM601.635 132.094V138H600.127V124.909H601.635V129.716H601.763C601.993 129.209 602.338 128.806 602.799 128.508C603.263 128.205 603.881 128.054 604.652 128.054C605.321 128.054 605.907 128.188 606.41 128.457C606.913 128.721 607.303 129.128 607.58 129.678C607.861 130.223 608.002 130.918 608.002 131.761V138H606.493V131.864C606.493 131.084 606.291 130.481 605.886 130.055C605.485 129.624 604.929 129.409 604.218 129.409C603.723 129.409 603.28 129.513 602.888 129.722C602.5 129.931 602.194 130.236 601.968 130.636C601.746 131.037 601.635 131.523 601.635 132.094ZM694.063 128.182C693.986 127.534 693.675 127.031 693.129 126.673C692.584 126.315 691.915 126.136 691.122 126.136C690.543 126.136 690.036 126.23 689.601 126.418C689.171 126.605 688.834 126.863 688.591 127.191C688.352 127.519 688.233 127.892 688.233 128.31C688.233 128.659 688.316 128.96 688.482 129.211C688.653 129.458 688.87 129.665 689.134 129.831C689.399 129.993 689.676 130.127 689.965 130.234C690.255 130.336 690.521 130.419 690.764 130.483L692.094 130.841C692.435 130.93 692.814 131.054 693.232 131.212C693.654 131.369 694.056 131.585 694.44 131.857C694.828 132.126 695.147 132.471 695.399 132.893C695.65 133.315 695.776 133.832 695.776 134.446C695.776 135.153 695.59 135.793 695.22 136.364C694.853 136.935 694.316 137.388 693.609 137.725C692.906 138.062 692.051 138.23 691.046 138.23C690.108 138.23 689.296 138.079 688.61 137.776C687.928 137.474 687.392 137.052 686.999 136.511C686.612 135.969 686.392 135.341 686.341 134.625H687.977C688.02 135.119 688.186 135.528 688.476 135.852C688.77 136.172 689.141 136.411 689.588 136.568C690.04 136.722 690.526 136.798 691.046 136.798C691.651 136.798 692.194 136.7 692.676 136.504C693.157 136.304 693.539 136.027 693.82 135.673C694.101 135.315 694.242 134.898 694.242 134.42C694.242 133.986 694.12 133.632 693.877 133.359C693.634 133.087 693.315 132.865 692.919 132.695C692.522 132.524 692.094 132.375 691.634 132.247L690.023 131.787C689 131.493 688.191 131.073 687.594 130.528C686.997 129.982 686.699 129.268 686.699 128.386C686.699 127.653 686.897 127.014 687.294 126.469C687.694 125.919 688.231 125.493 688.904 125.19C689.582 124.884 690.338 124.73 691.173 124.73C692.017 124.73 692.767 124.881 693.423 125.184C694.08 125.482 694.6 125.891 694.983 126.411C695.371 126.931 695.575 127.521 695.597 128.182H694.063ZM698.178 138V128.182H699.686V138H698.178ZM698.945 126.545C698.651 126.545 698.397 126.445 698.184 126.245C697.975 126.045 697.871 125.804 697.871 125.523C697.871 125.241 697.975 125.001 698.184 124.8C698.397 124.6 698.651 124.5 698.945 124.5C699.239 124.5 699.49 124.6 699.699 124.8C699.912 125.001 700.018 125.241 700.018 125.523C700.018 125.804 699.912 126.045 699.699 126.245C699.49 126.445 699.239 126.545 698.945 126.545ZM702.168 138V136.849L707.742 129.69V129.588H702.347V128.182H709.685V129.384L704.264 136.491V136.594H709.864V138H702.168ZM716.023 138.205C715.077 138.205 714.26 137.996 713.574 137.578C712.893 137.156 712.366 136.568 711.996 135.814C711.629 135.055 711.446 134.173 711.446 133.168C711.446 132.162 711.629 131.276 711.996 130.509C712.366 129.737 712.882 129.136 713.542 128.706C714.207 128.271 714.983 128.054 715.869 128.054C716.381 128.054 716.885 128.139 717.384 128.31C717.883 128.48 718.336 128.757 718.746 129.141C719.155 129.52 719.481 130.023 719.724 130.649C719.966 131.276 720.088 132.047 720.088 132.963V133.602H712.52V132.298H718.554C718.554 131.744 718.443 131.25 718.221 130.815C718.004 130.381 717.693 130.038 717.288 129.786C716.888 129.535 716.415 129.409 715.869 129.409C715.268 129.409 714.748 129.558 714.309 129.857C713.875 130.151 713.54 130.534 713.306 131.007C713.072 131.48 712.954 131.987 712.954 132.528V133.398C712.954 134.139 713.082 134.768 713.338 135.283C713.598 135.795 713.958 136.185 714.418 136.453C714.878 136.717 715.413 136.849 716.023 136.849C716.419 136.849 716.777 136.794 717.096 136.683C717.42 136.568 717.699 136.398 717.934 136.172C718.168 135.942 718.349 135.656 718.477 135.315L719.934 135.724C719.781 136.219 719.523 136.653 719.161 137.028C718.799 137.399 718.351 137.689 717.819 137.898C717.286 138.102 716.687 138.205 716.023 138.205ZM810.746 128.182C810.67 127.534 810.358 127.031 809.813 126.673C809.268 126.315 808.599 126.136 807.806 126.136C807.226 126.136 806.719 126.23 806.285 126.418C805.854 126.605 805.518 126.863 805.275 127.191C805.036 127.519 804.917 127.892 804.917 128.31C804.917 128.659 805 128.96 805.166 129.211C805.336 129.458 805.554 129.665 805.818 129.831C806.082 129.993 806.359 130.127 806.649 130.234C806.939 130.336 807.205 130.419 807.448 130.483L808.778 130.841C809.118 130.93 809.498 131.054 809.915 131.212C810.337 131.369 810.74 131.585 811.123 131.857C811.511 132.126 811.831 132.471 812.082 132.893C812.334 133.315 812.459 133.832 812.459 134.446C812.459 135.153 812.274 135.793 811.903 136.364C811.537 136.935 811 137.388 810.292 137.725C809.589 138.062 808.735 138.23 807.729 138.23C806.792 138.23 805.98 138.079 805.294 137.776C804.612 137.474 804.075 137.052 803.683 136.511C803.295 135.969 803.076 135.341 803.025 134.625H804.661C804.704 135.119 804.87 135.528 805.16 135.852C805.454 136.172 805.824 136.411 806.272 136.568C806.724 136.722 807.209 136.798 807.729 136.798C808.334 136.798 808.878 136.7 809.359 136.504C809.841 136.304 810.222 136.027 810.503 135.673C810.785 135.315 810.925 134.898 810.925 134.42C810.925 133.986 810.804 133.632 810.561 133.359C810.318 133.087 809.998 132.865 809.602 132.695C809.206 132.524 808.778 132.375 808.317 132.247L806.706 131.787C805.684 131.493 804.874 131.073 804.278 130.528C803.681 129.982 803.383 129.268 803.383 128.386C803.383 127.653 803.581 127.014 803.977 126.469C804.378 125.919 804.915 125.493 805.588 125.19C806.265 124.884 807.022 124.73 807.857 124.73C808.701 124.73 809.451 124.881 810.107 125.184C810.763 125.482 811.283 125.891 811.667 126.411C812.055 126.931 812.259 127.521 812.28 128.182H810.746ZM821.049 133.986V128.182H822.557V138H821.049V136.338H820.946C820.716 136.837 820.358 137.261 819.873 137.61C819.387 137.955 818.773 138.128 818.032 138.128C817.418 138.128 816.873 137.994 816.395 137.725C815.918 137.452 815.543 137.043 815.27 136.498C814.998 135.948 814.861 135.256 814.861 134.42V128.182H816.37V134.318C816.37 135.034 816.57 135.605 816.971 136.031C817.375 136.457 817.891 136.67 818.517 136.67C818.892 136.67 819.274 136.575 819.662 136.383C820.054 136.191 820.382 135.897 820.646 135.501C820.914 135.104 821.049 134.599 821.049 133.986ZM825.32 141.682V128.182H826.778V129.741H826.956C827.067 129.571 827.221 129.354 827.417 129.089C827.617 128.821 827.903 128.582 828.273 128.374C828.648 128.161 829.155 128.054 829.795 128.054C830.621 128.054 831.35 128.261 831.981 128.674C832.611 129.087 833.104 129.673 833.457 130.432C833.811 131.19 833.988 132.085 833.988 133.116C833.988 134.156 833.811 135.058 833.457 135.82C833.104 136.579 832.613 137.167 831.987 137.585C831.361 137.998 830.638 138.205 829.82 138.205C829.189 138.205 828.684 138.1 828.305 137.891C827.926 137.678 827.634 137.437 827.43 137.169C827.225 136.896 827.067 136.67 826.956 136.491H826.829V141.682H825.32ZM826.803 133.091C826.803 133.832 826.912 134.487 827.129 135.053C827.346 135.616 827.664 136.057 828.081 136.376C828.499 136.692 829.01 136.849 829.616 136.849C830.246 136.849 830.773 136.683 831.194 136.351C831.621 136.014 831.94 135.562 832.153 134.996C832.371 134.425 832.479 133.79 832.479 133.091C832.479 132.401 832.373 131.778 832.16 131.224C831.951 130.666 831.633 130.225 831.207 129.901C830.785 129.573 830.255 129.409 829.616 129.409C829.002 129.409 828.486 129.565 828.069 129.876C827.651 130.183 827.336 130.613 827.123 131.167C826.91 131.717 826.803 132.358 826.803 133.091ZM836.289 141.682V128.182H837.746V129.741H837.925C838.036 129.571 838.189 129.354 838.385 129.089C838.586 128.821 838.871 128.582 839.242 128.374C839.617 128.161 840.124 128.054 840.763 128.054C841.59 128.054 842.319 128.261 842.949 128.674C843.58 129.087 844.072 129.673 844.426 130.432C844.78 131.19 844.956 132.085 844.956 133.116C844.956 134.156 844.78 135.058 844.426 135.82C844.072 136.579 843.582 137.167 842.956 137.585C842.329 137.998 841.607 138.205 840.789 138.205C840.158 138.205 839.653 138.1 839.274 137.891C838.895 137.678 838.603 137.437 838.398 137.169C838.194 136.896 838.036 136.67 837.925 136.491H837.797V141.682H836.289ZM837.772 133.091C837.772 133.832 837.881 134.487 838.098 135.053C838.315 135.616 838.633 136.057 839.05 136.376C839.468 136.692 839.979 136.849 840.584 136.849C841.215 136.849 841.741 136.683 842.163 136.351C842.589 136.014 842.909 135.562 843.122 134.996C843.339 134.425 843.448 133.79 843.448 133.091C843.448 132.401 843.341 131.778 843.128 131.224C842.92 130.666 842.602 130.225 842.176 129.901C841.754 129.573 841.224 129.409 840.584 129.409C839.971 129.409 839.455 129.565 839.037 129.876C838.62 130.183 838.305 130.613 838.091 131.167C837.878 131.717 837.772 132.358 837.772 133.091ZM848.766 124.909V138H847.258V124.909H848.766ZM851.529 138V128.182H853.038V138H851.529ZM852.296 126.545C852.002 126.545 851.749 126.445 851.536 126.245C851.327 126.045 851.222 125.804 851.222 125.523C851.222 125.241 851.327 125.001 851.536 124.8C851.749 124.6 852.002 124.5 852.296 124.5C852.59 124.5 852.842 124.6 853.05 124.8C853.263 125.001 853.37 125.241 853.37 125.523C853.37 125.804 853.263 126.045 853.05 126.245C852.842 126.445 852.59 126.545 852.296 126.545ZM859.917 138.205C858.971 138.205 858.155 137.996 857.469 137.578C856.787 137.156 856.261 136.568 855.89 135.814C855.524 135.055 855.34 134.173 855.34 133.168C855.34 132.162 855.524 131.276 855.89 130.509C856.261 129.737 856.776 129.136 857.437 128.706C858.102 128.271 858.877 128.054 859.764 128.054C860.275 128.054 860.78 128.139 861.279 128.31C861.777 128.48 862.231 128.757 862.64 129.141C863.049 129.52 863.375 130.023 863.618 130.649C863.861 131.276 863.982 132.047 863.982 132.963V133.602H856.414V132.298H862.448C862.448 131.744 862.338 131.25 862.116 130.815C861.899 130.381 861.588 130.038 861.183 129.786C860.782 129.535 860.309 129.409 859.764 129.409C859.163 129.409 858.643 129.558 858.204 129.857C857.769 130.151 857.435 130.534 857.2 131.007C856.966 131.48 856.849 131.987 856.849 132.528V133.398C856.849 134.139 856.977 134.768 857.232 135.283C857.492 135.795 857.852 136.185 858.313 136.453C858.773 136.717 859.308 136.849 859.917 136.849C860.313 136.849 860.671 136.794 860.991 136.683C861.315 136.568 861.594 136.398 861.828 136.172C862.063 135.942 862.244 135.656 862.372 135.315L863.829 135.724C863.676 136.219 863.418 136.653 863.056 137.028C862.693 137.399 862.246 137.689 861.713 137.898C861.181 138.102 860.582 138.205 859.917 138.205ZM866.277 138V128.182H867.735V129.665H867.837C868.016 129.179 868.34 128.785 868.808 128.482C869.277 128.18 869.806 128.028 870.394 128.028C870.504 128.028 870.643 128.031 870.809 128.035C870.975 128.039 871.101 128.045 871.186 128.054V129.588C871.135 129.575 871.018 129.556 870.835 129.531C870.656 129.501 870.466 129.486 870.266 129.486C869.789 129.486 869.362 129.586 868.987 129.786C868.617 129.982 868.323 130.255 868.105 130.604C867.892 130.95 867.786 131.344 867.786 131.787V138H866.277ZM944.463 129H942.878C942.784 128.544 942.62 128.143 942.386 127.798C942.156 127.453 941.874 127.163 941.542 126.929C941.214 126.69 940.849 126.511 940.449 126.392C940.048 126.273 939.631 126.213 939.196 126.213C938.403 126.213 937.685 126.413 937.042 126.814C936.403 127.214 935.893 127.805 935.514 128.585C935.139 129.364 934.952 130.321 934.952 131.455C934.952 132.588 935.139 133.545 935.514 134.325C935.893 135.104 936.403 135.695 937.042 136.095C937.685 136.496 938.403 136.696 939.196 136.696C939.631 136.696 940.048 136.636 940.449 136.517C940.849 136.398 941.214 136.221 941.542 135.987C941.874 135.748 942.156 135.456 942.386 135.111C942.62 134.761 942.784 134.361 942.878 133.909H944.463C944.344 134.578 944.126 135.177 943.811 135.705C943.496 136.234 943.104 136.683 942.635 137.054C942.166 137.42 941.64 137.7 941.056 137.891C940.477 138.083 939.857 138.179 939.196 138.179C938.08 138.179 937.087 137.906 936.217 137.361C935.348 136.815 934.664 136.04 934.165 135.034C933.667 134.028 933.418 132.835 933.418 131.455C933.418 130.074 933.667 128.881 934.165 127.875C934.664 126.869 935.348 126.094 936.217 125.548C937.087 125.003 938.08 124.73 939.196 124.73C939.857 124.73 940.477 124.826 941.056 125.018C941.64 125.21 942.166 125.491 942.635 125.862C943.104 126.228 943.496 126.675 943.811 127.204C944.126 127.728 944.344 128.327 944.463 129ZM950.809 138.205C949.922 138.205 949.145 137.994 948.476 137.572C947.811 137.15 947.291 136.56 946.916 135.801C946.545 135.043 946.36 134.156 946.36 133.142C946.36 132.119 946.545 131.227 946.916 130.464C947.291 129.701 947.811 129.109 948.476 128.687C949.145 128.265 949.922 128.054 950.809 128.054C951.695 128.054 952.471 128.265 953.135 128.687C953.805 129.109 954.324 129.701 954.695 130.464C955.07 131.227 955.258 132.119 955.258 133.142C955.258 134.156 955.07 135.043 954.695 135.801C954.324 136.56 953.805 137.15 953.135 137.572C952.471 137.994 951.695 138.205 950.809 138.205ZM950.809 136.849C951.482 136.849 952.036 136.677 952.471 136.332C952.905 135.987 953.227 135.533 953.436 134.97C953.645 134.408 953.749 133.798 953.749 133.142C953.749 132.486 953.645 131.874 953.436 131.308C953.227 130.741 952.905 130.283 952.471 129.933C952.036 129.584 951.482 129.409 950.809 129.409C950.135 129.409 949.581 129.584 949.147 129.933C948.712 130.283 948.39 130.741 948.182 131.308C947.973 131.874 947.868 132.486 947.868 133.142C947.868 133.798 947.973 134.408 948.182 134.97C948.39 135.533 948.712 135.987 949.147 136.332C949.581 136.677 950.135 136.849 950.809 136.849ZM959.069 132.094V138H957.56V128.182H959.018V129.716H959.146C959.376 129.217 959.725 128.817 960.194 128.514C960.663 128.207 961.268 128.054 962.009 128.054C962.674 128.054 963.256 128.19 963.754 128.463C964.253 128.732 964.641 129.141 964.918 129.69C965.195 130.236 965.333 130.926 965.333 131.761V138H963.825V131.864C963.825 131.092 963.624 130.491 963.224 130.061C962.823 129.626 962.273 129.409 961.575 129.409C961.093 129.409 960.663 129.513 960.283 129.722C959.908 129.931 959.612 130.236 959.395 130.636C959.178 131.037 959.069 131.523 959.069 132.094ZM972.36 128.182V129.46H967.271V128.182H972.36ZM968.754 125.83H970.263V135.188C970.263 135.614 970.325 135.933 970.448 136.146C970.576 136.355 970.738 136.496 970.934 136.568C971.134 136.636 971.345 136.67 971.567 136.67C971.733 136.67 971.869 136.662 971.976 136.645C972.083 136.624 972.168 136.607 972.232 136.594L972.539 137.949C972.436 137.987 972.294 138.026 972.11 138.064C971.927 138.107 971.695 138.128 971.414 138.128C970.987 138.128 970.57 138.036 970.161 137.853C969.756 137.67 969.419 137.391 969.151 137.016C968.887 136.641 968.754 136.168 968.754 135.597V125.83ZM977.518 138.23C976.896 138.23 976.331 138.113 975.824 137.879C975.317 137.64 974.914 137.297 974.616 136.849C974.318 136.398 974.169 135.852 974.169 135.213C974.169 134.651 974.279 134.195 974.501 133.845C974.722 133.491 975.019 133.214 975.389 133.014C975.76 132.814 976.169 132.665 976.617 132.567C977.068 132.464 977.522 132.384 977.978 132.324C978.575 132.247 979.058 132.19 979.429 132.151C979.804 132.109 980.077 132.038 980.247 131.94C980.422 131.842 980.509 131.672 980.509 131.429V131.378C980.509 130.747 980.337 130.257 979.992 129.908C979.651 129.558 979.133 129.384 978.438 129.384C977.718 129.384 977.154 129.541 976.744 129.857C976.335 130.172 976.048 130.509 975.882 130.866L974.45 130.355C974.705 129.759 975.046 129.294 975.472 128.962C975.903 128.625 976.372 128.391 976.879 128.259C977.39 128.122 977.893 128.054 978.387 128.054C978.703 128.054 979.065 128.092 979.474 128.169C979.887 128.241 980.286 128.393 980.669 128.623C981.057 128.853 981.379 129.2 981.634 129.665C981.89 130.129 982.018 130.751 982.018 131.531V138H980.509V136.67H980.433C980.33 136.884 980.16 137.112 979.921 137.354C979.683 137.597 979.365 137.804 978.969 137.974C978.573 138.145 978.089 138.23 977.518 138.23ZM977.748 136.875C978.345 136.875 978.847 136.758 979.257 136.523C979.67 136.289 979.981 135.987 980.19 135.616C980.403 135.245 980.509 134.855 980.509 134.446V133.065C980.445 133.142 980.305 133.212 980.088 133.276C979.874 133.336 979.627 133.389 979.346 133.436C979.069 133.479 978.798 133.517 978.534 133.551C978.274 133.581 978.063 133.607 977.901 133.628C977.509 133.679 977.143 133.762 976.802 133.877C976.465 133.988 976.193 134.156 975.984 134.382C975.779 134.604 975.677 134.906 975.677 135.29C975.677 135.814 975.871 136.21 976.259 136.479C976.651 136.743 977.147 136.875 977.748 136.875ZM988.76 138.205C987.839 138.205 987.047 137.987 986.382 137.553C985.717 137.118 985.206 136.519 984.848 135.756C984.49 134.994 984.311 134.122 984.311 133.142C984.311 132.145 984.494 131.265 984.861 130.502C985.232 129.735 985.747 129.136 986.408 128.706C987.072 128.271 987.848 128.054 988.734 128.054C989.425 128.054 990.047 128.182 990.601 128.438C991.155 128.693 991.609 129.051 991.962 129.511C992.316 129.972 992.536 130.509 992.621 131.122H991.112C990.997 130.675 990.741 130.278 990.345 129.933C989.953 129.584 989.425 129.409 988.76 129.409C988.172 129.409 987.656 129.562 987.213 129.869C986.774 130.172 986.431 130.6 986.184 131.154C985.941 131.704 985.82 132.349 985.82 133.091C985.82 133.849 985.939 134.51 986.178 135.072C986.42 135.635 986.761 136.072 987.2 136.383C987.643 136.694 988.163 136.849 988.76 136.849C989.152 136.849 989.508 136.781 989.827 136.645C990.147 136.509 990.418 136.312 990.639 136.057C990.861 135.801 991.018 135.494 991.112 135.136H992.621C992.536 135.716 992.325 136.238 991.988 136.702C991.656 137.163 991.214 137.529 990.665 137.802C990.119 138.07 989.484 138.205 988.76 138.205ZM999.096 128.182V129.46H994.008V128.182H999.096ZM995.491 125.83H996.999V135.188C996.999 135.614 997.061 135.933 997.185 136.146C997.313 136.355 997.474 136.496 997.67 136.568C997.871 136.636 998.082 136.67 998.303 136.67C998.469 136.67 998.606 136.662 998.712 136.645C998.819 136.624 998.904 136.607 998.968 136.594L999.275 137.949C999.173 137.987 999.03 138.026 998.847 138.064C998.663 138.107 998.431 138.128 998.15 138.128C997.724 138.128 997.306 138.036 996.897 137.853C996.492 137.67 996.156 137.391 995.887 137.016C995.623 136.641 995.491 136.168 995.491 135.597V125.83ZM1082.83 124.909V138H1081.29L1074.16 127.722H1074.03V138H1072.44V124.909H1073.98L1081.14 135.213H1081.27V124.909H1082.83ZM1089.78 138.205C1088.9 138.205 1088.12 137.994 1087.45 137.572C1086.78 137.15 1086.26 136.56 1085.89 135.801C1085.52 135.043 1085.33 134.156 1085.33 133.142C1085.33 132.119 1085.52 131.227 1085.89 130.464C1086.26 129.701 1086.78 129.109 1087.45 128.687C1088.12 128.265 1088.9 128.054 1089.78 128.054C1090.67 128.054 1091.44 128.265 1092.11 128.687C1092.78 129.109 1093.3 129.701 1093.67 130.464C1094.04 131.227 1094.23 132.119 1094.23 133.142C1094.23 134.156 1094.04 135.043 1093.67 135.801C1093.3 136.56 1092.78 137.15 1092.11 137.572C1091.44 137.994 1090.67 138.205 1089.78 138.205ZM1089.78 136.849C1090.45 136.849 1091.01 136.677 1091.44 136.332C1091.88 135.987 1092.2 135.533 1092.41 134.97C1092.62 134.408 1092.72 133.798 1092.72 133.142C1092.72 132.486 1092.62 131.874 1092.41 131.308C1092.2 130.741 1091.88 130.283 1091.44 129.933C1091.01 129.584 1090.45 129.409 1089.78 129.409C1089.11 129.409 1088.55 129.584 1088.12 129.933C1087.68 130.283 1087.36 130.741 1087.15 131.308C1086.95 131.874 1086.84 132.486 1086.84 133.142C1086.84 133.798 1086.95 134.408 1087.15 134.97C1087.36 135.533 1087.68 135.987 1088.12 136.332C1088.55 136.677 1089.11 136.849 1089.78 136.849ZM1100.8 128.182V129.46H1095.71V128.182H1100.8ZM1097.2 125.83H1098.71V135.188C1098.71 135.614 1098.77 135.933 1098.89 136.146C1099.02 136.355 1099.18 136.496 1099.38 136.568C1099.58 136.636 1099.79 136.67 1100.01 136.67C1100.18 136.67 1100.31 136.662 1100.42 136.645C1100.53 136.624 1100.61 136.607 1100.68 136.594L1100.98 137.949C1100.88 137.987 1100.74 138.026 1100.55 138.064C1100.37 138.107 1100.14 138.128 1099.86 138.128C1099.43 138.128 1099.01 138.036 1098.6 137.853C1098.2 137.67 1097.86 137.391 1097.59 137.016C1097.33 136.641 1097.2 136.168 1097.2 135.597V125.83ZM1107.08 138.205C1106.14 138.205 1105.32 137.996 1104.63 137.578C1103.95 137.156 1103.43 136.568 1103.06 135.814C1102.69 135.055 1102.51 134.173 1102.51 133.168C1102.51 132.162 1102.69 131.276 1103.06 130.509C1103.43 129.737 1103.94 129.136 1104.6 128.706C1105.27 128.271 1106.04 128.054 1106.93 128.054C1107.44 128.054 1107.95 128.139 1108.44 128.31C1108.94 128.48 1109.4 128.757 1109.81 129.141C1110.22 129.52 1110.54 130.023 1110.78 130.649C1111.03 131.276 1111.15 132.047 1111.15 132.963V133.602H1103.58V132.298H1109.61C1109.61 131.744 1109.5 131.25 1109.28 130.815C1109.06 130.381 1108.75 130.038 1108.35 129.786C1107.95 129.535 1107.48 129.409 1106.93 129.409C1106.33 129.409 1105.81 129.558 1105.37 129.857C1104.94 130.151 1104.6 130.534 1104.37 131.007C1104.13 131.48 1104.01 131.987 1104.01 132.528V133.398C1104.01 134.139 1104.14 134.768 1104.4 135.283C1104.66 135.795 1105.02 136.185 1105.48 136.453C1105.94 136.717 1106.47 136.849 1107.08 136.849C1107.48 136.849 1107.84 136.794 1108.16 136.683C1108.48 136.568 1108.76 136.398 1108.99 136.172C1109.23 135.942 1109.41 135.656 1109.54 135.315L1111 135.724C1110.84 136.219 1110.58 136.653 1110.22 137.028C1109.86 137.399 1109.41 137.689 1108.88 137.898C1108.35 138.102 1107.75 138.205 1107.08 138.205ZM1120.4 130.381L1119.04 130.764C1118.96 130.538 1118.83 130.319 1118.67 130.106C1118.5 129.888 1118.28 129.71 1118 129.569C1117.72 129.428 1117.36 129.358 1116.92 129.358C1116.32 129.358 1115.82 129.496 1115.42 129.773C1115.02 130.046 1114.82 130.393 1114.82 130.815C1114.82 131.19 1114.96 131.487 1115.23 131.704C1115.51 131.921 1115.93 132.102 1116.51 132.247L1117.97 132.605C1118.85 132.818 1119.5 133.144 1119.93 133.583C1120.36 134.018 1120.58 134.578 1120.58 135.264C1120.58 135.827 1120.41 136.33 1120.09 136.773C1119.77 137.216 1119.32 137.565 1118.75 137.821C1118.17 138.077 1117.5 138.205 1116.74 138.205C1115.74 138.205 1114.91 137.987 1114.25 137.553C1113.6 137.118 1113.18 136.483 1113.01 135.648L1114.44 135.29C1114.58 135.818 1114.83 136.214 1115.21 136.479C1115.6 136.743 1116.1 136.875 1116.72 136.875C1117.42 136.875 1117.98 136.726 1118.39 136.428C1118.81 136.125 1119.02 135.763 1119.02 135.341C1119.02 135 1118.9 134.714 1118.66 134.484C1118.42 134.25 1118.05 134.075 1117.56 133.96L1115.92 133.577C1115.02 133.364 1114.36 133.033 1113.94 132.586C1113.52 132.134 1113.32 131.57 1113.32 130.892C1113.32 130.338 1113.47 129.848 1113.78 129.422C1114.1 128.996 1114.53 128.661 1115.07 128.418C1115.61 128.175 1116.23 128.054 1116.92 128.054C1117.89 128.054 1118.65 128.267 1119.21 128.693C1119.77 129.119 1120.16 129.682 1120.4 130.381Z" fill="#7596C7"/>
<path d="M91.5852 102V88.9091H96.0085C97.0355 88.9091 97.875 89.0945 98.527 89.4652C99.1832 89.8317 99.669 90.3281 99.9844 90.9545C100.3 91.581 100.457 92.2798 100.457 93.0511C100.457 93.8224 100.3 94.5234 99.9844 95.1541C99.6733 95.7848 99.1918 96.2876 98.5398 96.6626C97.8878 97.0334 97.0526 97.2188 96.0341 97.2188H92.8636V95.8125H95.983C96.6861 95.8125 97.2507 95.6911 97.6768 95.4482C98.103 95.2053 98.4119 94.8771 98.6037 94.4638C98.7997 94.0462 98.8977 93.5753 98.8977 93.0511C98.8977 92.527 98.7997 92.0582 98.6037 91.6449C98.4119 91.2315 98.1009 90.9077 97.6705 90.6733C97.2401 90.4347 96.669 90.3153 95.9574 90.3153H93.1705V102H91.5852ZM103.011 102V88.9091H107.434C108.457 88.9091 109.297 89.0838 109.953 89.4332C110.609 89.7784 111.095 90.2536 111.41 90.8587C111.725 91.4638 111.883 92.152 111.883 92.9233C111.883 93.6946 111.725 94.3786 111.41 94.9751C111.095 95.5717 110.611 96.0405 109.959 96.3814C109.307 96.718 108.474 96.8864 107.46 96.8864H103.88V95.4545H107.409C108.108 95.4545 108.67 95.3523 109.096 95.1477C109.527 94.9432 109.838 94.6534 110.029 94.2784C110.225 93.8991 110.324 93.4474 110.324 92.9233C110.324 92.3991 110.225 91.9411 110.029 91.549C109.833 91.157 109.52 90.8544 109.09 90.6413C108.659 90.424 108.091 90.3153 107.383 90.3153H104.596V102H103.011ZM109.173 96.1193L112.395 102H110.554L107.383 96.1193H109.173ZM125.57 95.4545C125.57 96.8352 125.321 98.0284 124.822 99.0341C124.324 100.04 123.64 100.815 122.77 101.361C121.901 101.906 120.908 102.179 119.792 102.179C118.675 102.179 117.682 101.906 116.813 101.361C115.944 100.815 115.26 100.04 114.761 99.0341C114.263 98.0284 114.013 96.8352 114.013 95.4545C114.013 94.0739 114.263 92.8807 114.761 91.875C115.26 90.8693 115.944 90.0938 116.813 89.5483C117.682 89.0028 118.675 88.7301 119.792 88.7301C120.908 88.7301 121.901 89.0028 122.77 89.5483C123.64 90.0938 124.324 90.8693 124.822 91.875C125.321 92.8807 125.57 94.0739 125.57 95.4545ZM124.036 95.4545C124.036 94.321 123.846 93.3643 123.467 92.5845C123.092 91.8047 122.583 91.2145 121.939 90.8139C121.3 90.4134 120.584 90.2131 119.792 90.2131C118.999 90.2131 118.281 90.4134 117.638 90.8139C116.998 91.2145 116.489 91.8047 116.11 92.5845C115.735 93.3643 115.547 94.321 115.547 95.4545C115.547 96.5881 115.735 97.5447 116.11 98.3246C116.489 99.1044 116.998 99.6946 117.638 100.095C118.281 100.496 118.999 100.696 119.792 100.696C120.584 100.696 121.3 100.496 121.939 100.095C122.583 99.6946 123.092 99.1044 123.467 98.3246C123.846 97.5447 124.036 96.5881 124.036 95.4545ZM133.247 88.9091H134.832V98.267C134.832 99.1023 134.679 99.8118 134.372 100.396C134.065 100.979 133.633 101.423 133.074 101.725C132.516 102.028 131.858 102.179 131.099 102.179C130.383 102.179 129.746 102.049 129.188 101.789C128.63 101.525 128.191 101.15 127.871 100.664C127.552 100.178 127.392 99.6009 127.392 98.9318H128.952C128.952 99.3026 129.043 99.6264 129.226 99.9034C129.414 100.176 129.67 100.389 129.993 100.543C130.317 100.696 130.686 100.773 131.099 100.773C131.555 100.773 131.943 100.677 132.263 100.485C132.582 100.293 132.825 100.012 132.991 99.6413C133.162 99.2663 133.247 98.8082 133.247 98.267V88.9091ZM138.009 102V88.9091H145.91V90.3153H139.594V94.7386H145.501V96.1449H139.594V100.594H146.012V102H138.009ZM159.301 93H157.716C157.622 92.544 157.458 92.1435 157.224 91.7983C156.993 91.4531 156.712 91.1634 156.38 90.929C156.052 90.6903 155.687 90.5114 155.287 90.392C154.886 90.2727 154.469 90.2131 154.034 90.2131C153.241 90.2131 152.523 90.4134 151.88 90.8139C151.241 91.2145 150.731 91.8047 150.352 92.5845C149.977 93.3643 149.79 94.321 149.79 95.4545C149.79 96.5881 149.977 97.5447 150.352 98.3246C150.731 99.1044 151.241 99.6946 151.88 100.095C152.523 100.496 153.241 100.696 154.034 100.696C154.469 100.696 154.886 100.636 155.287 100.517C155.687 100.398 156.052 100.221 156.38 99.9865C156.712 99.7479 156.993 99.456 157.224 99.1108C157.458 98.7614 157.622 98.3608 157.716 97.9091H159.301C159.182 98.5781 158.964 99.1768 158.649 99.7053C158.334 100.234 157.942 100.683 157.473 101.054C157.004 101.42 156.478 101.7 155.894 101.891C155.314 102.083 154.694 102.179 154.034 102.179C152.917 102.179 151.925 101.906 151.055 101.361C150.186 100.815 149.502 100.04 149.003 99.0341C148.505 98.0284 148.256 96.8352 148.256 95.4545C148.256 94.0739 148.505 92.8807 149.003 91.875C149.502 90.8693 150.186 90.0938 151.055 89.5483C151.925 89.0028 152.917 88.7301 154.034 88.7301C154.694 88.7301 155.314 88.826 155.894 89.0178C156.478 89.2095 157.004 89.4908 157.473 89.8615C157.942 90.228 158.334 90.6754 158.649 91.2038C158.964 91.728 159.182 92.3267 159.301 93ZM161.147 90.3153V88.9091H170.965V90.3153H166.848V102H165.263V90.3153H161.147ZM173.586 100.325C173.27 100.325 173 100.212 172.774 99.9865C172.548 99.7607 172.435 99.4901 172.435 99.1747C172.435 98.8594 172.548 98.5888 172.774 98.3629C173 98.1371 173.27 98.0241 173.586 98.0241C173.901 98.0241 174.172 98.1371 174.397 98.3629C174.623 98.5888 174.736 98.8594 174.736 99.1747C174.736 99.3835 174.683 99.5753 174.576 99.75C174.474 99.9247 174.336 100.065 174.161 100.172C173.99 100.274 173.799 100.325 173.586 100.325ZM173.586 93.7031C173.27 93.7031 173 93.5902 172.774 93.3643C172.548 93.1385 172.435 92.8679 172.435 92.5526C172.435 92.2372 172.548 91.9666 172.774 91.7408C173 91.5149 173.27 91.402 173.586 91.402C173.901 91.402 174.172 91.5149 174.397 91.7408C174.623 91.9666 174.736 92.2372 174.736 92.5526C174.736 92.7614 174.683 92.9531 174.576 93.1278C174.474 93.3026 174.336 93.4432 174.161 93.5497C173.99 93.652 173.799 93.7031 173.586 93.7031Z" fill="#7596C7"/>
<line x1="83" y1="77.5" x2="1315" y2="77.5" stroke="#7596C7"/>
<line x1="83" y1="113.5" x2="1315" y2="113.5" stroke="#7596C7"/>
<line y1="-0.5" x2="128.082" y2="-0.5" transform="matrix(-0.733905 0.679252 -0.898015 -0.439964 179 150)" stroke="#7596C7"/>
<line y1="-0.5" x2="128.082" y2="-0.5" transform="matrix(0.733905 0.679252 -0.898015 0.439964 85 150)" stroke="#7596C7"/>
<line y1="-0.5" x2="128.082" y2="-0.5" transform="matrix(-0.733905 0.679252 -0.898015 -0.439964 179 253)" stroke="#7596C7"/>
<line y1="-0.5" x2="128.082" y2="-0.5" transform="matrix(0.733905 0.679252 -0.898015 0.439964 85 253)" stroke="#7596C7"/>
<line y1="-0.5" x2="128.082" y2="-0.5" transform="matrix(-0.733905 0.679252 -0.898015 -0.439964 179 356)" stroke="#7596C7"/>
<line y1="-0.5" x2="128.082" y2="-0.5" transform="matrix(0.733905 0.679252 -0.898015 0.439964 85 356)" stroke="#7596C7"/>
<line y1="-0.5" x2="128.082" y2="-0.5" transform="matrix(-0.733905 0.679252 -0.898015 -0.439964 179 458)" stroke="#7596C7"/>
<line y1="-0.5" x2="128.082" y2="-0.5" transform="matrix(0.733905 0.679252 -0.898015 0.439964 85 458)" stroke="#7596C7"/>
<line y1="-0.5" x2="128.082" y2="-0.5" transform="matrix(-0.733905 0.679252 -0.898015 -0.439964 179 561)" stroke="#7596C7"/>
<line y1="-0.5" x2="128.082" y2="-0.5" transform="matrix(0.733905 0.679252 -0.898015 0.439964 85 561)" stroke="#7596C7"/>
<line y1="-0.5" x2="128.082" y2="-0.5" transform="matrix(-0.733905 0.679252 -0.898015 -0.439964 179 665)" stroke="#7596C7"/>
<line y1="-0.5" x2="128.082" y2="-0.5" transform="matrix(0.733905 0.679252 -0.898015 0.439964 85 665)" stroke="#7596C7"/>
</svg>
